<svg width="25" height="25" viewBox="0 0 25 25" fill="none" xmlns="http://www.w3.org/2000/svg">
<path d="M9.82143 5.81804C8.39844 5.81804 7.06845 6.06423 5.83147 6.55662C4.59449 7.049 3.61096 7.71656 2.88086 8.5593C2.15076 9.40204 1.78571 10.3063 1.78571 11.2722C1.78571 12.0486 2.03218 12.7967 2.52511 13.5163C3.01804 14.2359 3.71094 14.8609 4.60379 15.3911L5.95703 16.1865L5.46875 17.3796C5.78497 17.1902 6.07329 17.0056 6.33371 16.8257L6.94754 16.3854L7.68694 16.5274C8.41239 16.66 9.12388 16.7263 9.82143 16.7263C11.2444 16.7263 12.5744 16.4801 13.8114 15.9877C15.0484 15.4953 16.0319 14.8277 16.762 13.985C17.4921 13.1423 17.8571 12.238 17.8571 11.2722C17.8571 10.3063 17.4921 9.40204 16.762 8.5593C16.0319 7.71656 15.0484 7.049 13.8114 6.55662C12.5744 6.06423 11.2444 5.81804 9.82143 5.81804ZM9.82143 4C11.5978 4 13.2417 4.32431 14.7531 4.97293C16.2644 5.62156 17.4572 6.50454 18.3315 7.62187C19.2057 8.73921 19.6429 9.95597 19.6429 11.2722C19.6429 12.5883 19.2057 13.8051 18.3315 14.9224C17.4572 16.0398 16.2644 16.9227 14.7531 17.5714C13.2417 18.22 11.5978 18.5443 9.82143 18.5443C9.02158 18.5443 8.20312 18.4686 7.36607 18.3171C6.2128 19.1503 4.92001 19.7563 3.48772 20.1351C3.1529 20.2203 2.75298 20.2961 2.28795 20.3623H2.24609C2.14379 20.3623 2.04846 20.3245 1.9601 20.2487C1.87174 20.173 1.81827 20.0735 1.79967 19.9504C1.79036 19.922 1.78571 19.8913 1.78571 19.8581C1.78571 19.825 1.78804 19.7942 1.79269 19.7658C1.79734 19.7374 1.80664 19.709 1.82059 19.6806L1.85547 19.6096L1.9043 19.5314L1.9601 19.4604L2.02288 19.3894L2.07868 19.3255C2.12519 19.2687 2.23214 19.1503 2.39955 18.9704C2.56696 18.7905 2.68787 18.6508 2.76228 18.5514C2.83668 18.452 2.94131 18.3147 3.07617 18.1395C3.21103 17.9643 3.32729 17.7821 3.42494 17.5927C3.5226 17.4033 3.61793 17.195 3.71094 16.9677C2.55766 16.286 1.65086 15.448 0.990513 14.4537C0.330171 13.4595 0 12.399 0 11.2722C0 9.95597 0.437128 8.73921 1.31138 7.62187C2.18564 6.50454 3.37844 5.62156 4.88979 4.97293C6.40113 4.32431 8.04501 4 9.82143 4ZM21.2891 20.6038C21.3821 20.8311 21.4774 21.0394 21.5751 21.2288C21.6727 21.4181 21.789 21.6004 21.9238 21.7756C22.0587 21.9508 22.1633 22.0881 22.2377 22.1875C22.3121 22.2869 22.433 22.4266 22.6004 22.6065C22.7679 22.7864 22.8748 22.9048 22.9213 22.9616C22.9306 22.971 22.9492 22.9923 22.9771 23.0255C23.005 23.0586 23.0259 23.0823 23.0399 23.0965C23.0539 23.1107 23.0725 23.1344 23.0957 23.1675C23.119 23.2007 23.1352 23.2267 23.1445 23.2456L23.1794 23.3167L23.2073 23.4019L23.2143 23.4942L23.2003 23.5865C23.1724 23.7191 23.112 23.8232 23.019 23.899C22.926 23.9747 22.8237 24.0079 22.7121 23.9984C22.247 23.9321 21.8471 23.8564 21.5123 23.7712C20.08 23.3924 18.7872 22.7864 17.6339 21.9531C16.7969 22.1046 15.9784 22.1804 15.1786 22.1804C12.6581 22.1804 10.4632 21.5554 8.59375 20.3055C9.13318 20.3434 9.54241 20.3623 9.82143 20.3623C11.3188 20.3623 12.7558 20.1493 14.1323 19.7232C15.5087 19.2971 16.7364 18.6863 17.8153 17.8909C18.9779 17.0198 19.8707 16.0161 20.4939 14.8798C21.117 13.7435 21.4286 12.541 21.4286 11.2722C21.4286 10.543 21.3216 9.8234 21.1077 9.11323C22.3075 9.78553 23.2561 10.6283 23.9537 11.6414C24.6512 12.6546 25 13.7435 25 14.9082C25 16.0445 24.6698 17.1074 24.0095 18.0969C23.3491 19.0864 22.4423 19.922 21.2891 20.6038Z" fill="currentColor"/>
</svg>
