<svg width="25" height="25" viewBox="0 0 25 25" fill="none" xmlns="http://www.w3.org/2000/svg">
<path d="M18.0102 13.4487L10.9333 20.5915C10.8411 20.6752 10.7352 20.7171 10.6154 20.7171C10.4956 20.7171 10.3896 20.6752 10.2975 20.5915L6.31671 16.5737C6.23377 16.4807 6.19231 16.3737 6.19231 16.2528C6.19231 16.1319 6.23377 16.0296 6.31671 15.9459L6.95252 15.3041C7.03546 15.2204 7.13682 15.1786 7.25661 15.1786C7.3764 15.1786 7.48237 15.2204 7.57452 15.3041L10.6154 18.3733L16.7524 12.1791C16.8446 12.0954 16.9505 12.0536 17.0703 12.0536C17.1901 12.0536 17.2915 12.0954 17.3744 12.1791L18.0102 12.8209C18.0931 12.9046 18.1346 13.0069 18.1346 13.1278C18.1346 13.2487 18.0931 13.3557 18.0102 13.4487ZM1.76923 23.2143H21.2308V8.92857H1.76923V23.2143ZM7.07692 6.25V2.23214C7.07692 2.10193 7.03546 1.99498 6.95252 1.91127C6.86959 1.82757 6.76362 1.78571 6.63462 1.78571H5.75C5.62099 1.78571 5.51502 1.82757 5.43209 1.91127C5.34916 1.99498 5.30769 2.10193 5.30769 2.23214V6.25C5.30769 6.38021 5.34916 6.48716 5.43209 6.57087C5.51502 6.65458 5.62099 6.69643 5.75 6.69643H6.63462C6.76362 6.69643 6.86959 6.65458 6.95252 6.57087C7.03546 6.48716 7.07692 6.38021 7.07692 6.25ZM17.6923 6.25V2.23214C17.6923 2.10193 17.6508 1.99498 17.5679 1.91127C17.485 1.82757 17.379 1.78571 17.25 1.78571H16.3654C16.2364 1.78571 16.1304 1.82757 16.0475 1.91127C15.9645 1.99498 15.9231 2.10193 15.9231 2.23214V6.25C15.9231 6.38021 15.9645 6.48716 16.0475 6.57087C16.1304 6.65458 16.2364 6.69643 16.3654 6.69643H17.25C17.379 6.69643 17.485 6.65458 17.5679 6.57087C17.6508 6.48716 17.6923 6.38021 17.6923 6.25ZM23 5.35714V23.2143C23 23.6979 22.8249 24.1164 22.4748 24.4699C22.1246 24.8233 21.7099 25 21.2308 25H1.76923C1.29006 25 0.875401 24.8233 0.52524 24.4699C0.17508 24.1164 0 23.6979 0 23.2143V5.35714C0 4.87351 0.17508 4.45499 0.52524 4.10156C0.875401 3.74814 1.29006 3.57143 1.76923 3.57143H3.53846V2.23214C3.53846 1.6183 3.75501 1.09282 4.1881 0.655692C4.62119 0.218564 5.14183 0 5.75 0H6.63462C7.24279 0 7.76342 0.218564 8.19651 0.655692C8.62961 1.09282 8.84615 1.6183 8.84615 2.23214V3.57143H14.1538V2.23214C14.1538 1.6183 14.3704 1.09282 14.8035 0.655692C15.2366 0.218564 15.7572 0 16.3654 0H17.25C17.8582 0 18.3788 0.218564 18.8119 0.655692C19.245 1.09282 19.4615 1.6183 19.4615 2.23214V3.57143H21.2308C21.7099 3.57143 22.1246 3.74814 22.4748 4.10156C22.8249 4.45499 23 4.87351 23 5.35714Z" fill="currentColor"/>
</svg>
