<svg width="20" height="20" viewBox="0 0 20 20" fill="none" xmlns="http://www.w3.org/2000/svg">
<path d="M9.5 0C4.25323 0 0 4.25323 0 9.5C0 14.7468 4.25323 19 9.5 19C14.7468 19 19 14.7468 19 9.5C19 4.25323 14.7468 0 9.5 0ZM5.77026 6.53125H13.2119C13.6068 6.53125 13.4029 7.03792 13.1882 7.16755C12.9734 7.2962 10.0017 9.09427 9.8899 9.16057C9.77807 9.22687 9.63557 9.25953 9.49109 9.25953C9.35206 9.26237 9.21478 9.22822 9.09328 9.16057L5.79401 7.16755C5.57927 7.03792 5.37641 6.53125 5.77026 6.53125ZM13.4583 11.974C13.4583 12.1818 13.209 12.4688 13.019 12.4688H5.98104C5.79104 12.4688 5.54167 12.1818 5.54167 11.974V8.36495C5.54167 8.27391 5.53969 8.15615 5.71187 8.25609L9.09328 10.2501C9.21262 10.3231 9.35148 10.3576 9.49109 10.3491C9.63557 10.3491 9.74047 10.3382 9.8899 10.2501L13.2881 8.25708C13.4603 8.15615 13.4583 8.2749 13.4583 8.36594V11.974Z" fill="currentColor"/>
</svg>
