<svg width="43" height="43" viewBox="0 0 43 43" fill="none" xmlns="http://www.w3.org/2000/svg">
<path d="M21.5 43C33.3741 43 43 33.3741 43 21.5C43 9.62587 33.3741 0 21.5 0C9.62587 0 0 9.62587 0 21.5C0 33.3741 9.62587 43 21.5 43Z" fill="currentColor"/>
<path d="M27.9615 11H15.0385C12.7949 11 11 12.7949 11 15.0385V27.9615C11 30.2051 12.7949 32 15.0385 32H27.9615C30.2051 32 32 30.2051 32 27.9615V15.0385C32 12.7949 30.2051 11 27.9615 11ZM29.1282 13.4231H29.5769V17.0128H25.9872V13.4231H29.1282ZM18.5385 19.3462C19.1667 18.4487 20.3333 17.8205 21.5 17.8205C22.6667 17.8205 23.8333 18.4487 24.4615 19.3462C24.9102 19.9744 25.1795 20.6923 25.1795 21.5C25.1795 23.5641 23.4744 25.1795 21.5 25.1795C19.5256 25.1795 17.8205 23.5641 17.8205 21.5C17.8205 20.6923 18.0898 19.9744 18.5385 19.3462ZM29.9359 27.9615C29.9359 29.0385 29.0385 29.9359 27.9615 29.9359H15.0385C13.9615 29.9359 13.0641 29.0385 13.0641 27.9615V19.3462H16.2051C15.9359 19.9744 15.7564 20.7821 15.7564 21.5C15.7564 24.641 18.359 27.2436 21.5 27.2436C24.641 27.2436 27.2436 24.641 27.2436 21.5C27.2436 20.7821 27.0641 19.9743 26.7949 19.3462H29.9359L29.9359 27.9615Z" fill="white"/>
</svg>
