<svg width="30" height="30" viewBox="0 0 30 30" fill="none" xmlns="http://www.w3.org/2000/svg">
<path fill-rule="evenodd" clip-rule="evenodd" d="M15 30C23.2845 30 30 23.2845 30 15C30 6.7155 23.2845 0 15 0C6.7155 0 0 6.7155 0 15C0 23.2845 6.7155 30 15 30ZM19.848 17.0415L22.164 19.3635C22.6245 19.827 22.6095 20.5935 22.134 21.0735L21.471 21.7215L21.456 21.708C20.9004 22.1345 20.2404 22.4039 19.545 22.488C19.395 22.5045 15.8925 22.833 11.5455 18.477C8.4 15.3255 7.2405 13.002 7.548 10.461C7.5825 10.143 7.6605 9.828 7.788 9.4965C7.923 9.1485 8.106 8.8245 8.325 8.5455L8.307 8.5275L8.9595 7.869C9.438 7.389 10.203 7.3755 10.662 7.8375L12.9795 10.1595C13.44 10.6215 13.4265 11.3865 12.9495 11.8665L12.5625 12.252L11.7795 13.0365C11.8221 13.1112 11.8641 13.1862 11.9055 13.2615L11.907 13.266C12.3165 14.0055 12.8775 15.0165 13.9395 16.08C15.0015 17.145 16.0095 17.706 16.7475 18.1155L16.977 18.2445L18.144 17.0745C18.6225 16.5945 19.386 16.581 19.848 17.043V17.0415Z" fill="currentColor"/>
</svg>
