<svg width="30" height="28" viewBox="0 0 30 28" fill="none" xmlns="http://www.w3.org/2000/svg">
<path d="M27.4675 5.12676H2.53247C1.12987 5.12676 0 3.9831 0 2.56338C0 1.14366 1.12987 0 2.53247 0H27.4675C28.8701 0 30 1.14366 30 2.56338C30 3.9831 28.8701 5.12676 27.4675 5.12676ZM30 14C30 12.5803 28.8701 11.4366 27.4675 11.4366H2.53247C1.12987 11.4366 0 12.5803 0 14C0 15.4197 1.12987 16.5634 2.53247 16.5634H27.4675C28.8701 16.5634 30 15.4197 30 14ZM30 25.4366C30 24.0169 28.8701 22.8732 27.4675 22.8732H2.53247C1.12987 22.8732 0 24.0169 0 25.4366C0 26.8563 1.12987 28 2.53247 28H27.4675C28.8701 28 30 26.8563 30 25.4366Z" fill="currentColor"/>
</svg>
