<svg width="20" height="20" viewBox="0 0 20 20" fill="none" xmlns="http://www.w3.org/2000/svg">
<path d="M12.5 14C10.7612 14 9.12813 13.3246 7.90177 12.0983C6.67542 10.8719 6 9.23889 6 7.50004C6 5.76119 6.67538 4.12817 7.90173 2.90181C9.12813 1.67542 10.7612 1 12.5 1C14.2388 1 15.8719 1.67538 17.0982 2.90177C18.3246 4.12813 19 5.76115 19 7.5C19 9.23885 18.3246 10.8719 17.0982 12.0983C15.8719 13.3246 14.2388 14 12.5 14Z" fill="currentColor"/>
<path d="M6.36605 13.0017C6.2724 13.0017 6.1787 12.9659 6.10723 12.8945C5.96426 12.7515 5.96426 12.5198 6.10723 12.3768L7.37686 11.1072C7.51979 10.9643 7.75152 10.9643 7.89445 11.1072C8.03743 11.2501 8.03743 11.4818 7.89445 11.6248L6.62483 12.8945C6.55341 12.9659 6.45975 13.0017 6.36605 13.0017ZM7.36437 14C7.27071 14 7.17701 13.9643 7.10555 13.8928C6.96257 13.7498 6.96257 13.5181 7.10555 13.3751L8.37517 12.1055C8.5181 11.9626 8.74984 11.9626 8.89277 12.1055C9.03574 12.2485 9.03574 12.4802 8.89277 12.6232L7.62314 13.8928C7.55172 13.9643 7.45802 14 7.36437 14Z" fill="currentColor"/>
<path d="M3.15456 19C2.75311 19 2.37564 18.8437 2.09176 18.5598L1.4395 17.9077C0.853498 17.3217 0.853498 16.3683 1.4395 15.7823L4.78191 12.4402C5.06579 12.1564 5.44326 12 5.84475 12C6.2462 12 6.62362 12.1563 6.90751 12.4402L7.55976 13.0924C7.84365 13.3762 8 13.7537 8 14.1551C8 14.5565 7.84365 14.9339 7.55976 15.2178L4.21736 18.5598C3.93352 18.8437 3.55605 19 3.15456 19Z" fill="currentColor"/>
<circle cx="12.5" cy="7.5" r="4.5" fill="white"/>
</svg>
