<svg width="43" height="43" viewBox="0 0 43 43" fill="none" xmlns="http://www.w3.org/2000/svg">
<path d="M21.5 7.40758e-08C17.2477 7.40758e-08 13.0909 1.26095 9.55525 3.6234C6.01959 5.98585 3.26388 9.34369 1.6366 13.2723C0.00931561 17.2009 -0.416456 21.5238 0.413126 25.6944C1.24271 29.865 3.29038 33.696 6.29721 36.7028C9.30404 39.7096 13.135 41.7573 17.3056 42.5869C21.4762 43.4165 25.7991 42.9907 29.7277 41.3634C33.6563 39.7361 37.0141 36.9804 39.3766 33.4448C41.739 29.9091 43 25.7523 43 21.5C43.0002 18.6765 42.4443 15.8806 41.3639 13.272C40.2835 10.6634 38.6998 8.29319 36.7033 6.29668C34.7068 4.30017 32.3366 2.71651 29.728 1.63611C27.1194 0.55572 24.3235 -0.000234304 21.5 7.40758e-08ZM28.336 32.5778C28.2555 32.7785 28.133 32.9596 27.9768 33.1091C27.8206 33.2585 27.6343 33.3729 27.4303 33.4445C27.2263 33.516 27.0093 33.5431 26.794 33.524C26.5786 33.5049 26.3698 33.4399 26.1817 33.3335L20.3451 28.7984L16.5991 32.2543C16.5122 32.3185 16.4105 32.3598 16.3034 32.3745C16.1964 32.3891 16.0873 32.3766 15.9864 32.338L16.7045 25.9128L16.7275 25.9311L16.7421 25.8042C16.7421 25.8042 27.2449 16.2421 27.6727 15.8347C28.1059 15.4283 27.963 15.3402 27.963 15.3402C27.9876 14.8445 27.1857 15.3402 27.1857 15.3402L13.2698 24.2928L7.4745 22.3191C7.4745 22.3191 6.5844 21.9999 6.50056 21.2979C6.41241 20.6013 7.50351 20.2229 7.50351 20.2229L30.5451 11.0693C30.5451 11.0693 32.4392 10.2253 32.4392 11.6229L28.336 32.5778Z" fill="currentColor"/>
</svg>
