<svg width="43" height="43" viewBox="0 0 43 43" fill="none" xmlns="http://www.w3.org/2000/svg">
<path d="M21.5 0C9.62573 0 0 9.62573 0 21.5C0 33.3743 9.62573 43 21.5 43C33.3743 43 43 33.3743 43 21.5C43 9.62573 33.3743 0 21.5 0ZM29.7685 24.2569C29.7685 24.2569 31.6699 26.1337 32.138 27.0049C32.1515 27.0228 32.1582 27.0407 32.1627 27.0497C32.353 27.3699 32.3978 27.6185 32.3037 27.8044C32.147 28.1135 31.6095 28.2658 31.4258 28.2792H28.0665C27.8335 28.2792 27.3453 28.2188 26.7541 27.8111C26.2994 27.4931 25.8515 26.9713 25.4148 26.4629C24.7631 25.7059 24.1987 25.052 23.6298 25.052C23.5576 25.0519 23.4858 25.0632 23.4171 25.0856C22.9871 25.2244 22.4361 25.8381 22.4361 27.473C22.4361 27.9836 22.033 28.277 21.7486 28.277H20.21C19.6859 28.277 16.9559 28.0933 14.5371 25.5424C11.5764 22.4182 8.9113 16.1519 8.88891 16.0936C8.72094 15.6883 9.06807 15.471 9.44656 15.471H12.8395C13.2919 15.471 13.4397 15.7465 13.5428 15.9906C13.6637 16.2751 14.1071 17.406 14.835 18.6781C16.0153 20.752 16.7386 21.5941 17.3187 21.5941C17.4275 21.5928 17.5343 21.5651 17.63 21.5134C18.387 21.0924 18.2459 18.3937 18.2123 17.8338C18.2123 17.7285 18.2101 16.6267 17.8226 16.0981C17.5449 15.7152 17.0723 15.5696 16.7857 15.5158C16.9017 15.3557 17.0546 15.2259 17.2314 15.1373C17.7509 14.8776 18.6871 14.8395 19.6165 14.8395H20.1339C21.1417 14.8529 21.4015 14.9179 21.7665 15.0097C22.5056 15.1866 22.5212 15.6636 22.4563 17.2963C22.4361 17.7599 22.416 18.284 22.416 18.9021C22.416 19.0365 22.4093 19.1798 22.4093 19.3321C22.3869 20.163 22.36 21.1058 22.9468 21.4933C23.0233 21.5413 23.1117 21.5669 23.2021 21.5672C23.4059 21.5672 24.0195 21.5672 25.6813 18.7162C26.1938 17.7985 26.6391 16.845 27.0139 15.863C27.0474 15.8047 27.146 15.6256 27.2624 15.5561C27.3484 15.5123 27.4437 15.49 27.5402 15.4912H31.5289C31.9633 15.4912 32.2612 15.5561 32.3172 15.7241C32.4157 15.9906 32.2993 16.8036 30.4785 19.2694L29.6655 20.3421C28.0149 22.5056 28.0149 22.6153 29.7685 24.2569Z" fill="currentColor"/>
</svg>
