<svg width="25" height="25" viewBox="0 0 25 25" fill="none" xmlns="http://www.w3.org/2000/svg">
<path d="M12.5 5C7.27273 5 2.80864 8.31733 1 13C2.80864 17.6827 7.27273 21 12.5 21C17.7325 21 22.1914 17.6827 24 13C22.1914 8.31733 17.7325 5 12.5 5ZM12.5 18.3333C9.61454 18.3333 7.27273 15.944 7.27273 13C7.27273 10.056 9.61454 7.66667 12.5 7.66667C15.3855 7.66667 17.7273 10.056 17.7273 13C17.7273 15.944 15.3855 18.3333 12.5 18.3333ZM12.5 9.8C10.7698 9.8 9.36364 11.2347 9.36364 13C9.36364 14.7653 10.7698 16.2 12.5 16.2C14.2302 16.2 15.6364 14.7653 15.6364 13C15.6364 11.2347 14.2302 9.8 12.5 9.8Z" fill="currentColor"/>
</svg>
