<svg width="43" height="45" viewBox="0 0 43 45" fill="none" xmlns="http://www.w3.org/2000/svg">
<path d="M19 28L26 23.5L19 19V28Z" fill="currentColor"/>
<path d="M21.5 1C9.62662 1 0 10.6253 0 22.5C0 34.3747 9.62662 44 21.5 44C33.3734 44 43 34.3734 43 22.5C43 10.6266 33.3734 1 21.5 1ZM33.1745 23.442C33.1745 25.4576 32.9407 27.4732 32.9407 27.4732C32.9407 27.4732 32.7122 29.1905 32.0135 29.9444C31.1253 30.9361 30.1309 30.9414 29.674 31.0006C26.406 31.2505 21.5 31.2586 21.5 31.2586C21.5 31.2586 15.4289 31.1994 13.5611 31.0086C13.0411 30.9052 11.8761 30.9347 10.9865 29.9444C10.2864 29.1892 10.0593 27.4732 10.0593 27.4732C10.0593 27.4732 9.8255 25.4589 9.8255 23.442V21.5527C9.8255 19.537 10.0593 17.5227 10.0593 17.5227C10.0593 17.5227 10.2877 15.8054 10.9865 15.0489C11.8747 14.0559 12.8691 14.0505 13.326 13.9941C16.5926 13.7414 21.4946 13.7414 21.4946 13.7414H21.5054C21.5054 13.7414 26.4074 13.7414 29.674 13.9941C30.1296 14.0505 31.1253 14.0559 32.0135 15.0476C32.7136 15.8041 32.9407 17.5214 32.9407 17.5214C32.9407 17.5214 33.1745 19.537 33.1745 21.5527V23.442Z" fill="currentColor"/>
</svg>
