<svg width="35" height="35" viewBox="0 0 35 35" fill="none" xmlns="http://www.w3.org/2000/svg">
<g clip-path="url(#clip0_7110_10098)">
<path d="M29.6747 17.5588C30.0527 17.204 30.4162 16.8468 30.7651 16.4871C31.3641 16.7503 32.0341 16.8032 32.6668 16.6375C33.2995 16.4717 33.8581 16.0969 34.2522 15.5735C34.6463 15.0501 34.853 14.4088 34.8389 13.7531C34.8248 13.0974 34.5907 12.4657 34.1744 11.9598C36.5733 7.20655 33.6583 3.36455 23.2705 6.85661C20.4064 -2.24899 14.5474 -2.30002 11.6397 6.791C-0.303688 2.83236 -3.93105 8.70835 5.4463 17.5661C5.0683 17.9233 4.71937 18.2951 4.37045 18.6305C1.39005 16.8954 -1.52492 20.8905 0.903011 23.2379C-0.223724 25.5198 0.0888537 26.9779 0.575894 27.7652C2.38594 30.798 8.354 29.4347 11.7051 28.3266C14.6128 37.2499 20.3556 37.2208 23.2269 28.261C35.432 32.3873 39.103 26.4603 29.6747 17.5588ZM31.9936 15.3134C31.7061 15.3134 31.425 15.2279 31.1859 15.0676C30.9468 14.9074 30.7605 14.6797 30.6505 14.4133C30.5404 14.1469 30.5116 13.8537 30.5677 13.5709C30.6238 13.288 30.7623 13.0282 30.9656 12.8243C31.1689 12.6204 31.428 12.4815 31.71 12.4253C31.992 12.369 32.2843 12.3979 32.55 12.5082C32.8157 12.6186 33.0427 12.8055 33.2025 13.0453C33.3622 13.285 33.4475 13.5669 33.4475 13.8553C33.4475 14.242 33.2943 14.6129 33.0217 14.8863C32.749 15.1598 32.3792 15.3134 31.9936 15.3134ZM32.975 11.1214C32.3935 10.9175 31.7625 10.9041 31.1729 11.083C30.5834 11.262 30.0657 11.6241 29.6945 12.1171C29.3234 12.6102 29.118 13.2087 29.1079 13.8264C29.0978 14.444 29.2836 15.049 29.6384 15.554C29.3113 15.8966 28.9624 16.232 28.5989 16.5746C22.3037 11.0704 25.6912 16.1955 23.6631 8.27093C29.1296 6.4119 35.4829 5.90887 32.975 11.1214ZM17.5642 24.244C15.5539 23.2102 13.6114 22.0487 11.7487 20.7665C11.5779 18.6388 11.5779 16.5007 11.7487 14.3729C13.6124 13.0944 15.5547 11.9354 17.5642 10.9027C19.4864 11.8981 21.346 13.0107 23.1324 14.2344C23.3142 16.4591 23.3142 18.6949 23.1324 20.9196C21.344 22.1358 19.4846 23.2435 17.5642 24.2367V24.244ZM22.9216 22.7859C22.7658 23.9841 22.5401 25.172 22.2456 26.3436C21.2424 25.9572 20.2102 25.5125 19.1634 25.0168C20.6681 24.2148 21.6567 23.6243 22.9216 22.8005V22.7859ZM15.9576 25.0168C14.8455 25.5417 13.7769 26.0156 12.6792 26.4165C12.3609 25.1712 12.1182 23.9076 11.9523 22.6329C13.4207 23.5952 14.4893 24.2367 15.9576 25.0314V25.0168ZM10.244 19.6876C9.31355 18.995 8.43396 18.2878 7.61254 17.5807C8.43396 16.8516 9.30628 16.1663 10.2367 15.4811C10.1859 16.9027 10.1859 18.2295 10.244 19.6876ZM11.945 12.5139C12.1033 11.2283 12.3461 9.95455 12.6719 8.70106C13.7478 9.10932 14.8527 9.58319 15.9722 10.1154C14.3729 10.9392 13.268 11.6682 11.945 12.4993V12.5139ZM19.2143 10.1154C20.2707 9.62936 21.303 9.18708 22.311 8.78854C22.6036 9.96264 22.8269 11.153 22.9798 12.3535C21.5695 11.4495 20.4573 10.8007 19.1779 10.1008L19.2143 10.1154ZM24.6662 15.3134C25.6766 16.0424 26.6289 16.8079 27.5012 17.5734C26.6217 18.3389 25.6694 19.1043 24.659 19.8479C24.7449 18.3377 24.7473 16.8239 24.6662 15.3134ZM21.8821 7.35964C20.4864 7.89183 19.0325 8.52609 17.5642 9.26241C16.0935 8.5303 14.5868 7.87334 13.0499 7.29403C15.536 -0.59409 19.4978 -0.302478 21.8821 7.35964ZM11.269 8.19074C9.16089 16.4215 12.5702 11.2891 6.55123 16.5819C-1.84477 8.75209 0.852126 4.72784 11.269 8.19074ZM2.9166 19.6876C3.20414 19.6876 3.48523 19.7731 3.72431 19.9333C3.9634 20.0935 4.14974 20.3212 4.25978 20.5876C4.36982 20.8541 4.39861 21.1472 4.34251 21.4301C4.28642 21.7129 4.14795 21.9727 3.94462 22.1766C3.7413 22.3805 3.48225 22.5194 3.20023 22.5757C2.91821 22.6319 2.62589 22.6031 2.36023 22.4927C2.09457 22.3823 1.86751 22.1955 1.70776 21.9557C1.54801 21.7159 1.46274 21.434 1.46274 21.1456C1.46274 20.7589 1.61592 20.3881 1.88857 20.1146C2.16122 19.8412 2.53101 19.6876 2.9166 19.6876ZM2.18967 23.9524C2.73981 24.0848 3.31652 24.0534 3.84911 23.8619C4.3817 23.6705 4.84704 23.3274 5.1881 22.8747C5.52916 22.422 5.73113 21.8793 5.76924 21.3132C5.80735 20.7471 5.67997 20.1821 5.40268 19.6876C5.75888 19.3158 6.12961 18.9585 6.52215 18.5794C12.5992 23.8941 9.15362 18.7398 11.2981 26.9487C5.8243 28.7421 -0.36184 29.165 2.18967 23.9524ZM13.0936 27.8381C14.6187 27.2591 16.1133 26.6021 17.5714 25.8697C19.0253 26.5988 20.4791 27.233 21.853 27.7652C19.4542 35.3107 15.5433 35.5075 13.0936 27.8381ZM23.634 26.8539C25.6912 18.9148 22.2819 24.0618 28.5989 18.543C36.8859 26.3217 34.5088 30.5574 23.6267 26.8539H23.634Z" fill="#308A90"/>
</g>
<defs>
<clipPath id="clip0_7110_10098">
<rect width="35" height="35" fill="white"/>
</clipPath>
</defs>
</svg>
