<svg width="40" height="40" viewBox="0 0 40 40" fill="none" xmlns="http://www.w3.org/2000/svg">
<path d="M31.2265 14L36 7.27024L33.0715 6L30 13.2163" fill="#8DBF00"/>
<path d="M32 13.9074L37.042 10L39 12.6015L32.7414 15" fill="#82AB00"/>
<path d="M8 15.799C7.61923 16.1798 7.1672 16.4818 6.6697 16.6879C6.1722 16.8939 5.63899 17 5.1005 17C4.01298 17 2.97 16.568 2.20101 15.799C1.43202 15.03 1 13.987 1 12.8995C1 11.812 1.43202 10.769 2.20101 10L8 15.799Z" fill="#F9CB5D"/>
<path d="M2.00001 12.4834C1.9998 13.2985 2.22028 14.0983 2.63807 14.7983C3.05586 15.4982 3.65539 16.072 4.37305 16.4589C5.09072 16.8457 5.89977 17.0312 6.71438 16.9957C7.52899 16.9602 8.31879 16.7049 9 16.257L2.74409 10C2.25672 10.7365 1.99787 11.6004 2.00001 12.4834Z" fill="#FFE1AE"/>
<path d="M9.14144 5.01005L9 6L12.9598 6.56575L13.1012 5.5758L9.14144 5.01005Z" fill="#8DBF00"/>
<path d="M21 22C22.4678 19.1347 24.31 16.5077 26.4712 14.1983C27.188 13.4317 28.16 13.0007 29.1738 13C30.1885 13 31.1618 13.431 31.8793 14.1983C32.5969 14.9655 33 16.0061 33 17.0911C33.0001 17.6284 32.9011 18.1604 32.7088 18.6568C32.5165 19.1532 32.2347 19.6041 31.8793 19.984C31.2204 20.6886 30.5347 21.3606 29.8225 22" fill="#F79B31"/>
<path d="M31.1262 14C30.5803 13.9999 30.0398 14.1096 29.5355 14.3228C29.0312 14.536 28.573 14.8486 28.1871 15.2427C26.1975 17.2734 24.4559 19.5424 23 22H30.5482C31.3215 21.3373 32.0663 20.6404 32.7825 19.9093C33.4455 19.2342 33.865 18.3498 33.9726 17.4002C34.0801 16.4506 33.8695 15.4918 33.3749 14.68C32.7054 14.2364 31.9244 14.0002 31.1262 14Z" fill="#FCB732"/>
<path d="M37 21H3C3.00011 24.4721 4.02013 27.8644 5.92825 30.7385C7.83636 33.6125 10.5449 35.8362 13.7037 37.1222V39H26.2963V37.1222C29.4551 35.8362 32.1636 33.6125 34.0717 30.7385C35.9799 27.8644 36.9999 24.4721 37 21Z" fill="#26696E"/>
<path d="M37 21H5C5.00011 24.4721 6.0166 27.8644 7.91812 30.7385C9.81963 33.6125 12.5188 35.8362 15.6667 37.1222V39H26.3333V37.1222C29.4812 35.8362 32.1804 33.6125 34.0819 30.7385C35.9834 27.8644 36.9999 24.4721 37 21Z" fill="#308A90"/>
<path d="M3 21C2.99931 22.881 3.27764 24.7504 3.82482 26.54L4.25926 27L7.40741 23.6667L10.5556 27L13.7037 23.6667L16.8519 27L20 23.6667L23.1481 27L26.2963 23.6667L29.4444 27L32.5926 23.6667L35.7407 27L36.1752 26.54C36.7224 24.7504 37.0007 22.881 37 21H3Z" fill="#308A90"/>
<path d="M7.5098 23.6667L10.6471 27L13.7843 23.6667L16.9216 27L20.0588 23.6667L23.1961 27L26.3333 23.6667L29.4706 27L32.6078 23.6667L35.7451 27L36.178 26.54C36.7233 24.7504 37.0007 22.881 37 21H5C5.00244 22.5878 5.20288 24.1682 5.59608 25.7L7.5098 23.6667Z" fill="#42B2B9"/>
<path d="M14.5 19C15.3284 19 16 18.3284 16 17.5C16 16.6716 15.3284 16 14.5 16C13.6716 16 13 16.6716 13 17.5C13 18.3284 13.6716 19 14.5 19Z" fill="#916658"/>
<path d="M19.5 4C20.3284 4 21 3.32843 21 2.5C21 1.67157 20.3284 1 19.5 1C18.6716 1 18 1.67157 18 2.5C18 3.32843 18.6716 4 19.5 4Z" fill="#916658"/>
<path d="M5.5 8C6.32843 8 7 7.32843 7 6.5C7 5.67157 6.32843 5 5.5 5C4.67157 5 4 5.67157 4 6.5C4 7.32843 4.67157 8 5.5 8Z" fill="#916658"/>
<path d="M23.6154 7.72727V6.52964C23.6154 6.06175 23.5101 5.60029 23.3077 5.18182C23.1053 4.76334 23 4.30188 23 3.834V2C23.5608 2.19316 24.0623 2.53624 24.4535 2.99445C24.8447 3.45266 25.1118 4.0097 25.2277 4.60909L25.4615 5.81818C25.82 4.7063 26.5076 3.73923 27.4271 3.05396C28.3466 2.36869 29.4512 1.99995 30.5846 2H31C31 2.92649 30.7181 3.8295 30.1943 4.58112C29.6704 5.33275 28.9312 5.89488 28.0812 6.18791L27.3077 6.45455L30.3846 7.09091L28.7877 8.32927C28.2265 8.7646 27.544 8.99995 26.8425 9C26.3392 9.00016 25.8427 8.87901 25.3926 8.64618L23.6154 7.72727Z" fill="#719301"/>
<path d="M13.5705 8.29518C14.6286 8.57326 15.6211 9.07691 16.4865 9.7749C17.3518 10.4729 18.0716 11.3504 18.6012 12.3529L20 15V12.1458C20.0001 9.81227 19.2062 7.55566 17.7618 5.78394C17.3058 5.22442 16.74 4.77528 16.1033 4.46735C15.4666 4.15942 14.7741 3.99999 14.0732 4C13.5234 4 12.996 4.22967 12.6072 4.63849C12.2184 5.04731 12 5.60179 12 6.17994C11.9999 6.66618 12.1545 7.13848 12.439 7.52175C12.7236 7.90502 13.1218 8.17726 13.5705 8.29518Z" fill="#E73844"/>
<path d="M13.5793 6C13.0008 6.00039 12.445 6.20459 12.0287 6.5697C12.013 6.65572 12.0034 6.74256 12 6.8297C11.9999 7.28512 12.1673 7.7275 12.4756 8.08649C12.7839 8.44548 13.2153 8.70047 13.7013 8.81091C14.8476 9.07137 15.9228 9.54311 16.8603 10.1969C17.7978 10.8506 18.5776 11.6725 19.1513 12.6115L20 14V13.6297C20.0001 11.444 19.1401 9.33037 17.5753 7.67091C17.0813 7.14684 16.4683 6.72616 15.7786 6.43774C15.0888 6.14932 14.3386 5.99999 13.5793 6Z" fill="#FF4D55"/>
<path d="M5.375 17C5.58424 16.9985 5.79311 16.982 6 16.9506V13.25L4.75 12H1.04937C0.983543 12.4141 0.983543 12.8359 1.04937 13.25H3.86625L1.875 15.2425C2.12605 15.5776 2.42363 15.8752 2.75875 16.1262L4.75 14.1337V16.9506C4.95688 16.982 5.16575 16.9985 5.375 17Z" fill="#F9CB5D"/>
<path d="M27 19.7629L28.4349 21H29.7672C29.8461 20.9428 29.9218 20.8818 30 20.8236L27.8849 19L27 19.7629Z" fill="#F79B31"/>
<path d="M29.7071 14.2929L29 15L31.1213 17.1213L31.8284 16.4142L29.7071 14.2929Z" fill="#F79B31"/>
<path d="M28 16.1339L25.8398 14C25.5541 14.2964 25.2741 14.5976 25 14.9034L27.123 17L28 16.1339Z" fill="#F79B31"/>
</svg>
