<svg width="40" height="40" viewBox="0 0 40 40" fill="none" xmlns="http://www.w3.org/2000/svg">
<path d="M23.987 21.436C19.7335 23.642 18.1794 28.8712 15.48 32.4663C14.9892 33.1199 14.4166 33.7736 14.0894 34.5089C13.7622 35.4077 13.3532 38.1857 14.3348 38.7577C14.0894 39.1662 13.5986 39.0028 13.3533 38.676C13.0261 38.2674 13.2715 37.4504 12.8625 37.2052C12.4535 36.9601 12.1263 37.4504 11.8809 37.7772C11.1447 38.676 9.91772 38.9211 9.42693 38.7577C8.93614 38.5942 9.18153 38.5125 8.36355 38.7577C8.03635 38.8394 7.87276 38.5942 8.11815 38.4308C10.8175 36.3065 10.9811 36.3065 13.5986 30.0968C14.1712 28.7895 14.0076 28.7078 15.5618 25.9298C22.3511 14.0007 27.668 18.8214 26.9318 19.7202C26.2774 20.6189 24.9686 20.9457 23.987 21.436Z" fill="#CCAA87"/>
<path d="M18.5144 35.5683C19.5767 37.5169 28.6064 39.303 20.9425 38.8971C17.5279 38.7347 14.1892 39.709 15.1756 37.7604C15.1756 37.7604 15.4033 37.0297 15.4033 36.3802L15.8586 35.4059L17.9073 35L18.5144 35.5683Z" fill="#D7B690"/>
<path d="M19.1428 36.1863C19.1428 36.1863 17.1901 37.3165 15.9404 36.9129C15.9404 36.9129 15.7842 33.603 14.5344 29.8895C13.6752 25.0457 15.0812 23.754 14.6906 21.3322C14.3001 18.8296 13.7533 18.5874 13.2847 16.5691C12.2693 12.3712 12.1912 11.8061 11.7225 10.6759C8.91062 3.81394 14.925 1.4728 19.1428 3.9754C19.1428 3.9754 20.6269 4.78269 19.6896 8.65769C18.9085 15.5197 19.0647 12.6134 18.8304 21.4129C18.8304 21.4936 17.8931 33.1186 19.1428 36.1863Z" fill="#4E495B"/>
<path d="M31.0193 23.7559C30.9451 23.521 31.0935 23.2079 31.3162 23.0513C32.0583 22.6598 35.695 24.5388 35.1012 27.6703C34.8044 29.0012 34.0622 29.3927 35.2497 32.2111C35.6207 33.1505 36.066 34.09 35.9918 35.186C35.8434 38.3959 31.3162 39.4136 31.9841 35.2643C32.0583 34.638 32.281 33.9334 32.2068 33.3071C32.0583 32.3676 30.9451 31.1933 31.3904 29.0795C31.8357 27.044 33.4685 24.3822 31.6873 23.9908C31.3904 23.9908 31.0935 23.9908 31.0193 23.7559Z" fill="#D27228"/>
<path d="M7.63158 37.6774C7.73684 37.5484 7.73684 37.4839 7.73684 37.3548C7.73684 37.0968 7.73684 36.9032 7.73684 36.6452C7.73684 36.5806 7.73684 36.4516 7.84211 36.3871C7.94737 36.2581 8.1579 36.1935 8.36842 36.129C8.57895 36.0645 8.78947 36.0645 9 36C9 36.4516 8.68421 36.9032 8.47368 37.3548C8.47368 37.4839 8.36842 37.5484 8.36842 37.6774C8.26316 37.8065 8.15789 37.871 8.05263 37.9355C7.84211 38 7.52632 38 7.21053 38C7.10526 38 7 37.9355 7 37.9355C7 37.871 7.21053 37.871 7.31579 37.871C7.42105 37.8065 7.63158 37.7419 7.63158 37.6774Z" fill="#D7B690"/>
<path d="M17.9767 2L20 2.96296L19.5116 6L17 5.92593L17.2093 2.07407L17.9767 2Z" fill="#E4C7AB"/>
<path d="M17.9382 35.5476C18.495 36.4864 18.8132 36.4864 22.5518 38.0511C22.5518 38.0511 26.8472 39.2246 20.6427 38.9117C16.8246 38.677 13.086 39.7722 14.1996 37.7382C14.1996 37.7382 14.4382 37.0341 14.4382 36.33L14.9155 35.3912L17.2223 35L17.9382 35.5476Z" fill="#E4C7AB"/>
<path d="M18.0685 36.1108C18.0685 36.1108 15.8609 37.3211 14.4708 36.9177C14.4708 36.9177 14.3073 33.3673 12.9173 29.4941C11.9361 24.3299 13.4896 22.9582 13.0808 20.4567C12.672 17.7939 12.0179 17.5519 11.5273 15.3732C10.3825 10.9352 10.3008 10.2897 9.81019 9.16002C6.62132 1.73646 13.5714 -0.522884 18.0685 1.97853C18.0685 1.97853 19.7038 2.86613 18.6409 6.98136C17.7415 14.3242 17.9868 11.1773 17.6597 20.5374C17.7415 20.5374 16.6785 32.8831 18.0685 36.1108Z" fill="#68687A"/>
<path d="M19.9327 3C19.2421 4.27879 18.0911 4.75834 17.4005 6.43675C17.0935 7.15607 16.8633 8.11516 17.0935 8.9144C18.2445 12.6708 17.9376 16.747 20.7 18.4254C24.46 19.1447 23.2323 18.9849 26.2249 18.9849L27.5294 17.1466L27.6062 12.7508L27.9898 12.2712C28.0666 12.2712 27.9131 7.95531 19.9327 3Z" fill="#42B2B9"/>
<path d="M17 8C16.2059 7.07143 15.2353 6.5 14 6C15.5882 6.21429 16.6471 7.14286 17 8Z" fill="#4E495B"/>
<path d="M26.8229 12.6602C26.8229 12.6602 27.1255 18.0981 24.4022 19.0721L22.3598 19.7214L22.4354 20.7765C22.4354 21.1823 21.9816 21.507 22.4354 21.6693C22.4354 21.6693 22.1329 22.1563 22.4354 22.3186C22.4354 22.3186 22.5867 22.6432 22.3598 22.6432C22.3598 22.6432 21.6033 22.9679 22.2841 23.6172C23.7214 24.9158 22.8137 24.7535 23.1919 25.5651C23.4188 26.0521 24.1753 27.7565 25.1587 28H28.1845L29.8487 25.0781L30 22.1563L29.7731 21.5881C29.7731 21.5881 28.1089 20.3707 28.2602 18.4228C28.4114 15.4197 29.0166 10.1441 26.8229 12.6602Z" fill="#D7B690"/>
<path d="M23.0909 25C23.1818 24.9375 23.8182 24.6875 24 24.6875C23.8182 24.8125 23.3636 25 23.0909 25ZM23 24.25C23.0909 24.1875 23.4545 24 23.5455 24C23.5455 24.125 23.2727 24.25 23 24.25Z" fill="#3F4040"/>
<path d="M25.8054 26.743C26.2063 26.153 24.9234 25.3101 25.5649 24.8044C25.6451 24.7201 25.8856 24.7201 25.9658 24.5515C26.2063 24.2987 25.8856 23.9615 25.8856 23.6244C25.8856 23.3715 26.1261 23.1186 26.3667 23.0343C27.0883 22.7815 27.8901 23.2872 28.5315 22.8658C28.9324 22.6129 29.0927 22.1072 29.0927 21.6858C29.0927 21.18 28.8522 20.6743 29.1729 20.3371C29.3333 20.0843 29.654 20 29.9747 20C32.1395 20.3372 32.3801 25.3101 31.5783 27.0801C30.0549 30.4516 24.8433 28.5973 25.0036 27.4173C25.0036 26.9959 25.4045 26.6587 25.8054 26.743Z" fill="#D27228"/>
<path d="M26.9948 13C26.9948 13 27.2375 18.4534 24.4063 19.2673C24.4063 19.2673 21.656 21.7092 19.8764 22.6045C19.391 22.8487 18.9866 23.1743 18.5821 23.5812C18.0968 24.151 17.2878 24.8835 16.4789 25.4533C16.0745 25.6975 15.7509 26.1045 15.5082 26.5114C14.942 27.4068 14.8611 27.9765 14.214 28.9532C13.1624 30.4183 10.8974 33.5927 10.493 35.1392C10.493 35.1392 9.19871 39.0461 9.68405 39.6973C9.68405 39.6973 9.60316 40.4298 8.79425 39.6159C8.79425 39.6159 8.55157 39.2089 8.71336 38.1508C8.06623 36.5229 6.52929 40.0228 4.83057 39.8601C4.50701 39.8601 4.18344 39.7787 4.5879 39.5345C4.5879 39.5345 3.21275 39.9414 4.66879 39.0461C7.3382 36.3601 9.03692 33.9183 9.19871 33.0229C9.19871 33.0229 10.9783 26.9998 12.5153 25.1277C12.5153 25.1277 16.398 20.1627 19.391 18.1278C20.928 17.0697 20.6853 15.4418 23.5165 14.4651L26.9948 13Z" fill="#E4C7AB"/>
</svg>
