<svg width="86" height="86" viewBox="0 0 86 86" fill="none" xmlns="http://www.w3.org/2000/svg">
<circle cx="43" cy="43" r="43" fill="#D8C4BE"/>
<path d="M43.7202 15.707C39.1592 12.689 31.3062 14.29 28.4542 19.22C24.2842 25.19 30.1942 32.61 25.9122 36.454C25.2472 38.156 23.1822 39.2 21.6182 40.142C32.2652 48.202 47.8592 41.605 48.8782 28.114C49.9322 29.613 55.7902 31.895 55.9452 29.607C56.3502 20.797 50.1552 16.069 43.7222 15.706L43.7202 15.707Z" fill="#565468"/>
<path d="M51.0911 50.13C49.4961 49.642 39.2601 49.948 37.4201 49.869C36.5764 49.8703 35.7351 49.9574 34.9091 50.129C32.2006 50.7088 29.7727 52.1992 28.0297 54.3518C26.2866 56.5044 25.3339 59.1892 25.3301 61.959V71.259C25.3309 71.5054 25.4291 71.7415 25.6033 71.9158C25.7776 72.09 26.0137 72.1882 26.2601 72.189H59.7401C59.9865 72.1882 60.2226 72.09 60.3968 71.9158C60.571 71.7415 60.6693 71.5054 60.6701 71.259V61.959C60.6663 59.1892 59.7135 56.5044 57.9705 54.3518C56.2275 52.1992 53.7995 50.7098 51.0911 50.13Z" fill="#01B4BB"/>
<path d="M45.7903 45.4854H40.2103C39.9639 45.4861 39.7278 45.5844 39.5535 45.7586C39.3793 45.9329 39.2811 46.1689 39.2803 46.4154V53.8554C39.2803 54.842 39.6722 55.7882 40.3698 56.4858C41.0675 57.1834 42.0137 57.5754 43.0003 57.5754C43.9869 57.5754 44.9331 57.1834 45.6307 56.4858C46.3283 55.7882 46.7203 54.842 46.7203 53.8554V46.4154C46.7195 46.1689 46.6212 45.9329 46.447 45.7586C46.2728 45.5844 46.0367 45.4861 45.7903 45.4854Z" fill="#FFC490"/>
<path d="M51.3234 28.8797C50.4356 28.2964 49.6407 27.5827 48.9654 26.7627H47.0324C42.0654 32.3987 36.7944 32.9407 30.3804 29.6117C30.1062 30.2424 29.9765 30.9264 30.001 31.6137C30.0254 32.301 30.2033 32.9741 30.5216 33.5838C30.84 34.1934 31.2906 34.7241 31.8407 35.1369C32.3907 35.5497 33.0261 35.8343 33.7004 35.9697C33.2474 49.6757 52.7574 49.6677 52.3004 35.9697C52.9235 35.8479 53.5144 35.5977 54.0355 35.2351C54.5567 34.8725 54.9967 34.4055 55.3276 33.8636C55.6585 33.3218 55.873 32.717 55.9575 32.0878C56.042 31.4586 55.9946 30.8186 55.8184 30.2087C54.2527 30.0372 52.7303 29.5878 51.3234 28.8797Z" fill="#FFC490"/>
<path d="M43.5657 58.6432C42.6817 56.9092 39.9317 51.5412 38.9997 49.7252C37.5375 49.654 36.072 49.7412 34.6287 49.9852C34.4528 50.1642 34.3529 50.4042 34.3497 50.6552V58.0952C34.3478 58.2672 34.3949 58.4363 34.4853 58.5827C34.5758 58.7291 34.7059 58.8468 34.8607 58.9222L37.6417 60.3172L36.3677 62.2332C36.2393 62.4232 36.1863 62.6543 36.2191 62.8813C36.2518 63.1083 36.3679 63.315 36.5447 63.4612C37.5847 64.2982 41.2717 67.4452 42.2647 68.1942C42.2817 68.2072 43.5897 67.0952 43.6497 67.0512V59.0252C43.6497 58.8932 43.621 58.7629 43.5657 58.6432Z" fill="#0291B2"/>
<path d="M43.9303 67.2054V72.7854H42.0703V67.2054C42.0703 66.9587 42.1683 66.7222 42.3427 66.5478C42.5171 66.3734 42.7537 66.2754 43.0003 66.2754C43.247 66.2754 43.4835 66.3734 43.6579 66.5478C43.8323 66.7222 43.9303 66.9587 43.9303 67.2054Z" fill="#0291B2"/>
<path d="M51.3706 49.99C49.9272 49.7461 48.4617 49.6589 46.9996 49.73C46.3036 51.257 42.7696 57.637 42.3496 59.03V67.4C42.352 67.5778 42.405 67.7513 42.5024 67.9C42.5999 68.0488 42.7377 68.1667 42.8998 68.2398C43.0619 68.313 43.2415 68.3384 43.4175 68.3131C43.5935 68.2878 43.7587 68.2129 43.8936 68.097L49.4546 63.466C49.6314 63.3199 49.7475 63.1132 49.7802 62.8862C49.8129 62.6592 49.76 62.4281 49.6316 62.238L48.3576 60.322L51.1376 58.927C51.2927 58.8518 51.4231 58.7339 51.5138 58.5873C51.6044 58.4407 51.6516 58.2714 51.6496 58.099V50.659C51.6464 50.4081 51.5464 50.1681 51.3706 49.989V49.99Z" fill="#0291B2"/>
<path d="M31.896 44.7527C33.2563 44.674 34.6034 44.4426 35.912 44.0627C36.7978 44.9603 37.8456 45.682 39 46.1897V49.0337C31.032 48.2957 24.038 53.8187 24 62.0337V72.0337C24 72.2989 24.1053 72.5533 24.2929 72.7408C24.4804 72.9283 24.7347 73.0337 25 73.0337H61C61.2652 73.0337 61.5195 72.9283 61.7071 72.7408C61.8946 72.5533 62 72.2989 62 72.0337V62.0337C61.959 53.8157 54.971 48.2977 47 49.0337V46.1977C48.9449 45.3254 50.5687 43.8673 51.6445 42.027C52.7202 40.1868 53.1941 38.0564 53 35.9337C54.2955 35.6568 55.431 34.8836 56.1634 33.7797C56.8957 32.6758 57.1666 31.3289 56.918 30.0277C57.0821 28.1814 56.8715 26.321 56.299 24.5581C55.7264 22.7952 54.8037 21.1661 53.5861 19.7685C52.3685 18.3709 50.8811 17.2337 49.2132 16.4251C47.5454 15.6165 45.7313 15.1531 43.88 15.0627C40.873 12.9017 36.365 12.5597 32.77 13.8227C25.577 16.6597 24.4 23.2527 25.674 28.9897C26.86 34.3907 25.506 37.8037 19.777 39.0597C19.5943 39.1043 19.4277 39.1992 19.2962 39.3335C19.1646 39.4679 19.0733 39.6365 19.0327 39.8201C18.992 40.0037 19.0035 40.195 19.0659 40.3724C19.1284 40.5497 19.2392 40.7061 19.386 40.8237C22.98 43.5333 27.3981 44.9213 31.896 44.7537V44.7527ZM38.351 51.0337L42 59.2467V65.8987L38.33 62.8407L39.832 60.5887C39.9098 60.4704 39.9618 60.337 39.9845 60.1972C40.0073 60.0574 40.0002 59.9144 39.9639 59.7776C39.9275 59.6407 39.8627 59.513 39.7736 59.4029C39.6846 59.2929 39.5732 59.2028 39.447 59.1387L36 57.4167V51.0847C36.63 51.0127 37.71 51.0397 38.35 51.0347L38.351 51.0337ZM26 62.0337C25.9927 59.6383 26.7712 57.3066 28.2162 55.3961C29.6613 53.4856 31.693 52.1017 34 51.4567V58.0337C33.9999 58.2195 34.0516 58.4017 34.1493 58.5598C34.2469 58.7179 34.3867 58.8456 34.553 58.9287L37.54 60.4217L36.168 62.4797C36.0312 62.6848 35.9751 62.9333 36.0104 63.1773C36.0456 63.4213 36.1698 63.6436 36.359 63.8017L42 68.5017V71.0337H26V62.0337ZM60 62.0337V71.0337H44V68.5027L49.64 63.8027C49.8296 63.6447 49.9541 63.4222 49.9895 63.178C50.025 62.9338 49.9689 62.6851 49.832 62.4797L48.46 60.4217L51.447 58.9287C51.6132 58.8456 51.753 58.7179 51.8507 58.5598C51.9484 58.4017 52.0001 58.2195 52 58.0337V51.4567C54.3069 52.1017 56.3387 53.4856 57.7837 55.3961C59.2287 57.3066 60.0073 59.6383 60 62.0337ZM49 51.0337C49.33 51.0337 49.664 51.0537 50 51.0837V57.4157L46.553 59.1397C46.4268 59.2038 46.3156 59.2938 46.2267 59.4038C46.1377 59.5139 46.0729 59.6414 46.0366 59.7781C46.0002 59.9149 45.9932 60.0578 46.0158 60.1974C46.0384 60.3371 46.0903 60.4704 46.168 60.5887L47.67 62.8407L44 65.8997V59.2477L47.65 51.0347L49 51.0337ZM45 50.0337C45.0016 50.211 45.051 50.3846 45.1428 50.5363C45.2346 50.6879 45.3656 50.8121 45.522 50.8957L43 56.5707L40.478 50.8957C40.6343 50.8121 40.7653 50.6879 40.8571 50.5363C40.949 50.3846 40.9983 50.211 41 50.0337V46.8257C42.319 47.0991 43.6798 47.1018 45 46.8337V50.0337ZM52 34.0337C51.7347 34.0337 51.4804 34.1391 51.2929 34.3266C51.1053 34.5141 51 34.7685 51 35.0337V37.0337C51.101 44.3137 41.672 47.8487 36.966 42.2787C35.144 40.3687 34.861 37.5697 35 35.0337C35 34.7685 34.8946 34.5141 34.7071 34.3266C34.5195 34.1391 34.2652 34.0337 34 34.0337C33.3283 34.0319 32.6767 33.8048 32.1494 33.3887C31.6222 32.9726 31.2498 32.3916 31.092 31.7387C36.368 34.1937 43.36 33.6657 48.07 26.9707C48.8631 28.104 49.8933 29.0513 51.0891 29.7466C52.2849 30.442 53.6177 30.8689 54.995 30.9977C55.0004 31.3944 54.9269 31.7883 54.7789 32.1564C54.6308 32.5246 54.411 32.8596 54.1324 33.142C53.8537 33.4245 53.5217 33.6488 53.1557 33.8019C52.7896 33.9549 52.3967 34.0337 52 34.0337ZM54.918 28.8137C53.9374 28.7724 52.977 28.5221 52.101 28.0797C50.7566 27.1775 49.6491 25.965 48.872 24.5447C48.7809 24.3862 48.6483 24.2556 48.4885 24.1668C48.3287 24.0781 48.1477 24.0346 47.965 24.0411C47.7823 24.0476 47.6048 24.1038 47.4517 24.2036C47.2986 24.3034 47.1756 24.4432 47.096 24.6077C46.6244 25.6116 46.0055 26.5395 45.26 27.3607C40.195 32.3577 34.849 31.5807 31.082 29.4747C30.65 13.4347 54.292 12.8517 54.918 28.8137ZM22.306 40.3867C33.437 35.8167 24.013 26.8627 28.638 19.5797C30.442 16.3877 35.391 14.2097 39.676 15.3807C36.6704 16.0663 33.9862 17.751 32.0619 20.1595C30.1377 22.568 29.0871 25.5579 29.082 28.6407V30.0267C28.8333 31.328 29.1042 32.675 29.8365 33.7791C30.5688 34.8832 31.7044 35.6566 33 35.9337C32.825 38.1829 33.3643 40.4299 34.541 42.3547C30.429 43.5597 24.635 42.0017 22.306 40.3877V40.3867Z" fill="#42210B"/>
<path d="M52 65.0342C52 65.2994 52.1054 65.5538 52.2929 65.7413C52.4804 65.9288 52.7348 66.0342 53 66.0342H57C57.2652 66.0342 57.5196 65.9288 57.7071 65.7413C57.8946 65.5538 58 65.2994 58 65.0342C58 64.769 57.8946 64.5146 57.7071 64.3271C57.5196 64.1395 57.2652 64.0342 57 64.0342H53C52.7348 64.0342 52.4804 64.1395 52.2929 64.3271C52.1054 64.5146 52 64.769 52 65.0342Z" fill="#42210B"/>
</svg>
