<svg width="293" height="53" viewBox="0 0 293 53" fill="none" xmlns="http://www.w3.org/2000/svg">
<ellipse cx="2.49671" cy="2.49307" rx="2.49671" ry="2.49307" transform="matrix(1 8.73947e-08 8.74509e-08 -1 0.466309 52.8533)" fill="#D8C4BE"/>
<ellipse cx="2.49671" cy="2.49307" rx="2.49671" ry="2.49307" transform="matrix(1 8.73947e-08 8.74509e-08 -1 60.3877 52.8533)" fill="#D8C4BE"/>
<ellipse cx="2.49671" cy="2.49307" rx="2.49671" ry="2.49307" transform="matrix(1 8.73947e-08 8.74509e-08 -1 120.309 52.8533)" fill="#D8C4BE"/>
<ellipse cx="2.49671" cy="2.49307" rx="2.49671" ry="2.49307" transform="matrix(1 8.73947e-08 8.74509e-08 -1 12.4507 52.8533)" fill="#D8C4BE"/>
<ellipse cx="2.49671" cy="2.49307" rx="2.49671" ry="2.49307" transform="matrix(1 8.73947e-08 8.74509e-08 -1 72.3721 52.8533)" fill="#D8C4BE"/>
<ellipse cx="2.49671" cy="2.49307" rx="2.49671" ry="2.49307" transform="matrix(1 8.73947e-08 8.74509e-08 -1 132.293 52.8533)" fill="#D8C4BE"/>
<ellipse cx="2.49671" cy="2.49307" rx="2.49671" ry="2.49307" transform="matrix(1 8.73947e-08 8.74509e-08 -1 24.4351 52.8533)" fill="#D8C4BE"/>
<ellipse cx="2.49671" cy="2.49307" rx="2.49671" ry="2.49307" transform="matrix(1 8.73947e-08 8.74509e-08 -1 84.356 52.8533)" fill="#D8C4BE"/>
<ellipse cx="2.49671" cy="2.49307" rx="2.49671" ry="2.49307" transform="matrix(1 8.73947e-08 8.74509e-08 -1 36.4189 52.8533)" fill="#D8C4BE"/>
<ellipse cx="2.49671" cy="2.49307" rx="2.49671" ry="2.49307" transform="matrix(1 8.73947e-08 8.74509e-08 -1 96.3403 52.8533)" fill="#D8C4BE"/>
<ellipse cx="2.49671" cy="2.49307" rx="2.49671" ry="2.49307" transform="matrix(1 8.73947e-08 8.74509e-08 -1 48.4033 52.8533)" fill="#D8C4BE"/>
<ellipse cx="2.49671" cy="2.49307" rx="2.49671" ry="2.49307" transform="matrix(1 8.73947e-08 8.74509e-08 -1 108.325 52.8533)" fill="#D8C4BE"/>
<ellipse cx="2.49671" cy="2.49307" rx="2.49671" ry="2.49307" transform="matrix(1 8.73947e-08 8.74509e-08 -1 6.4585 40.8865)" fill="#D8C4BE"/>
<ellipse cx="2.49671" cy="2.49307" rx="2.49671" ry="2.49307" transform="matrix(1 8.73947e-08 8.74509e-08 -1 66.3799 40.8865)" fill="#D8C4BE"/>
<ellipse cx="2.49671" cy="2.49307" rx="2.49671" ry="2.49307" transform="matrix(1 8.73947e-08 8.74509e-08 -1 126.301 40.8865)" fill="#D8C4BE"/>
<ellipse cx="2.49671" cy="2.49307" rx="2.49671" ry="2.49307" transform="matrix(1 8.73947e-08 8.74509e-08 -1 18.4429 40.8865)" fill="#D8C4BE"/>
<ellipse cx="2.49671" cy="2.49307" rx="2.49671" ry="2.49307" transform="matrix(1 8.73947e-08 8.74509e-08 -1 78.3638 40.8865)" fill="#D8C4BE"/>
<ellipse cx="2.49671" cy="2.49307" rx="2.49671" ry="2.49307" transform="matrix(1 8.73947e-08 8.74509e-08 -1 138.285 40.8865)" fill="#D8C4BE"/>
<ellipse cx="2.49671" cy="2.49307" rx="2.49671" ry="2.49307" transform="matrix(1 8.73947e-08 8.74509e-08 -1 30.4272 40.8865)" fill="#D8C4BE"/>
<ellipse cx="2.49671" cy="2.49307" rx="2.49671" ry="2.49307" transform="matrix(1 8.73947e-08 8.74509e-08 -1 90.3481 40.8865)" fill="#D8C4BE"/>
<ellipse cx="2.49671" cy="2.49307" rx="2.49671" ry="2.49307" transform="matrix(1 8.73947e-08 8.74509e-08 -1 42.4111 40.8865)" fill="#D8C4BE"/>
<ellipse cx="2.49671" cy="2.49307" rx="2.49671" ry="2.49307" transform="matrix(1 8.73947e-08 8.74509e-08 -1 102.333 40.8865)" fill="#D8C4BE"/>
<ellipse cx="2.49671" cy="2.49307" rx="2.49671" ry="2.49307" transform="matrix(1 8.73947e-08 8.74509e-08 -1 54.3955 40.8865)" fill="#D8C4BE"/>
<ellipse cx="2.49671" cy="2.49307" rx="2.49671" ry="2.49307" transform="matrix(1 8.73947e-08 8.74509e-08 -1 114.317 40.8865)" fill="#D8C4BE"/>
<ellipse cx="2.49671" cy="2.49307" rx="2.49671" ry="2.49307" transform="matrix(1 8.73947e-08 8.74509e-08 -1 60.3877 28.9197)" fill="#D8C4BE"/>
<ellipse cx="2.49671" cy="2.49307" rx="2.49671" ry="2.49307" transform="matrix(1 8.73947e-08 8.74509e-08 -1 120.309 28.9197)" fill="#D8C4BE"/>
<ellipse cx="2.49671" cy="2.49307" rx="2.49671" ry="2.49307" transform="matrix(1 8.73947e-08 8.74509e-08 -1 12.4507 28.9197)" fill="#D8C4BE"/>
<ellipse cx="2.49671" cy="2.49307" rx="2.49671" ry="2.49307" transform="matrix(1 8.73947e-08 8.74509e-08 -1 72.3721 28.9197)" fill="#D8C4BE"/>
<ellipse cx="2.49671" cy="2.49307" rx="2.49671" ry="2.49307" transform="matrix(1 8.73947e-08 8.74509e-08 -1 132.293 28.9197)" fill="#D8C4BE"/>
<ellipse cx="2.49671" cy="2.49307" rx="2.49671" ry="2.49307" transform="matrix(1 8.73947e-08 8.74509e-08 -1 144.277 28.9197)" fill="#D8C4BE"/>
<ellipse cx="2.49671" cy="2.49307" rx="2.49671" ry="2.49307" transform="matrix(1 8.73947e-08 8.74509e-08 -1 24.4351 28.9197)" fill="#D8C4BE"/>
<ellipse cx="2.49671" cy="2.49307" rx="2.49671" ry="2.49307" transform="matrix(1 8.73947e-08 8.74509e-08 -1 84.356 28.9197)" fill="#D8C4BE"/>
<ellipse cx="2.49671" cy="2.49307" rx="2.49671" ry="2.49307" transform="matrix(1 8.73947e-08 8.74509e-08 -1 36.4189 28.9197)" fill="#D8C4BE"/>
<ellipse cx="2.49671" cy="2.49307" rx="2.49671" ry="2.49307" transform="matrix(1 8.73947e-08 8.74509e-08 -1 96.3403 28.9197)" fill="#D8C4BE"/>
<ellipse cx="2.49671" cy="2.49307" rx="2.49671" ry="2.49307" transform="matrix(1 8.73947e-08 8.74509e-08 -1 48.4033 28.9197)" fill="#D8C4BE"/>
<ellipse cx="2.49671" cy="2.49307" rx="2.49671" ry="2.49307" transform="matrix(1 8.73947e-08 8.74509e-08 -1 108.325 28.9197)" fill="#D8C4BE"/>
<ellipse cx="2.49671" cy="2.49307" rx="2.49671" ry="2.49307" transform="matrix(1 8.73947e-08 8.74509e-08 -1 6.4585 16.9529)" fill="#D8C4BE"/>
<ellipse cx="2.49671" cy="2.49307" rx="2.49671" ry="2.49307" transform="matrix(1 8.73947e-08 8.74509e-08 -1 66.3799 16.9529)" fill="#D8C4BE"/>
<ellipse cx="2.49671" cy="2.49307" rx="2.49671" ry="2.49307" transform="matrix(1 8.73947e-08 8.74509e-08 -1 126.301 16.9529)" fill="#D8C4BE"/>
<ellipse cx="2.49671" cy="2.49307" rx="2.49671" ry="2.49307" transform="matrix(1 8.73947e-08 8.74509e-08 -1 18.4429 16.9529)" fill="#D8C4BE"/>
<ellipse cx="2.49671" cy="2.49307" rx="2.49671" ry="2.49307" transform="matrix(1 8.73947e-08 8.74509e-08 -1 78.3638 16.9529)" fill="#D8C4BE"/>
<ellipse cx="2.49671" cy="2.49307" rx="2.49671" ry="2.49307" transform="matrix(1 8.73947e-08 8.74509e-08 -1 138.285 16.9529)" fill="#D8C4BE"/>
<ellipse cx="2.49671" cy="2.49307" rx="2.49671" ry="2.49307" transform="matrix(1 8.73947e-08 8.74509e-08 -1 30.4272 16.9529)" fill="#D8C4BE"/>
<ellipse cx="2.49671" cy="2.49307" rx="2.49671" ry="2.49307" transform="matrix(1 8.73947e-08 8.74509e-08 -1 90.3481 16.9529)" fill="#D8C4BE"/>
<ellipse cx="2.49671" cy="2.49307" rx="2.49671" ry="2.49307" transform="matrix(1 8.73947e-08 8.74509e-08 -1 42.4111 16.9529)" fill="#D8C4BE"/>
<ellipse cx="2.49671" cy="2.49307" rx="2.49671" ry="2.49307" transform="matrix(1 8.73947e-08 8.74509e-08 -1 102.333 16.9529)" fill="#D8C4BE"/>
<ellipse cx="2.49671" cy="2.49307" rx="2.49671" ry="2.49307" transform="matrix(1 8.73947e-08 8.74509e-08 -1 54.3955 16.9529)" fill="#D8C4BE"/>
<ellipse cx="2.49671" cy="2.49307" rx="2.49671" ry="2.49307" transform="matrix(1 8.73947e-08 8.74509e-08 -1 114.317 16.9529)" fill="#D8C4BE"/>
<ellipse cx="2.49671" cy="2.49307" rx="2.49671" ry="2.49307" transform="matrix(1 8.73947e-08 8.74509e-08 -1 0.466309 4.98608)" fill="#D8C4BE"/>
<ellipse cx="2.49671" cy="2.49307" rx="2.49671" ry="2.49307" transform="matrix(1 8.73947e-08 8.74509e-08 -1 60.3877 4.98608)" fill="#D8C4BE"/>
<ellipse cx="2.49671" cy="2.49307" rx="2.49671" ry="2.49307" transform="matrix(1 8.73947e-08 8.74509e-08 -1 120.309 4.98608)" fill="#D8C4BE"/>
<ellipse cx="2.49671" cy="2.49307" rx="2.49671" ry="2.49307" transform="matrix(1 8.73947e-08 8.74509e-08 -1 12.4507 4.98608)" fill="#D8C4BE"/>
<ellipse cx="2.49671" cy="2.49307" rx="2.49671" ry="2.49307" transform="matrix(1 8.73947e-08 8.74509e-08 -1 72.3721 4.98608)" fill="#D8C4BE"/>
<ellipse cx="2.49671" cy="2.49307" rx="2.49671" ry="2.49307" transform="matrix(1 8.73947e-08 8.74509e-08 -1 132.293 4.98608)" fill="#D8C4BE"/>
<ellipse cx="2.49671" cy="2.49307" rx="2.49671" ry="2.49307" transform="matrix(1 8.73947e-08 8.74509e-08 -1 24.4351 4.98608)" fill="#D8C4BE"/>
<ellipse cx="2.49671" cy="2.49307" rx="2.49671" ry="2.49307" transform="matrix(1 8.73947e-08 8.74509e-08 -1 84.356 4.98608)" fill="#D8C4BE"/>
<ellipse cx="2.49671" cy="2.49307" rx="2.49671" ry="2.49307" transform="matrix(1 8.73947e-08 8.74509e-08 -1 36.4189 4.98608)" fill="#D8C4BE"/>
<ellipse cx="2.49671" cy="2.49307" rx="2.49671" ry="2.49307" transform="matrix(1 8.73947e-08 8.74509e-08 -1 96.3403 4.98608)" fill="#D8C4BE"/>
<ellipse cx="2.49671" cy="2.49307" rx="2.49671" ry="2.49307" transform="matrix(1 8.73947e-08 8.74509e-08 -1 48.4033 4.98608)" fill="#D8C4BE"/>
<ellipse cx="2.49671" cy="2.49307" rx="2.49671" ry="2.49307" transform="matrix(1 8.73947e-08 8.74509e-08 -1 108.325 4.98608)" fill="#D8C4BE"/>
<ellipse cx="2.49671" cy="2.49307" rx="2.49671" ry="2.49307" transform="matrix(1 8.73947e-08 8.74509e-08 -1 143.279 52.8533)" fill="#D8C4BE"/>
<ellipse cx="2.49671" cy="2.49307" rx="2.49671" ry="2.49307" transform="matrix(1 8.73947e-08 8.74509e-08 -1 203.2 52.8533)" fill="#D8C4BE"/>
<ellipse cx="2.49671" cy="2.49307" rx="2.49671" ry="2.49307" transform="matrix(1 8.73947e-08 8.74509e-08 -1 263.121 52.8533)" fill="#D8C4BE"/>
<ellipse cx="2.49671" cy="2.49307" rx="2.49671" ry="2.49307" transform="matrix(1 8.73947e-08 8.74509e-08 -1 155.263 52.8533)" fill="#D8C4BE"/>
<ellipse cx="2.49671" cy="2.49307" rx="2.49671" ry="2.49307" transform="matrix(1 8.73947e-08 8.74509e-08 -1 215.184 52.8533)" fill="#D8C4BE"/>
<ellipse cx="2.49671" cy="2.49307" rx="2.49671" ry="2.49307" transform="matrix(1 8.73947e-08 8.74509e-08 -1 275.105 52.8533)" fill="#D8C4BE"/>
<ellipse cx="2.49671" cy="2.49307" rx="2.49671" ry="2.49307" transform="matrix(1 8.73947e-08 8.74509e-08 -1 167.247 52.8533)" fill="#D8C4BE"/>
<ellipse cx="2.49671" cy="2.49307" rx="2.49671" ry="2.49307" transform="matrix(1 8.73947e-08 8.74509e-08 -1 227.168 52.8533)" fill="#D8C4BE"/>
<ellipse cx="2.49671" cy="2.49307" rx="2.49671" ry="2.49307" transform="matrix(1 8.73947e-08 8.74509e-08 -1 179.231 52.8533)" fill="#D8C4BE"/>
<ellipse cx="2.49671" cy="2.49307" rx="2.49671" ry="2.49307" transform="matrix(1 8.73947e-08 8.74509e-08 -1 239.152 52.8533)" fill="#D8C4BE"/>
<ellipse cx="2.49671" cy="2.49307" rx="2.49671" ry="2.49307" transform="matrix(1 8.73947e-08 8.74509e-08 -1 191.215 52.8533)" fill="#D8C4BE"/>
<ellipse cx="2.49671" cy="2.49307" rx="2.49671" ry="2.49307" transform="matrix(1 8.73947e-08 8.74509e-08 -1 251.137 52.8533)" fill="#D8C4BE"/>
<ellipse cx="2.49671" cy="2.49307" rx="2.49671" ry="2.49307" transform="matrix(1 8.73947e-08 8.74509e-08 -1 149.271 40.8865)" fill="#D8C4BE"/>
<ellipse cx="2.49671" cy="2.49307" rx="2.49671" ry="2.49307" transform="matrix(1 8.73947e-08 8.74509e-08 -1 209.192 40.8865)" fill="#D8C4BE"/>
<ellipse cx="2.49671" cy="2.49307" rx="2.49671" ry="2.49307" transform="matrix(1 8.73947e-08 8.74509e-08 -1 269.113 40.8865)" fill="#D8C4BE"/>
<ellipse cx="2.49671" cy="2.49307" rx="2.49671" ry="2.49307" transform="matrix(1 8.73947e-08 8.74509e-08 -1 161.255 40.8865)" fill="#D8C4BE"/>
<ellipse cx="2.49671" cy="2.49307" rx="2.49671" ry="2.49307" transform="matrix(1 8.73947e-08 8.74509e-08 -1 221.176 40.8865)" fill="#D8C4BE"/>
<ellipse cx="2.49671" cy="2.49307" rx="2.49671" ry="2.49307" transform="matrix(1 8.73947e-08 8.74509e-08 -1 281.097 40.8865)" fill="#D8C4BE"/>
<ellipse cx="2.49671" cy="2.49307" rx="2.49671" ry="2.49307" transform="matrix(1 8.73947e-08 8.74509e-08 -1 173.239 40.8865)" fill="#D8C4BE"/>
<ellipse cx="2.49671" cy="2.49307" rx="2.49671" ry="2.49307" transform="matrix(1 8.73947e-08 8.74509e-08 -1 233.16 40.8865)" fill="#D8C4BE"/>
<ellipse cx="2.49671" cy="2.49307" rx="2.49671" ry="2.49307" transform="matrix(1 8.73947e-08 8.74509e-08 -1 185.224 40.8865)" fill="#D8C4BE"/>
<ellipse cx="2.49671" cy="2.49307" rx="2.49671" ry="2.49307" transform="matrix(1 8.73947e-08 8.74509e-08 -1 245.145 40.8865)" fill="#D8C4BE"/>
<ellipse cx="2.49671" cy="2.49307" rx="2.49671" ry="2.49307" transform="matrix(1 8.73947e-08 8.74509e-08 -1 197.208 40.8865)" fill="#D8C4BE"/>
<ellipse cx="2.49671" cy="2.49307" rx="2.49671" ry="2.49307" transform="matrix(1 8.73947e-08 8.74509e-08 -1 257.129 40.8865)" fill="#D8C4BE"/>
<ellipse cx="2.49671" cy="2.49307" rx="2.49671" ry="2.49307" transform="matrix(1 8.73947e-08 8.74509e-08 -1 203.2 28.9197)" fill="#D8C4BE"/>
<ellipse cx="2.49671" cy="2.49307" rx="2.49671" ry="2.49307" transform="matrix(1 8.73947e-08 8.74509e-08 -1 263.121 28.9197)" fill="#D8C4BE"/>
<ellipse cx="2.49671" cy="2.49307" rx="2.49671" ry="2.49307" transform="matrix(1 8.73947e-08 8.74509e-08 -1 155.263 28.9197)" fill="#D8C4BE"/>
<ellipse cx="2.49671" cy="2.49307" rx="2.49671" ry="2.49307" transform="matrix(1 8.73947e-08 8.74509e-08 -1 215.184 28.9197)" fill="#D8C4BE"/>
<ellipse cx="2.49671" cy="2.49307" rx="2.49671" ry="2.49307" transform="matrix(1 8.73947e-08 8.74509e-08 -1 275.105 28.9197)" fill="#D8C4BE"/>
<ellipse cx="2.49671" cy="2.49307" rx="2.49671" ry="2.49307" transform="matrix(1 8.73947e-08 8.74509e-08 -1 287.089 28.9197)" fill="#D8C4BE"/>
<ellipse cx="2.49671" cy="2.49307" rx="2.49671" ry="2.49307" transform="matrix(1 8.73947e-08 8.74509e-08 -1 167.247 28.9197)" fill="#D8C4BE"/>
<ellipse cx="2.49671" cy="2.49307" rx="2.49671" ry="2.49307" transform="matrix(1 8.73947e-08 8.74509e-08 -1 227.168 28.9197)" fill="#D8C4BE"/>
<ellipse cx="2.49671" cy="2.49307" rx="2.49671" ry="2.49307" transform="matrix(1 8.73947e-08 8.74509e-08 -1 179.231 28.9197)" fill="#D8C4BE"/>
<ellipse cx="2.49671" cy="2.49307" rx="2.49671" ry="2.49307" transform="matrix(1 8.73947e-08 8.74509e-08 -1 239.152 28.9197)" fill="#D8C4BE"/>
<ellipse cx="2.49671" cy="2.49307" rx="2.49671" ry="2.49307" transform="matrix(1 8.73947e-08 8.74509e-08 -1 191.215 28.9197)" fill="#D8C4BE"/>
<ellipse cx="2.49671" cy="2.49307" rx="2.49671" ry="2.49307" transform="matrix(1 8.73947e-08 8.74509e-08 -1 251.137 28.9197)" fill="#D8C4BE"/>
<ellipse cx="2.49671" cy="2.49307" rx="2.49671" ry="2.49307" transform="matrix(1 8.73947e-08 8.74509e-08 -1 149.271 16.9529)" fill="#D8C4BE"/>
<ellipse cx="2.49671" cy="2.49307" rx="2.49671" ry="2.49307" transform="matrix(1 8.73947e-08 8.74509e-08 -1 209.192 16.9529)" fill="#D8C4BE"/>
<ellipse cx="2.49671" cy="2.49307" rx="2.49671" ry="2.49307" transform="matrix(1 8.73947e-08 8.74509e-08 -1 269.113 16.9529)" fill="#D8C4BE"/>
<ellipse cx="2.49671" cy="2.49307" rx="2.49671" ry="2.49307" transform="matrix(1 8.73947e-08 8.74509e-08 -1 161.255 16.9529)" fill="#D8C4BE"/>
<ellipse cx="2.49671" cy="2.49307" rx="2.49671" ry="2.49307" transform="matrix(1 8.73947e-08 8.74509e-08 -1 221.176 16.9529)" fill="#D8C4BE"/>
<ellipse cx="2.49671" cy="2.49307" rx="2.49671" ry="2.49307" transform="matrix(1 8.73947e-08 8.74509e-08 -1 281.097 16.9529)" fill="#D8C4BE"/>
<ellipse cx="2.49671" cy="2.49307" rx="2.49671" ry="2.49307" transform="matrix(1 8.73947e-08 8.74509e-08 -1 173.239 16.9529)" fill="#D8C4BE"/>
<ellipse cx="2.49671" cy="2.49307" rx="2.49671" ry="2.49307" transform="matrix(1 8.73947e-08 8.74509e-08 -1 233.16 16.9529)" fill="#D8C4BE"/>
<ellipse cx="2.49671" cy="2.49307" rx="2.49671" ry="2.49307" transform="matrix(1 8.73947e-08 8.74509e-08 -1 185.224 16.9529)" fill="#D8C4BE"/>
<ellipse cx="2.49671" cy="2.49307" rx="2.49671" ry="2.49307" transform="matrix(1 8.73947e-08 8.74509e-08 -1 245.145 16.9529)" fill="#D8C4BE"/>
<ellipse cx="2.49671" cy="2.49307" rx="2.49671" ry="2.49307" transform="matrix(1 8.73947e-08 8.74509e-08 -1 197.208 16.9529)" fill="#D8C4BE"/>
<ellipse cx="2.49671" cy="2.49307" rx="2.49671" ry="2.49307" transform="matrix(1 8.73947e-08 8.74509e-08 -1 257.129 16.9529)" fill="#D8C4BE"/>
<ellipse cx="2.49671" cy="2.49307" rx="2.49671" ry="2.49307" transform="matrix(1 8.73947e-08 8.74509e-08 -1 143.279 4.98608)" fill="#D8C4BE"/>
<ellipse cx="2.49671" cy="2.49307" rx="2.49671" ry="2.49307" transform="matrix(1 8.73947e-08 8.74509e-08 -1 203.2 4.98608)" fill="#D8C4BE"/>
<ellipse cx="2.49671" cy="2.49307" rx="2.49671" ry="2.49307" transform="matrix(1 8.73947e-08 8.74509e-08 -1 263.121 4.98608)" fill="#D8C4BE"/>
<ellipse cx="2.49671" cy="2.49307" rx="2.49671" ry="2.49307" transform="matrix(1 8.73947e-08 8.74509e-08 -1 155.263 4.98608)" fill="#D8C4BE"/>
<ellipse cx="2.49671" cy="2.49307" rx="2.49671" ry="2.49307" transform="matrix(1 8.73947e-08 8.74509e-08 -1 215.184 4.98608)" fill="#D8C4BE"/>
<ellipse cx="2.49671" cy="2.49307" rx="2.49671" ry="2.49307" transform="matrix(1 8.73947e-08 8.74509e-08 -1 275.105 4.98608)" fill="#D8C4BE"/>
<ellipse cx="2.49671" cy="2.49307" rx="2.49671" ry="2.49307" transform="matrix(1 8.73947e-08 8.74509e-08 -1 167.247 4.98608)" fill="#D8C4BE"/>
<ellipse cx="2.49671" cy="2.49307" rx="2.49671" ry="2.49307" transform="matrix(1 8.73947e-08 8.74509e-08 -1 227.168 4.98608)" fill="#D8C4BE"/>
<ellipse cx="2.49671" cy="2.49307" rx="2.49671" ry="2.49307" transform="matrix(1 8.73947e-08 8.74509e-08 -1 179.231 4.98608)" fill="#D8C4BE"/>
<ellipse cx="2.49671" cy="2.49307" rx="2.49671" ry="2.49307" transform="matrix(1 8.73947e-08 8.74509e-08 -1 239.152 4.98608)" fill="#D8C4BE"/>
<ellipse cx="2.49671" cy="2.49307" rx="2.49671" ry="2.49307" transform="matrix(1 8.73947e-08 8.74509e-08 -1 191.215 4.98608)" fill="#D8C4BE"/>
<ellipse cx="2.49671" cy="2.49307" rx="2.49671" ry="2.49307" transform="matrix(1 8.73947e-08 8.74509e-08 -1 251.137 4.98608)" fill="#D8C4BE"/>
</svg>
