<svg width="261" height="53" viewBox="0 0 261 53" fill="none" xmlns="http://www.w3.org/2000/svg">
<g clip-path="url(#clip0_7027_2672)">
<circle cx="2.5" cy="2.5" r="2.5" transform="matrix(1 8.74228e-08 8.74228e-08 -1 2 47)" fill="white" fill-opacity="0.7"/>
<circle cx="2.5" cy="2.5" r="2.5" transform="matrix(1 8.74228e-08 8.74228e-08 -1 54 47)" fill="white" fill-opacity="0.7"/>
<circle cx="2.5" cy="2.5" r="2.5" transform="matrix(1 8.74228e-08 8.74228e-08 -1 107 47)" fill="white" fill-opacity="0.7"/>
<circle cx="2.5" cy="2.5" r="2.5" transform="matrix(1 8.74228e-08 8.74228e-08 -1 12 47)" fill="white" fill-opacity="0.7"/>
<circle cx="2.5" cy="2.5" r="2.5" transform="matrix(1 8.74228e-08 8.74228e-08 -1 65 47)" fill="white" fill-opacity="0.7"/>
<circle cx="2.5" cy="2.5" r="2.5" transform="matrix(1 8.74228e-08 8.74228e-08 -1 117 47)" fill="white" fill-opacity="0.7"/>
<circle cx="2.5" cy="2.5" r="2.5" transform="matrix(1 8.74228e-08 8.74228e-08 -1 23 47)" fill="white" fill-opacity="0.7"/>
<circle cx="2.5" cy="2.5" r="2.5" transform="matrix(1 8.74228e-08 8.74228e-08 -1 75 47)" fill="white" fill-opacity="0.7"/>
<circle cx="2.5" cy="2.5" r="2.5" transform="matrix(1 8.74228e-08 8.74228e-08 -1 33 47)" fill="white" fill-opacity="0.7"/>
<circle cx="2.5" cy="2.5" r="2.5" transform="matrix(1 8.74228e-08 8.74228e-08 -1 86 47)" fill="white" fill-opacity="0.7"/>
<circle cx="2.5" cy="2.5" r="2.5" transform="matrix(1 8.74228e-08 8.74228e-08 -1 44 47)" fill="white" fill-opacity="0.7"/>
<circle cx="2.5" cy="2.5" r="2.5" transform="matrix(1 8.74228e-08 8.74228e-08 -1 96 47)" fill="white" fill-opacity="0.7"/>
<circle cx="2.5" cy="2.5" r="2.5" transform="matrix(1 8.74228e-08 8.74228e-08 -1 7 36)" fill="white" fill-opacity="0.7"/>
<circle cx="2.5" cy="2.5" r="2.5" transform="matrix(1 8.74228e-08 8.74228e-08 -1 59 36)" fill="white" fill-opacity="0.7"/>
<circle cx="2.5" cy="2.5" r="2.5" transform="matrix(1 8.74228e-08 8.74228e-08 -1 112 36)" fill="white" fill-opacity="0.7"/>
<circle cx="2.5" cy="2.5" r="2.5" transform="matrix(1 8.74228e-08 8.74228e-08 -1 17 36)" fill="white" fill-opacity="0.7"/>
<circle cx="2.5" cy="2.5" r="2.5" transform="matrix(1 8.74228e-08 8.74228e-08 -1 70 36)" fill="white" fill-opacity="0.7"/>
<circle cx="2.5" cy="2.5" r="2.5" transform="matrix(1 8.74228e-08 8.74228e-08 -1 122 36)" fill="white" fill-opacity="0.7"/>
<circle cx="2.5" cy="2.5" r="2.5" transform="matrix(1 8.74228e-08 8.74228e-08 -1 28 36)" fill="white" fill-opacity="0.7"/>
<circle cx="2.5" cy="2.5" r="2.5" transform="matrix(1 8.74228e-08 8.74228e-08 -1 80 36)" fill="white" fill-opacity="0.7"/>
<circle cx="2.5" cy="2.5" r="2.5" transform="matrix(1 8.74228e-08 8.74228e-08 -1 38 36)" fill="white" fill-opacity="0.7"/>
<circle cx="2.5" cy="2.5" r="2.5" transform="matrix(1 8.74228e-08 8.74228e-08 -1 91 36)" fill="white" fill-opacity="0.7"/>
<circle cx="2.5" cy="2.5" r="2.5" transform="matrix(1 8.74228e-08 8.74228e-08 -1 49 36)" fill="white" fill-opacity="0.7"/>
<circle cx="2.5" cy="2.5" r="2.5" transform="matrix(1 8.74228e-08 8.74228e-08 -1 101 36)" fill="white" fill-opacity="0.7"/>
<circle cx="2.5" cy="2.5" r="2.5" transform="matrix(1 8.74228e-08 8.74228e-08 -1 55 26)" fill="white" fill-opacity="0.7"/>
<circle cx="2.5" cy="2.5" r="2.5" transform="matrix(1 8.74228e-08 8.74228e-08 -1 107 26)" fill="white" fill-opacity="0.7"/>
<circle cx="2.5" cy="2.5" r="2.5" transform="matrix(1 8.74228e-08 8.74228e-08 -1 13 26)" fill="white" fill-opacity="0.7"/>
<circle cx="2.5" cy="2.5" r="2.5" transform="matrix(1 8.74228e-08 8.74228e-08 -1 65 26)" fill="white" fill-opacity="0.7"/>
<circle cx="2.5" cy="2.5" r="2.5" transform="matrix(1 8.74228e-08 8.74228e-08 -1 118 26)" fill="white" fill-opacity="0.7"/>
<circle cx="2.5" cy="2.5" r="2.5" transform="matrix(1 8.74228e-08 8.74228e-08 -1 128 26)" fill="white" fill-opacity="0.7"/>
<circle cx="2.5" cy="2.5" r="2.5" transform="matrix(1 8.74228e-08 8.74228e-08 -1 23 26)" fill="white" fill-opacity="0.7"/>
<circle cx="2.5" cy="2.5" r="2.5" transform="matrix(1 8.74228e-08 8.74228e-08 -1 76 26)" fill="white" fill-opacity="0.7"/>
<circle cx="2.5" cy="2.5" r="2.5" transform="matrix(1 8.74228e-08 8.74228e-08 -1 34 26)" fill="white" fill-opacity="0.7"/>
<circle cx="2.5" cy="2.5" r="2.5" transform="matrix(1 8.74228e-08 8.74228e-08 -1 86 26)" fill="white" fill-opacity="0.7"/>
<circle cx="2.5" cy="2.5" r="2.5" transform="matrix(1 8.74228e-08 8.74228e-08 -1 44 26)" fill="white" fill-opacity="0.7"/>
<circle cx="2.5" cy="2.5" r="2.5" transform="matrix(1 8.74228e-08 8.74228e-08 -1 97 26)" fill="white" fill-opacity="0.7"/>
<circle cx="2.5" cy="2.5" r="2.5" transform="matrix(1 8.74228e-08 8.74228e-08 -1 7 15)" fill="white" fill-opacity="0.7"/>
<circle cx="2.5" cy="2.5" r="2.5" transform="matrix(1 8.74228e-08 8.74228e-08 -1 59 15)" fill="white" fill-opacity="0.7"/>
<circle cx="2.5" cy="2.5" r="2.5" transform="matrix(1 8.74228e-08 8.74228e-08 -1 112 15)" fill="white" fill-opacity="0.7"/>
<circle cx="2.5" cy="2.5" r="2.5" transform="matrix(1 8.74228e-08 8.74228e-08 -1 17 15)" fill="white" fill-opacity="0.7"/>
<circle cx="2.5" cy="2.5" r="2.5" transform="matrix(1 8.74228e-08 8.74228e-08 -1 70 15)" fill="white" fill-opacity="0.7"/>
<circle cx="2.5" cy="2.5" r="2.5" transform="matrix(1 8.74228e-08 8.74228e-08 -1 122 15)" fill="white" fill-opacity="0.7"/>
<circle cx="2.5" cy="2.5" r="2.5" transform="matrix(1 8.74228e-08 8.74228e-08 -1 28 15)" fill="white" fill-opacity="0.7"/>
<circle cx="2.5" cy="2.5" r="2.5" transform="matrix(1 8.74228e-08 8.74228e-08 -1 80 15)" fill="white" fill-opacity="0.7"/>
<circle cx="2.5" cy="2.5" r="2.5" transform="matrix(1 8.74228e-08 8.74228e-08 -1 38 15)" fill="white" fill-opacity="0.7"/>
<circle cx="2.5" cy="2.5" r="2.5" transform="matrix(1 8.74228e-08 8.74228e-08 -1 91 15)" fill="white" fill-opacity="0.7"/>
<circle cx="2.5" cy="2.5" r="2.5" transform="matrix(1 8.74228e-08 8.74228e-08 -1 49 15)" fill="white" fill-opacity="0.7"/>
<circle cx="2.5" cy="2.5" r="2.5" transform="matrix(1 8.74228e-08 8.74228e-08 -1 101 15)" fill="white" fill-opacity="0.7"/>
<circle cx="2.5" cy="2.5" r="2.5" transform="matrix(1 8.74228e-08 8.74228e-08 -1 2 5)" fill="white" fill-opacity="0.7"/>
<circle cx="2.5" cy="2.5" r="2.5" transform="matrix(1 8.74228e-08 8.74228e-08 -1 54 5)" fill="white" fill-opacity="0.7"/>
<circle cx="2.5" cy="2.5" r="2.5" transform="matrix(1 8.74228e-08 8.74228e-08 -1 107 5)" fill="white" fill-opacity="0.7"/>
<circle cx="2.5" cy="2.5" r="2.5" transform="matrix(1 8.74228e-08 8.74228e-08 -1 12 5)" fill="white" fill-opacity="0.7"/>
<circle cx="2.5" cy="2.5" r="2.5" transform="matrix(1 8.74228e-08 8.74228e-08 -1 65 5)" fill="white" fill-opacity="0.7"/>
<circle cx="2.5" cy="2.5" r="2.5" transform="matrix(1 8.74228e-08 8.74228e-08 -1 117 5)" fill="white" fill-opacity="0.7"/>
<circle cx="2.5" cy="2.5" r="2.5" transform="matrix(1 8.74228e-08 8.74228e-08 -1 23 5)" fill="white" fill-opacity="0.7"/>
<circle cx="2.5" cy="2.5" r="2.5" transform="matrix(1 8.74228e-08 8.74228e-08 -1 75 5)" fill="white" fill-opacity="0.7"/>
<circle cx="2.5" cy="2.5" r="2.5" transform="matrix(1 8.74228e-08 8.74228e-08 -1 33 5)" fill="white" fill-opacity="0.7"/>
<circle cx="2.5" cy="2.5" r="2.5" transform="matrix(1 8.74228e-08 8.74228e-08 -1 86 5)" fill="white" fill-opacity="0.7"/>
<circle cx="2.5" cy="2.5" r="2.5" transform="matrix(1 8.74228e-08 8.74228e-08 -1 44 5)" fill="white" fill-opacity="0.7"/>
<circle cx="2.5" cy="2.5" r="2.5" transform="matrix(1 8.74228e-08 8.74228e-08 -1 96 5)" fill="white" fill-opacity="0.7"/>
<circle cx="2.5" cy="2.5" r="2.5" transform="matrix(1 8.74228e-08 8.74228e-08 -1 128 47)" fill="white" fill-opacity="0.7"/>
<circle cx="2.5" cy="2.5" r="2.5" transform="matrix(1 8.74228e-08 8.74228e-08 -1 180 47)" fill="white" fill-opacity="0.7"/>
<circle cx="2.5" cy="2.5" r="2.5" transform="matrix(1 8.74228e-08 8.74228e-08 -1 233 47)" fill="white" fill-opacity="0.7"/>
<circle cx="2.5" cy="2.5" r="2.5" transform="matrix(1 8.74228e-08 8.74228e-08 -1 138 47)" fill="white" fill-opacity="0.7"/>
<circle cx="2.5" cy="2.5" r="2.5" transform="matrix(1 8.74228e-08 8.74228e-08 -1 191 47)" fill="white" fill-opacity="0.7"/>
<circle cx="2.5" cy="2.5" r="2.5" transform="matrix(1 8.74228e-08 8.74228e-08 -1 243 47)" fill="white" fill-opacity="0.7"/>
<circle cx="2.5" cy="2.5" r="2.5" transform="matrix(1 8.74228e-08 8.74228e-08 -1 149 47)" fill="white" fill-opacity="0.7"/>
<circle cx="2.5" cy="2.5" r="2.5" transform="matrix(1 8.74228e-08 8.74228e-08 -1 201 47)" fill="white" fill-opacity="0.7"/>
<circle cx="2.5" cy="2.5" r="2.5" transform="matrix(1 8.74228e-08 8.74228e-08 -1 159 47)" fill="white" fill-opacity="0.7"/>
<circle cx="2.5" cy="2.5" r="2.5" transform="matrix(1 8.74228e-08 8.74228e-08 -1 212 47)" fill="white" fill-opacity="0.7"/>
<circle cx="2.5" cy="2.5" r="2.5" transform="matrix(1 8.74228e-08 8.74228e-08 -1 170 47)" fill="white" fill-opacity="0.7"/>
<circle cx="2.5" cy="2.5" r="2.5" transform="matrix(1 8.74228e-08 8.74228e-08 -1 222 47)" fill="white" fill-opacity="0.7"/>
<circle cx="2.5" cy="2.5" r="2.5" transform="matrix(1 8.74228e-08 8.74228e-08 -1 133 36)" fill="white" fill-opacity="0.7"/>
<circle cx="2.5" cy="2.5" r="2.5" transform="matrix(1 8.74228e-08 8.74228e-08 -1 185 36)" fill="white" fill-opacity="0.7"/>
<circle cx="2.5" cy="2.5" r="2.5" transform="matrix(1 8.74228e-08 8.74228e-08 -1 238 36)" fill="white" fill-opacity="0.7"/>
<circle cx="2.5" cy="2.5" r="2.5" transform="matrix(1 8.74228e-08 8.74228e-08 -1 143 36)" fill="white" fill-opacity="0.7"/>
<circle cx="2.5" cy="2.5" r="2.5" transform="matrix(1 8.74228e-08 8.74228e-08 -1 196 36)" fill="white" fill-opacity="0.7"/>
<circle cx="2.5" cy="2.5" r="2.5" transform="matrix(1 8.74228e-08 8.74228e-08 -1 248 36)" fill="white" fill-opacity="0.7"/>
<circle cx="2.5" cy="2.5" r="2.5" transform="matrix(1 8.74228e-08 8.74228e-08 -1 154 36)" fill="white" fill-opacity="0.7"/>
<circle cx="2.5" cy="2.5" r="2.5" transform="matrix(1 8.74228e-08 8.74228e-08 -1 206 36)" fill="white" fill-opacity="0.7"/>
<circle cx="2.5" cy="2.5" r="2.5" transform="matrix(1 8.74228e-08 8.74228e-08 -1 164 36)" fill="white" fill-opacity="0.7"/>
<circle cx="2.5" cy="2.5" r="2.5" transform="matrix(1 8.74228e-08 8.74228e-08 -1 217 36)" fill="white" fill-opacity="0.7"/>
<circle cx="2.5" cy="2.5" r="2.5" transform="matrix(1 8.74228e-08 8.74228e-08 -1 175 36)" fill="white" fill-opacity="0.7"/>
<circle cx="2.5" cy="2.5" r="2.5" transform="matrix(1 8.74228e-08 8.74228e-08 -1 227 36)" fill="white" fill-opacity="0.7"/>
<circle cx="2.5" cy="2.5" r="2.5" transform="matrix(1 8.74228e-08 8.74228e-08 -1 181 26)" fill="white" fill-opacity="0.7"/>
<circle cx="2.5" cy="2.5" r="2.5" transform="matrix(1 8.74228e-08 8.74228e-08 -1 233 26)" fill="white" fill-opacity="0.7"/>
<circle cx="2.5" cy="2.5" r="2.5" transform="matrix(1 8.74228e-08 8.74228e-08 -1 139 26)" fill="white" fill-opacity="0.7"/>
<circle cx="2.5" cy="2.5" r="2.5" transform="matrix(1 8.74228e-08 8.74228e-08 -1 191 26)" fill="white" fill-opacity="0.7"/>
<circle cx="2.5" cy="2.5" r="2.5" transform="matrix(1 8.74228e-08 8.74228e-08 -1 244 26)" fill="white" fill-opacity="0.7"/>
<circle cx="2.5" cy="2.5" r="2.5" transform="matrix(1 8.74228e-08 8.74228e-08 -1 254 26)" fill="white" fill-opacity="0.7"/>
<circle cx="2.5" cy="2.5" r="2.5" transform="matrix(1 8.74228e-08 8.74228e-08 -1 149 26)" fill="white" fill-opacity="0.7"/>
<circle cx="2.5" cy="2.5" r="2.5" transform="matrix(1 8.74228e-08 8.74228e-08 -1 202 26)" fill="white" fill-opacity="0.7"/>
<circle cx="2.5" cy="2.5" r="2.5" transform="matrix(1 8.74228e-08 8.74228e-08 -1 160 26)" fill="white" fill-opacity="0.7"/>
<circle cx="2.5" cy="2.5" r="2.5" transform="matrix(1 8.74228e-08 8.74228e-08 -1 212 26)" fill="white" fill-opacity="0.7"/>
<circle cx="2.5" cy="2.5" r="2.5" transform="matrix(1 8.74228e-08 8.74228e-08 -1 170 26)" fill="white" fill-opacity="0.7"/>
<circle cx="2.5" cy="2.5" r="2.5" transform="matrix(1 8.74228e-08 8.74228e-08 -1 223 26)" fill="white" fill-opacity="0.7"/>
<circle cx="2.5" cy="2.5" r="2.5" transform="matrix(1 8.74228e-08 8.74228e-08 -1 133 15)" fill="white" fill-opacity="0.7"/>
<circle cx="2.5" cy="2.5" r="2.5" transform="matrix(1 8.74228e-08 8.74228e-08 -1 185 15)" fill="white" fill-opacity="0.7"/>
<circle cx="2.5" cy="2.5" r="2.5" transform="matrix(1 8.74228e-08 8.74228e-08 -1 238 15)" fill="white" fill-opacity="0.7"/>
<circle cx="2.5" cy="2.5" r="2.5" transform="matrix(1 8.74228e-08 8.74228e-08 -1 143 15)" fill="white" fill-opacity="0.7"/>
<circle cx="2.5" cy="2.5" r="2.5" transform="matrix(1 8.74228e-08 8.74228e-08 -1 196 15)" fill="white" fill-opacity="0.7"/>
<circle cx="2.5" cy="2.5" r="2.5" transform="matrix(1 8.74228e-08 8.74228e-08 -1 248 15)" fill="white" fill-opacity="0.7"/>
<circle cx="2.5" cy="2.5" r="2.5" transform="matrix(1 8.74228e-08 8.74228e-08 -1 154 15)" fill="white" fill-opacity="0.7"/>
<circle cx="2.5" cy="2.5" r="2.5" transform="matrix(1 8.74228e-08 8.74228e-08 -1 206 15)" fill="white" fill-opacity="0.7"/>
<circle cx="2.5" cy="2.5" r="2.5" transform="matrix(1 8.74228e-08 8.74228e-08 -1 164 15)" fill="white" fill-opacity="0.7"/>
<circle cx="2.5" cy="2.5" r="2.5" transform="matrix(1 8.74228e-08 8.74228e-08 -1 217 15)" fill="white" fill-opacity="0.7"/>
<circle cx="2.5" cy="2.5" r="2.5" transform="matrix(1 8.74228e-08 8.74228e-08 -1 175 15)" fill="white" fill-opacity="0.7"/>
<circle cx="2.5" cy="2.5" r="2.5" transform="matrix(1 8.74228e-08 8.74228e-08 -1 227 15)" fill="white" fill-opacity="0.7"/>
<circle cx="2.5" cy="2.5" r="2.5" transform="matrix(1 8.74228e-08 8.74228e-08 -1 128 5)" fill="white" fill-opacity="0.7"/>
<circle cx="2.5" cy="2.5" r="2.5" transform="matrix(1 8.74228e-08 8.74228e-08 -1 180 5)" fill="white" fill-opacity="0.7"/>
<circle cx="2.5" cy="2.5" r="2.5" transform="matrix(1 8.74228e-08 8.74228e-08 -1 233 5)" fill="white" fill-opacity="0.7"/>
<circle cx="2.5" cy="2.5" r="2.5" transform="matrix(1 8.74228e-08 8.74228e-08 -1 138 5)" fill="white" fill-opacity="0.7"/>
<circle cx="2.5" cy="2.5" r="2.5" transform="matrix(1 8.74228e-08 8.74228e-08 -1 191 5)" fill="white" fill-opacity="0.7"/>
<circle cx="2.5" cy="2.5" r="2.5" transform="matrix(1 8.74228e-08 8.74228e-08 -1 243 5)" fill="white" fill-opacity="0.7"/>
<circle cx="2.5" cy="2.5" r="2.5" transform="matrix(1 8.74228e-08 8.74228e-08 -1 149 5)" fill="white" fill-opacity="0.7"/>
<circle cx="2.5" cy="2.5" r="2.5" transform="matrix(1 8.74228e-08 8.74228e-08 -1 201 5)" fill="white" fill-opacity="0.7"/>
<circle cx="2.5" cy="2.5" r="2.5" transform="matrix(1 8.74228e-08 8.74228e-08 -1 159 5)" fill="white" fill-opacity="0.7"/>
<circle cx="2.5" cy="2.5" r="2.5" transform="matrix(1 8.74228e-08 8.74228e-08 -1 212 5)" fill="white" fill-opacity="0.7"/>
<circle cx="2.5" cy="2.5" r="2.5" transform="matrix(1 8.74228e-08 8.74228e-08 -1 170 5)" fill="white" fill-opacity="0.7"/>
<circle cx="2.5" cy="2.5" r="2.5" transform="matrix(1 8.74228e-08 8.74228e-08 -1 222 5)" fill="white" fill-opacity="0.7"/>
</g>
<defs>
<clipPath id="clip0_7027_2672">
<rect width="261" height="53" fill="white"/>
</clipPath>
</defs>
</svg>
