<svg width="111" height="287" viewBox="0 0 111 287" fill="none" xmlns="http://www.w3.org/2000/svg">
<ellipse cx="105.356" cy="6.30459" rx="5.48476" ry="5.49277" transform="rotate(90 105.356 6.30459)" fill="#EBF8B3"/>
<ellipse cx="105.356" cy="130.958" rx="5.48476" ry="5.49277" transform="rotate(90 105.356 130.958)" fill="#EBF8B3"/>
<ellipse cx="105.356" cy="255.612" rx="5.48476" ry="5.49277" transform="rotate(90 105.356 255.612)" fill="#EBF8B3"/>
<ellipse cx="105.356" cy="31.2355" rx="5.48476" ry="5.49277" transform="rotate(90 105.356 31.2355)" fill="#EBF8B3"/>
<ellipse cx="105.356" cy="155.889" rx="5.48476" ry="5.49277" transform="rotate(90 105.356 155.889)" fill="#EBF8B3"/>
<ellipse cx="105.356" cy="280.543" rx="5.48476" ry="5.49277" transform="rotate(90 105.356 280.543)" fill="#EBF8B3"/>
<ellipse cx="105.356" cy="56.1662" rx="5.48476" ry="5.49277" transform="rotate(90 105.356 56.1662)" fill="#EBF8B3"/>
<ellipse cx="105.356" cy="180.82" rx="5.48476" ry="5.49277" transform="rotate(90 105.356 180.82)" fill="#EBF8B3"/>
<ellipse cx="105.356" cy="81.0968" rx="5.48476" ry="5.49277" transform="rotate(90 105.356 81.0968)" fill="#EBF8B3"/>
<ellipse cx="105.356" cy="205.751" rx="5.48476" ry="5.49277" transform="rotate(90 105.356 205.751)" fill="#EBF8B3"/>
<ellipse cx="105.356" cy="106.028" rx="5.48476" ry="5.49277" transform="rotate(90 105.356 106.028)" fill="#EBF8B3"/>
<ellipse cx="105.356" cy="230.682" rx="5.48476" ry="5.49277" transform="rotate(90 105.356 230.682)" fill="#EBF8B3"/>
<ellipse cx="80.3891" cy="6.30459" rx="5.48476" ry="5.49277" transform="rotate(90 80.3891 6.30459)" fill="#EBF8B3"/>
<ellipse cx="80.3891" cy="130.958" rx="5.48476" ry="5.49277" transform="rotate(90 80.3891 130.958)" fill="#EBF8B3"/>
<ellipse cx="80.3891" cy="255.612" rx="5.48476" ry="5.49277" transform="rotate(90 80.3891 255.612)" fill="#EBF8B3"/>
<ellipse cx="80.3891" cy="31.2355" rx="5.48476" ry="5.49277" transform="rotate(90 80.3891 31.2355)" fill="#EBF8B3"/>
<ellipse cx="80.3891" cy="155.889" rx="5.48476" ry="5.49277" transform="rotate(90 80.3891 155.889)" fill="#EBF8B3"/>
<ellipse cx="80.3891" cy="280.543" rx="5.48476" ry="5.49277" transform="rotate(90 80.3891 280.543)" fill="#EBF8B3"/>
<ellipse cx="80.3891" cy="56.1662" rx="5.48476" ry="5.49277" transform="rotate(90 80.3891 56.1662)" fill="#EBF8B3"/>
<ellipse cx="80.3891" cy="180.82" rx="5.48476" ry="5.49277" transform="rotate(90 80.3891 180.82)" fill="#EBF8B3"/>
<ellipse cx="80.3891" cy="81.0968" rx="5.48476" ry="5.49277" transform="rotate(90 80.3891 81.0968)" fill="#EBF8B3"/>
<ellipse cx="80.3891" cy="205.751" rx="5.48476" ry="5.49277" transform="rotate(90 80.3891 205.751)" fill="#EBF8B3"/>
<ellipse cx="80.3891" cy="106.028" rx="5.48476" ry="5.49277" transform="rotate(90 80.3891 106.028)" fill="#EBF8B3"/>
<ellipse cx="80.3891" cy="230.682" rx="5.48476" ry="5.49277" transform="rotate(90 80.3891 230.682)" fill="#EBF8B3"/>
<ellipse cx="55.4218" cy="6.30459" rx="5.48476" ry="5.49277" transform="rotate(90 55.4218 6.30459)" fill="#EBF8B3"/>
<ellipse cx="55.4218" cy="130.958" rx="5.48476" ry="5.49277" transform="rotate(90 55.4218 130.958)" fill="#EBF8B3"/>
<ellipse cx="55.4218" cy="255.612" rx="5.48476" ry="5.49277" transform="rotate(90 55.4218 255.612)" fill="#EBF8B3"/>
<ellipse cx="55.4218" cy="31.2355" rx="5.48476" ry="5.49277" transform="rotate(90 55.4218 31.2355)" fill="#EBF8B3"/>
<ellipse cx="55.4218" cy="155.889" rx="5.48476" ry="5.49277" transform="rotate(90 55.4218 155.889)" fill="#EBF8B3"/>
<ellipse cx="55.4218" cy="280.543" rx="5.48476" ry="5.49277" transform="rotate(90 55.4218 280.543)" fill="#EBF8B3"/>
<ellipse cx="55.4218" cy="56.1662" rx="5.48476" ry="5.49277" transform="rotate(90 55.4218 56.1662)" fill="#EBF8B3"/>
<ellipse cx="55.4218" cy="180.82" rx="5.48476" ry="5.49277" transform="rotate(90 55.4218 180.82)" fill="#EBF8B3"/>
<ellipse cx="55.4218" cy="81.0968" rx="5.48476" ry="5.49277" transform="rotate(90 55.4218 81.0968)" fill="#EBF8B3"/>
<ellipse cx="55.4218" cy="205.751" rx="5.48476" ry="5.49277" transform="rotate(90 55.4218 205.751)" fill="#EBF8B3"/>
<ellipse cx="55.4218" cy="106.028" rx="5.48476" ry="5.49277" transform="rotate(90 55.4218 106.028)" fill="#EBF8B3"/>
<ellipse cx="55.4218" cy="230.682" rx="5.48476" ry="5.49277" transform="rotate(90 55.4218 230.682)" fill="#EBF8B3"/>
<ellipse cx="30.4545" cy="6.30459" rx="5.48476" ry="5.49277" transform="rotate(90 30.4545 6.30459)" fill="#EBF8B3"/>
<ellipse cx="30.4545" cy="130.958" rx="5.48476" ry="5.49277" transform="rotate(90 30.4545 130.958)" fill="#EBF8B3"/>
<ellipse cx="30.4545" cy="255.612" rx="5.48476" ry="5.49277" transform="rotate(90 30.4545 255.612)" fill="#EBF8B3"/>
<ellipse cx="30.4545" cy="31.2355" rx="5.48476" ry="5.49277" transform="rotate(90 30.4545 31.2355)" fill="#EBF8B3"/>
<ellipse cx="30.4545" cy="155.889" rx="5.48476" ry="5.49277" transform="rotate(90 30.4545 155.889)" fill="#EBF8B3"/>
<ellipse cx="30.4545" cy="280.543" rx="5.48476" ry="5.49277" transform="rotate(90 30.4545 280.543)" fill="#EBF8B3"/>
<ellipse cx="30.4545" cy="56.1662" rx="5.48476" ry="5.49277" transform="rotate(90 30.4545 56.1662)" fill="#EBF8B3"/>
<ellipse cx="30.4545" cy="180.82" rx="5.48476" ry="5.49277" transform="rotate(90 30.4545 180.82)" fill="#EBF8B3"/>
<ellipse cx="30.4545" cy="81.0968" rx="5.48476" ry="5.49277" transform="rotate(90 30.4545 81.0968)" fill="#EBF8B3"/>
<ellipse cx="30.4545" cy="205.751" rx="5.48476" ry="5.49277" transform="rotate(90 30.4545 205.751)" fill="#EBF8B3"/>
<ellipse cx="30.4545" cy="106.028" rx="5.48476" ry="5.49277" transform="rotate(90 30.4545 106.028)" fill="#EBF8B3"/>
<ellipse cx="30.4545" cy="230.682" rx="5.48476" ry="5.49277" transform="rotate(90 30.4545 230.682)" fill="#EBF8B3"/>
<ellipse cx="5.4877" cy="6.30459" rx="5.48476" ry="5.49277" transform="rotate(90 5.4877 6.30459)" fill="#EBF8B3"/>
<ellipse cx="5.4877" cy="130.958" rx="5.48476" ry="5.49277" transform="rotate(90 5.4877 130.958)" fill="#EBF8B3"/>
<ellipse cx="5.4877" cy="255.612" rx="5.48476" ry="5.49277" transform="rotate(90 5.4877 255.612)" fill="#EBF8B3"/>
<ellipse cx="5.4877" cy="31.2355" rx="5.48476" ry="5.49277" transform="rotate(90 5.4877 31.2355)" fill="#EBF8B3"/>
<ellipse cx="5.4877" cy="155.889" rx="5.48476" ry="5.49277" transform="rotate(90 5.4877 155.889)" fill="#EBF8B3"/>
<ellipse cx="5.4877" cy="280.543" rx="5.48476" ry="5.49277" transform="rotate(90 5.4877 280.543)" fill="#EBF8B3"/>
<ellipse cx="5.4877" cy="56.1662" rx="5.48476" ry="5.49277" transform="rotate(90 5.4877 56.1662)" fill="#EBF8B3"/>
<ellipse cx="5.4877" cy="180.82" rx="5.48476" ry="5.49277" transform="rotate(90 5.4877 180.82)" fill="#EBF8B3"/>
<ellipse cx="5.4877" cy="81.0968" rx="5.48476" ry="5.49277" transform="rotate(90 5.4877 81.0968)" fill="#EBF8B3"/>
<ellipse cx="5.4877" cy="205.751" rx="5.48476" ry="5.49277" transform="rotate(90 5.4877 205.751)" fill="#EBF8B3"/>
<ellipse cx="5.4877" cy="106.028" rx="5.48476" ry="5.49277" transform="rotate(90 5.4877 106.028)" fill="#EBF8B3"/>
<ellipse cx="5.4877" cy="230.682" rx="5.48476" ry="5.49277" transform="rotate(90 5.4877 230.682)" fill="#EBF8B3"/>
</svg>
