<svg width="252" height="98" viewBox="0 0 252 98" fill="none" xmlns="http://www.w3.org/2000/svg">
<circle cx="247" cy="93" r="5" transform="rotate(-180 247 93)" fill="#D8C4BE" fill-opacity="0.5"/>
<circle cx="137" cy="93" r="5" transform="rotate(-180 137 93)" fill="#D8C4BE" fill-opacity="0.5"/>
<circle cx="27" cy="93" r="5" transform="rotate(-180 27 93)" fill="#D8C4BE" fill-opacity="0.5"/>
<circle cx="225" cy="93" r="5" transform="rotate(-180 225 93)" fill="#D8C4BE" fill-opacity="0.5"/>
<circle cx="115" cy="93" r="5" transform="rotate(-180 115 93)" fill="#D8C4BE" fill-opacity="0.5"/>
<circle cx="5" cy="93" r="5" transform="rotate(-180 5 93)" fill="#D8C4BE" fill-opacity="0.5"/>
<circle cx="203" cy="93" r="5" transform="rotate(-180 203 93)" fill="#D8C4BE" fill-opacity="0.5"/>
<circle cx="93" cy="93" r="5" transform="rotate(-180 93 93)" fill="#D8C4BE" fill-opacity="0.5"/>
<circle cx="181" cy="93" r="5" transform="rotate(-180 181 93)" fill="#D8C4BE" fill-opacity="0.5"/>
<circle cx="71" cy="93" r="5" transform="rotate(-180 71 93)" fill="#D8C4BE" fill-opacity="0.5"/>
<circle cx="159" cy="93" r="5" transform="rotate(-180 159 93)" fill="#D8C4BE" fill-opacity="0.5"/>
<circle cx="49" cy="93" r="5" transform="rotate(-180 49 93)" fill="#D8C4BE" fill-opacity="0.5"/>
<circle cx="247" cy="71" r="5" transform="rotate(-180 247 71)" fill="#D8C4BE" fill-opacity="0.5"/>
<circle cx="137" cy="71" r="5" transform="rotate(-180 137 71)" fill="#D8C4BE" fill-opacity="0.5"/>
<circle cx="27" cy="71" r="5" transform="rotate(-180 27 71)" fill="#D8C4BE" fill-opacity="0.5"/>
<circle cx="225" cy="71" r="5" transform="rotate(-180 225 71)" fill="#D8C4BE" fill-opacity="0.5"/>
<circle cx="115" cy="71" r="5" transform="rotate(-180 115 71)" fill="#D8C4BE" fill-opacity="0.5"/>
<circle cx="5" cy="71" r="5" transform="rotate(-180 5 71)" fill="#D8C4BE" fill-opacity="0.5"/>
<circle cx="203" cy="71" r="5" transform="rotate(-180 203 71)" fill="#D8C4BE" fill-opacity="0.5"/>
<circle cx="93" cy="71" r="5" transform="rotate(-180 93 71)" fill="#D8C4BE" fill-opacity="0.5"/>
<circle cx="181" cy="71" r="5" transform="rotate(-180 181 71)" fill="#D8C4BE" fill-opacity="0.5"/>
<circle cx="71" cy="71" r="5" transform="rotate(-180 71 71)" fill="#D8C4BE" fill-opacity="0.5"/>
<circle cx="159" cy="71" r="5" transform="rotate(-180 159 71)" fill="#D8C4BE" fill-opacity="0.5"/>
<circle cx="49" cy="71" r="5" transform="rotate(-180 49 71)" fill="#D8C4BE" fill-opacity="0.5"/>
<circle cx="247" cy="49" r="5" transform="rotate(-180 247 49)" fill="#D8C4BE" fill-opacity="0.5"/>
<circle cx="137" cy="49" r="5" transform="rotate(-180 137 49)" fill="#D8C4BE" fill-opacity="0.5"/>
<circle cx="27" cy="49" r="5" transform="rotate(-180 27 49)" fill="#D8C4BE" fill-opacity="0.5"/>
<circle cx="225" cy="49" r="5" transform="rotate(-180 225 49)" fill="#D8C4BE" fill-opacity="0.5"/>
<circle cx="115" cy="49" r="5" transform="rotate(-180 115 49)" fill="#D8C4BE" fill-opacity="0.5"/>
<circle cx="5" cy="49" r="5" transform="rotate(-180 5 49)" fill="#D8C4BE" fill-opacity="0.5"/>
<circle cx="203" cy="49" r="5" transform="rotate(-180 203 49)" fill="#D8C4BE" fill-opacity="0.5"/>
<circle cx="93" cy="49" r="5" transform="rotate(-180 93 49)" fill="#D8C4BE" fill-opacity="0.5"/>
<circle cx="181" cy="49" r="5" transform="rotate(-180 181 49)" fill="#D8C4BE" fill-opacity="0.5"/>
<circle cx="71" cy="49" r="5" transform="rotate(-180 71 49)" fill="#D8C4BE" fill-opacity="0.5"/>
<circle cx="159" cy="49" r="5" transform="rotate(-180 159 49)" fill="#D8C4BE" fill-opacity="0.5"/>
<circle cx="49" cy="49" r="5" transform="rotate(-180 49 49)" fill="#D8C4BE" fill-opacity="0.5"/>
<circle cx="247" cy="27" r="5" transform="rotate(-180 247 27)" fill="#D8C4BE" fill-opacity="0.5"/>
<circle cx="137" cy="27" r="5" transform="rotate(-180 137 27)" fill="#D8C4BE" fill-opacity="0.5"/>
<circle cx="27" cy="27" r="5" transform="rotate(-180 27 27)" fill="#D8C4BE" fill-opacity="0.5"/>
<circle cx="225" cy="27" r="5" transform="rotate(-180 225 27)" fill="#D8C4BE" fill-opacity="0.5"/>
<circle cx="115" cy="27" r="5" transform="rotate(-180 115 27)" fill="#D8C4BE" fill-opacity="0.5"/>
<circle cx="5" cy="27" r="5" transform="rotate(-180 5 27)" fill="#D8C4BE" fill-opacity="0.5"/>
<circle cx="203" cy="27" r="5" transform="rotate(-180 203 27)" fill="#D8C4BE" fill-opacity="0.5"/>
<circle cx="93" cy="27" r="5" transform="rotate(-180 93 27)" fill="#D8C4BE" fill-opacity="0.5"/>
<circle cx="181" cy="27" r="5" transform="rotate(-180 181 27)" fill="#D8C4BE" fill-opacity="0.5"/>
<circle cx="71" cy="27" r="5" transform="rotate(-180 71 27)" fill="#D8C4BE" fill-opacity="0.5"/>
<circle cx="159" cy="27" r="5" transform="rotate(-180 159 27)" fill="#D8C4BE" fill-opacity="0.5"/>
<circle cx="49" cy="27" r="5" transform="rotate(-180 49 27)" fill="#D8C4BE" fill-opacity="0.5"/>
<circle cx="247" cy="5" r="5" transform="rotate(-180 247 5)" fill="#D8C4BE" fill-opacity="0.5"/>
<circle cx="137" cy="5" r="5" transform="rotate(-180 137 5)" fill="#D8C4BE" fill-opacity="0.5"/>
<circle cx="27" cy="5" r="5" transform="rotate(-180 27 5)" fill="#D8C4BE" fill-opacity="0.5"/>
<circle cx="225" cy="5" r="5" transform="rotate(-180 225 5)" fill="#D8C4BE" fill-opacity="0.5"/>
<circle cx="115" cy="5" r="5" transform="rotate(-180 115 5)" fill="#D8C4BE" fill-opacity="0.5"/>
<circle cx="5" cy="5" r="5" transform="rotate(-180 5 5)" fill="#D8C4BE" fill-opacity="0.5"/>
<circle cx="203" cy="5" r="5" transform="rotate(-180 203 5)" fill="#D8C4BE" fill-opacity="0.5"/>
<circle cx="93" cy="5" r="5" transform="rotate(-180 93 5)" fill="#D8C4BE" fill-opacity="0.5"/>
<circle cx="181" cy="5" r="5" transform="rotate(-180 181 5)" fill="#D8C4BE" fill-opacity="0.5"/>
<circle cx="71" cy="5" r="5" transform="rotate(-180 71 5)" fill="#D8C4BE" fill-opacity="0.5"/>
<circle cx="159" cy="5" r="5" transform="rotate(-180 159 5)" fill="#D8C4BE" fill-opacity="0.5"/>
<circle cx="49" cy="5" r="5" transform="rotate(-180 49 5)" fill="#D8C4BE" fill-opacity="0.5"/>
</svg>
