<svg width="98" height="252" viewBox="0 0 98 252" fill="none" xmlns="http://www.w3.org/2000/svg">
<g id="&#208;&#183;&#208;&#181;&#208;&#187;&#208;&#181;&#208;&#189;&#209;&#139;&#208;&#185; &#209;&#130;&#208;&#190;&#209;&#135;&#208;&#186;&#208;&#184;">
<g id="Group 7">
<ellipse id="Ellipse 34" cx="93" cy="5" rx="5" ry="5" transform="rotate(90 93 5)" fill="#EBF8B3"/>
<ellipse id="Ellipse 39" cx="93" cy="115" rx="5" ry="5" transform="rotate(90 93 115)" fill="#EBF8B3"/>
<ellipse id="Ellipse 44" cx="93" cy="225" rx="5" ry="5" transform="rotate(90 93 225)" fill="#EBF8B3"/>
<ellipse id="Ellipse 35" cx="93" cy="27" rx="5" ry="5" transform="rotate(90 93 27)" fill="#EBF8B3"/>
<ellipse id="Ellipse 40" cx="93" cy="137" rx="5" ry="5" transform="rotate(90 93 137)" fill="#EBF8B3"/>
<ellipse id="Ellipse 45" cx="93" cy="247" rx="5" ry="5" transform="rotate(90 93 247)" fill="#EBF8B3"/>
<ellipse id="Ellipse 36" cx="93" cy="49" rx="5" ry="5" transform="rotate(90 93 49)" fill="#EBF8B3"/>
<ellipse id="Ellipse 41" cx="93" cy="159" rx="5" ry="5" transform="rotate(90 93 159)" fill="#EBF8B3"/>
<ellipse id="Ellipse 37" cx="93" cy="71" rx="5" ry="5" transform="rotate(90 93 71)" fill="#EBF8B3"/>
<ellipse id="Ellipse 42" cx="93" cy="181" rx="5" ry="5" transform="rotate(90 93 181)" fill="#EBF8B3"/>
<ellipse id="Ellipse 38" cx="93" cy="93" rx="5" ry="5" transform="rotate(90 93 93)" fill="#EBF8B3"/>
<ellipse id="Ellipse 43" cx="93" cy="203" rx="5" ry="5" transform="rotate(90 93 203)" fill="#EBF8B3"/>
</g>
<g id="Group 8">
<ellipse id="Ellipse 34_2" cx="71" cy="5" rx="5" ry="5" transform="rotate(90 71 5)" fill="#EBF8B3"/>
<ellipse id="Ellipse 39_2" cx="71" cy="115" rx="5" ry="5" transform="rotate(90 71 115)" fill="#EBF8B3"/>
<ellipse id="Ellipse 44_2" cx="71" cy="225" rx="5" ry="5" transform="rotate(90 71 225)" fill="#EBF8B3"/>
<ellipse id="Ellipse 35_2" cx="71" cy="27" rx="5" ry="5" transform="rotate(90 71 27)" fill="#EBF8B3"/>
<ellipse id="Ellipse 40_2" cx="71" cy="137" rx="5" ry="5" transform="rotate(90 71 137)" fill="#EBF8B3"/>
<ellipse id="Ellipse 45_2" cx="71" cy="247" rx="5" ry="5" transform="rotate(90 71 247)" fill="#EBF8B3"/>
<ellipse id="Ellipse 36_2" cx="71" cy="49" rx="5" ry="5" transform="rotate(90 71 49)" fill="#EBF8B3"/>
<ellipse id="Ellipse 41_2" cx="71" cy="159" rx="5" ry="5" transform="rotate(90 71 159)" fill="#EBF8B3"/>
<ellipse id="Ellipse 37_2" cx="71" cy="71" rx="5" ry="5" transform="rotate(90 71 71)" fill="#EBF8B3"/>
<ellipse id="Ellipse 42_2" cx="71" cy="181" rx="5" ry="5" transform="rotate(90 71 181)" fill="#EBF8B3"/>
<ellipse id="Ellipse 38_2" cx="71" cy="93" rx="5" ry="5" transform="rotate(90 71 93)" fill="#EBF8B3"/>
<ellipse id="Ellipse 43_2" cx="71" cy="203" rx="5" ry="5" transform="rotate(90 71 203)" fill="#EBF8B3"/>
</g>
<g id="Group 9">
<ellipse id="Ellipse 34_3" cx="49" cy="5" rx="5" ry="5" transform="rotate(90 49 5)" fill="#EBF8B3"/>
<ellipse id="Ellipse 39_3" cx="49" cy="115" rx="5" ry="5" transform="rotate(90 49 115)" fill="#EBF8B3"/>
<ellipse id="Ellipse 44_3" cx="49" cy="225" rx="5" ry="5" transform="rotate(90 49 225)" fill="#EBF8B3"/>
<ellipse id="Ellipse 35_3" cx="49" cy="27" rx="5" ry="5" transform="rotate(90 49 27)" fill="#EBF8B3"/>
<ellipse id="Ellipse 40_3" cx="49" cy="137" rx="5" ry="5" transform="rotate(90 49 137)" fill="#EBF8B3"/>
<ellipse id="Ellipse 45_3" cx="49" cy="247" rx="5" ry="5" transform="rotate(90 49 247)" fill="#EBF8B3"/>
<ellipse id="Ellipse 36_3" cx="49" cy="49" rx="5" ry="5" transform="rotate(90 49 49)" fill="#EBF8B3"/>
<ellipse id="Ellipse 41_3" cx="49" cy="159" rx="5" ry="5" transform="rotate(90 49 159)" fill="#EBF8B3"/>
<ellipse id="Ellipse 37_3" cx="49" cy="71" rx="5" ry="5" transform="rotate(90 49 71)" fill="#EBF8B3"/>
<ellipse id="Ellipse 42_3" cx="49" cy="181" rx="5" ry="5" transform="rotate(90 49 181)" fill="#EBF8B3"/>
<ellipse id="Ellipse 38_3" cx="49" cy="93" rx="5" ry="5" transform="rotate(90 49 93)" fill="#EBF8B3"/>
<ellipse id="Ellipse 43_3" cx="49" cy="203" rx="5" ry="5" transform="rotate(90 49 203)" fill="#EBF8B3"/>
</g>
<g id="Group 10">
<ellipse id="Ellipse 34_4" cx="27" cy="5" rx="5" ry="5" transform="rotate(90 27 5)" fill="#EBF8B3"/>
<ellipse id="Ellipse 39_4" cx="27" cy="115" rx="5" ry="5" transform="rotate(90 27 115)" fill="#EBF8B3"/>
<ellipse id="Ellipse 44_4" cx="27" cy="225" rx="5" ry="5" transform="rotate(90 27 225)" fill="#EBF8B3"/>
<ellipse id="Ellipse 35_4" cx="27" cy="27" rx="5" ry="5" transform="rotate(90 27 27)" fill="#EBF8B3"/>
<ellipse id="Ellipse 40_4" cx="27" cy="137" rx="5" ry="5" transform="rotate(90 27 137)" fill="#EBF8B3"/>
<ellipse id="Ellipse 45_4" cx="27" cy="247" rx="5" ry="5" transform="rotate(90 27 247)" fill="#EBF8B3"/>
<ellipse id="Ellipse 36_4" cx="27" cy="49" rx="5" ry="5" transform="rotate(90 27 49)" fill="#EBF8B3"/>
<ellipse id="Ellipse 41_4" cx="27" cy="159" rx="5" ry="5" transform="rotate(90 27 159)" fill="#EBF8B3"/>
<ellipse id="Ellipse 37_4" cx="27" cy="71" rx="5" ry="5" transform="rotate(90 27 71)" fill="#EBF8B3"/>
<ellipse id="Ellipse 42_4" cx="27" cy="181" rx="5" ry="5" transform="rotate(90 27 181)" fill="#EBF8B3"/>
<ellipse id="Ellipse 38_4" cx="27" cy="93" rx="5" ry="5" transform="rotate(90 27 93)" fill="#EBF8B3"/>
<ellipse id="Ellipse 43_4" cx="27" cy="203" rx="5" ry="5" transform="rotate(90 27 203)" fill="#EBF8B3"/>
</g>
<g id="Group 11">
<ellipse id="Ellipse 34_5" cx="5" cy="5" rx="5" ry="5" transform="rotate(90 5 5)" fill="#EBF8B3"/>
<ellipse id="Ellipse 39_5" cx="5" cy="115" rx="5" ry="5" transform="rotate(90 5 115)" fill="#EBF8B3"/>
<ellipse id="Ellipse 44_5" cx="5" cy="225" rx="5" ry="5" transform="rotate(90 5 225)" fill="#EBF8B3"/>
<ellipse id="Ellipse 35_5" cx="5" cy="27" rx="5" ry="5" transform="rotate(90 5 27)" fill="#EBF8B3"/>
<ellipse id="Ellipse 40_5" cx="5" cy="137" rx="5" ry="5" transform="rotate(90 5 137)" fill="#EBF8B3"/>
<ellipse id="Ellipse 45_5" cx="5" cy="247" rx="5" ry="5" transform="rotate(90 5 247)" fill="#EBF8B3"/>
<ellipse id="Ellipse 36_5" cx="5" cy="49" rx="5" ry="5" transform="rotate(90 5 49)" fill="#EBF8B3"/>
<ellipse id="Ellipse 41_5" cx="5" cy="159" rx="5" ry="5" transform="rotate(90 5 159)" fill="#EBF8B3"/>
<ellipse id="Ellipse 37_5" cx="5" cy="71" rx="5" ry="5" transform="rotate(90 5 71)" fill="#EBF8B3"/>
<ellipse id="Ellipse 42_5" cx="5" cy="181" rx="5" ry="5" transform="rotate(90 5 181)" fill="#EBF8B3"/>
<ellipse id="Ellipse 38_5" cx="5" cy="93" rx="5" ry="5" transform="rotate(90 5 93)" fill="#EBF8B3"/>
<ellipse id="Ellipse 43_5" cx="5" cy="203" rx="5" ry="5" transform="rotate(90 5 203)" fill="#EBF8B3"/>
</g>
</g>
</svg>
