<svg width="93" height="237" viewBox="0 0 93 237" fill="none" xmlns="http://www.w3.org/2000/svg">
<g clip-path="url(#clip0_5044_869)">
<circle cx="87.5" cy="8.5" r="4.5" transform="rotate(90 87.5 8.5)" fill="#EBF8B3"/>
<circle cx="87.5" cy="107.5" r="4.5" transform="rotate(90 87.5 107.5)" fill="#EBF8B3"/>
<circle cx="87.5" cy="206.5" r="4.5" transform="rotate(90 87.5 206.5)" fill="#EBF8B3"/>
<circle cx="87.5" cy="28.5" r="4.5" transform="rotate(90 87.5 28.5)" fill="#EBF8B3"/>
<circle cx="87.5" cy="127.5" r="4.5" transform="rotate(90 87.5 127.5)" fill="#EBF8B3"/>
<circle cx="87.5" cy="226.5" r="4.5" transform="rotate(90 87.5 226.5)" fill="#EBF8B3"/>
<circle cx="87.5" cy="48.5" r="4.5" transform="rotate(90 87.5 48.5)" fill="#EBF8B3"/>
<circle cx="87.5" cy="147.5" r="4.5" transform="rotate(90 87.5 147.5)" fill="#EBF8B3"/>
<circle cx="87.5" cy="67.5" r="4.5" transform="rotate(90 87.5 67.5)" fill="#EBF8B3"/>
<circle cx="87.5" cy="167.5" r="4.5" transform="rotate(90 87.5 167.5)" fill="#EBF8B3"/>
<circle cx="87.5" cy="87.5" r="4.5" transform="rotate(90 87.5 87.5)" fill="#EBF8B3"/>
<circle cx="87.5" cy="186.5" r="4.5" transform="rotate(90 87.5 186.5)" fill="#EBF8B3"/>
<circle cx="67.5" cy="8.5" r="4.5" transform="rotate(90 67.5 8.5)" fill="#EBF8B3"/>
<circle cx="67.5" cy="107.5" r="4.5" transform="rotate(90 67.5 107.5)" fill="#EBF8B3"/>
<circle cx="67.5" cy="206.5" r="4.5" transform="rotate(90 67.5 206.5)" fill="#EBF8B3"/>
<circle cx="67.5" cy="28.5" r="4.5" transform="rotate(90 67.5 28.5)" fill="#EBF8B3"/>
<circle cx="67.5" cy="127.5" r="4.5" transform="rotate(90 67.5 127.5)" fill="#EBF8B3"/>
<circle cx="67.5" cy="226.5" r="4.5" transform="rotate(90 67.5 226.5)" fill="#EBF8B3"/>
<circle cx="67.5" cy="48.5" r="4.5" transform="rotate(90 67.5 48.5)" fill="#EBF8B3"/>
<circle cx="67.5" cy="147.5" r="4.5" transform="rotate(90 67.5 147.5)" fill="#EBF8B3"/>
<circle cx="67.5" cy="67.5" r="4.5" transform="rotate(90 67.5 67.5)" fill="#EBF8B3"/>
<circle cx="67.5" cy="167.5" r="4.5" transform="rotate(90 67.5 167.5)" fill="#EBF8B3"/>
<circle cx="67.5" cy="87.5" r="4.5" transform="rotate(90 67.5 87.5)" fill="#EBF8B3"/>
<circle cx="67.5" cy="186.5" r="4.5" transform="rotate(90 67.5 186.5)" fill="#EBF8B3"/>
<circle cx="47.5" cy="8.5" r="4.5" transform="rotate(90 47.5 8.5)" fill="#EBF8B3"/>
<circle cx="47.5" cy="107.5" r="4.5" transform="rotate(90 47.5 107.5)" fill="#EBF8B3"/>
<circle cx="47.5" cy="206.5" r="4.5" transform="rotate(90 47.5 206.5)" fill="#EBF8B3"/>
<circle cx="47.5" cy="28.5" r="4.5" transform="rotate(90 47.5 28.5)" fill="#EBF8B3"/>
<circle cx="47.5" cy="127.5" r="4.5" transform="rotate(90 47.5 127.5)" fill="#EBF8B3"/>
<circle cx="47.5" cy="226.5" r="4.5" transform="rotate(90 47.5 226.5)" fill="#EBF8B3"/>
<circle cx="47.5" cy="48.5" r="4.5" transform="rotate(90 47.5 48.5)" fill="#EBF8B3"/>
<circle cx="47.5" cy="147.5" r="4.5" transform="rotate(90 47.5 147.5)" fill="#EBF8B3"/>
<circle cx="47.5" cy="67.5" r="4.5" transform="rotate(90 47.5 67.5)" fill="#EBF8B3"/>
<circle cx="47.5" cy="167.5" r="4.5" transform="rotate(90 47.5 167.5)" fill="#EBF8B3"/>
<circle cx="47.5" cy="87.5" r="4.5" transform="rotate(90 47.5 87.5)" fill="#EBF8B3"/>
<circle cx="47.5" cy="186.5" r="4.5" transform="rotate(90 47.5 186.5)" fill="#EBF8B3"/>
<circle cx="27.5" cy="8.5" r="4.5" transform="rotate(90 27.5 8.5)" fill="#EBF8B3"/>
<circle cx="27.5" cy="107.5" r="4.5" transform="rotate(90 27.5 107.5)" fill="#EBF8B3"/>
<circle cx="27.5" cy="206.5" r="4.5" transform="rotate(90 27.5 206.5)" fill="#EBF8B3"/>
<circle cx="27.5" cy="28.5" r="4.5" transform="rotate(90 27.5 28.5)" fill="#EBF8B3"/>
<circle cx="27.5" cy="127.5" r="4.5" transform="rotate(90 27.5 127.5)" fill="#EBF8B3"/>
<circle cx="27.5" cy="226.5" r="4.5" transform="rotate(90 27.5 226.5)" fill="#EBF8B3"/>
<circle cx="27.5" cy="48.5" r="4.5" transform="rotate(90 27.5 48.5)" fill="#EBF8B3"/>
<circle cx="27.5" cy="147.5" r="4.5" transform="rotate(90 27.5 147.5)" fill="#EBF8B3"/>
<circle cx="27.5" cy="67.5" r="4.5" transform="rotate(90 27.5 67.5)" fill="#EBF8B3"/>
<circle cx="27.5" cy="167.5" r="4.5" transform="rotate(90 27.5 167.5)" fill="#EBF8B3"/>
<circle cx="27.5" cy="87.5" r="4.5" transform="rotate(90 27.5 87.5)" fill="#EBF8B3"/>
<circle cx="27.5" cy="186.5" r="4.5" transform="rotate(90 27.5 186.5)" fill="#EBF8B3"/>
<circle cx="7.5" cy="8.5" r="4.5" transform="rotate(90 7.5 8.5)" fill="#EBF8B3"/>
<circle cx="7.5" cy="107.5" r="4.5" transform="rotate(90 7.5 107.5)" fill="#EBF8B3"/>
<circle cx="7.5" cy="206.5" r="4.5" transform="rotate(90 7.5 206.5)" fill="#EBF8B3"/>
<circle cx="7.5" cy="28.5" r="4.5" transform="rotate(90 7.5 28.5)" fill="#EBF8B3"/>
<circle cx="7.5" cy="127.5" r="4.5" transform="rotate(90 7.5 127.5)" fill="#EBF8B3"/>
<circle cx="7.5" cy="226.5" r="4.5" transform="rotate(90 7.5 226.5)" fill="#EBF8B3"/>
<circle cx="7.5" cy="48.5" r="4.5" transform="rotate(90 7.5 48.5)" fill="#EBF8B3"/>
<circle cx="7.5" cy="147.5" r="4.5" transform="rotate(90 7.5 147.5)" fill="#EBF8B3"/>
<circle cx="7.5" cy="67.5" r="4.5" transform="rotate(90 7.5 67.5)" fill="#EBF8B3"/>
<circle cx="7.5" cy="167.5" r="4.5" transform="rotate(90 7.5 167.5)" fill="#EBF8B3"/>
<circle cx="7.5" cy="87.5" r="4.5" transform="rotate(90 7.5 87.5)" fill="#EBF8B3"/>
<circle cx="7.5" cy="186.5" r="4.5" transform="rotate(90 7.5 186.5)" fill="#EBF8B3"/>
</g>
<defs>
<clipPath id="clip0_5044_869">
<rect width="237" height="93" fill="white" transform="translate(93) rotate(90)"/>
</clipPath>
</defs>
</svg>
