<svg width="237" height="93" viewBox="0 0 237 93" fill="none" xmlns="http://www.w3.org/2000/svg">
<circle cx="8.5" cy="5.5" r="4.5" fill="#EBF8B3"/>
<circle cx="107.5" cy="5.5" r="4.5" fill="#EBF8B3"/>
<circle cx="206.5" cy="5.5" r="4.5" fill="#EBF8B3"/>
<circle cx="28.5" cy="5.5" r="4.5" fill="#EBF8B3"/>
<circle cx="127.5" cy="5.5" r="4.5" fill="#EBF8B3"/>
<circle cx="226.5" cy="5.5" r="4.5" fill="#EBF8B3"/>
<circle cx="48.5" cy="5.5" r="4.5" fill="#EBF8B3"/>
<circle cx="147.5" cy="5.5" r="4.5" fill="#EBF8B3"/>
<circle cx="67.5" cy="5.5" r="4.5" fill="#EBF8B3"/>
<circle cx="167.5" cy="5.5" r="4.5" fill="#EBF8B3"/>
<circle cx="87.5" cy="5.5" r="4.5" fill="#EBF8B3"/>
<circle cx="186.5" cy="5.5" r="4.5" fill="#EBF8B3"/>
<circle cx="8.5" cy="25.5" r="4.5" fill="#EBF8B3"/>
<circle cx="107.5" cy="25.5" r="4.5" fill="#EBF8B3"/>
<circle cx="206.5" cy="25.5" r="4.5" fill="#EBF8B3"/>
<circle cx="28.5" cy="25.5" r="4.5" fill="#EBF8B3"/>
<circle cx="127.5" cy="25.5" r="4.5" fill="#EBF8B3"/>
<circle cx="226.5" cy="25.5" r="4.5" fill="#EBF8B3"/>
<circle cx="48.5" cy="25.5" r="4.5" fill="#EBF8B3"/>
<circle cx="147.5" cy="25.5" r="4.5" fill="#EBF8B3"/>
<circle cx="67.5" cy="25.5" r="4.5" fill="#EBF8B3"/>
<circle cx="167.5" cy="25.5" r="4.5" fill="#EBF8B3"/>
<circle cx="87.5" cy="25.5" r="4.5" fill="#EBF8B3"/>
<circle cx="186.5" cy="25.5" r="4.5" fill="#EBF8B3"/>
<circle cx="8.5" cy="45.5" r="4.5" fill="#EBF8B3"/>
<circle cx="107.5" cy="45.5" r="4.5" fill="#EBF8B3"/>
<circle cx="206.5" cy="45.5" r="4.5" fill="#EBF8B3"/>
<circle cx="28.5" cy="45.5" r="4.5" fill="#EBF8B3"/>
<circle cx="127.5" cy="45.5" r="4.5" fill="#EBF8B3"/>
<circle cx="226.5" cy="45.5" r="4.5" fill="#EBF8B3"/>
<circle cx="48.5" cy="45.5" r="4.5" fill="#EBF8B3"/>
<circle cx="147.5" cy="45.5" r="4.5" fill="#EBF8B3"/>
<circle cx="67.5" cy="45.5" r="4.5" fill="#EBF8B3"/>
<circle cx="167.5" cy="45.5" r="4.5" fill="#EBF8B3"/>
<circle cx="87.5" cy="45.5" r="4.5" fill="#EBF8B3"/>
<circle cx="186.5" cy="45.5" r="4.5" fill="#EBF8B3"/>
<circle cx="8.5" cy="65.5" r="4.5" fill="#EBF8B3"/>
<circle cx="107.5" cy="65.5" r="4.5" fill="#EBF8B3"/>
<circle cx="206.5" cy="65.5" r="4.5" fill="#EBF8B3"/>
<circle cx="28.5" cy="65.5" r="4.5" fill="#EBF8B3"/>
<circle cx="127.5" cy="65.5" r="4.5" fill="#EBF8B3"/>
<circle cx="226.5" cy="65.5" r="4.5" fill="#EBF8B3"/>
<circle cx="48.5" cy="65.5" r="4.5" fill="#EBF8B3"/>
<circle cx="147.5" cy="65.5" r="4.5" fill="#EBF8B3"/>
<circle cx="67.5" cy="65.5" r="4.5" fill="#EBF8B3"/>
<circle cx="167.5" cy="65.5" r="4.5" fill="#EBF8B3"/>
<circle cx="87.5" cy="65.5" r="4.5" fill="#EBF8B3"/>
<circle cx="186.5" cy="65.5" r="4.5" fill="#EBF8B3"/>
<circle cx="8.5" cy="85.5" r="4.5" fill="#EBF8B3"/>
<circle cx="107.5" cy="85.5" r="4.5" fill="#EBF8B3"/>
<circle cx="206.5" cy="85.5" r="4.5" fill="#EBF8B3"/>
<circle cx="28.5" cy="85.5" r="4.5" fill="#EBF8B3"/>
<circle cx="127.5" cy="85.5" r="4.5" fill="#EBF8B3"/>
<circle cx="226.5" cy="85.5" r="4.5" fill="#EBF8B3"/>
<circle cx="48.5" cy="85.5" r="4.5" fill="#EBF8B3"/>
<circle cx="147.5" cy="85.5" r="4.5" fill="#EBF8B3"/>
<circle cx="67.5" cy="85.5" r="4.5" fill="#EBF8B3"/>
<circle cx="167.5" cy="85.5" r="4.5" fill="#EBF8B3"/>
<circle cx="87.5" cy="85.5" r="4.5" fill="#EBF8B3"/>
<circle cx="186.5" cy="85.5" r="4.5" fill="#EBF8B3"/>
</svg>
