<svg width="26" height="20" viewBox="0 0 26 20" fill="none" xmlns="http://www.w3.org/2000/svg">
<g id="svg metro">
<path id="Layer 1" fill-rule="evenodd" clip-rule="evenodd" d="M10.8442 0.157928C10.2494 0.259617 9.62898 0.396558 9.46535 0.462338C9.30173 0.528118 9.16795 0.548653 9.16795 0.507802C9.16795 0.46706 9.10955 0.492977 9.03817 0.565455C8.96679 0.637934 8.84242 0.697235 8.76185 0.697235C8.62785 0.697235 8.2515 0.851197 7.22214 1.32692C7.01439 1.42301 6.50339 1.7216 6.08659 1.99054C3.52358 3.64448 1.57777 6.16322 0.638181 9.04326C0.180065 10.4474 0.00789259 11.5724 0.000322206 13.2094C-0.00508521 14.4017 0.0551535 14.955 0.365107 16.5593C0.51792 17.3505 1.5157 19.6462 1.81029 19.8844C1.93888 19.9884 4.47712 20.013 13.112 19.9942L24.248 19.97L24.6173 19.2562C25.6504 17.2589 26.0433 15.4954 25.9963 13.0669C25.9785 12.1525 25.9385 11.3055 25.9073 11.1847C25.8761 11.0639 25.8159 10.7222 25.7734 10.4255C25.697 9.89258 25.1548 8.20635 24.9227 7.78037C24.8569 7.65957 24.7992 7.53603 24.7943 7.50583C24.7895 7.47563 24.6788 7.24381 24.5481 6.99057C23.5741 5.10196 21.9597 3.33864 20.0369 2.06291C19.0368 1.3994 18.1029 0.943662 16.9232 0.543163C15.3603 0.0127508 12.6853 -0.156805 10.8442 0.157928ZM14.9539 1.9364C15.1918 1.99032 15.4838 2.04808 15.6028 2.06455C16.5495 2.19578 18.7993 3.27747 19.9287 4.14458C21.5489 5.38836 23.3435 8.02405 23.7875 9.81197C24.3198 11.9549 24.4126 14.653 23.9926 15.7747C23.9427 15.9078 23.8999 16.0545 23.8973 16.1008C23.8844 16.3271 23.7338 16.9077 23.6625 17.0049C23.6183 17.0653 23.4957 17.3494 23.39 17.6364L23.1978 18.158H13.0494H2.90086L2.72858 17.8196C2.56149 17.4916 2.16534 16.333 2.08088 15.9254C2.05795 15.815 2.01372 15.642 1.98246 15.5411C1.70506 14.6445 1.73729 11.5276 2.032 10.7404C2.0891 10.5879 2.13063 10.4279 2.12425 10.3847C2.11787 10.3415 2.12457 10.269 2.13906 10.2238C2.15345 10.1785 2.17345 10.1043 2.18351 10.0591C2.23532 9.82372 2.50039 9.05534 2.63427 8.75214C2.71841 8.56182 2.7872 8.35175 2.7872 8.28542C2.7872 8.21898 2.83586 8.16473 2.89534 8.16473C2.95483 8.16473 3.00349 8.11597 3.00349 8.05634C3.00349 7.57985 4.88008 5.13732 5.81048 4.40276C7.58574 3.00118 9.53706 2.12133 11.2768 1.93794C11.5742 1.90653 11.8419 1.85755 11.8717 1.82889C11.9613 1.74268 14.4891 1.83087 14.9539 1.9364ZM9.31611 3.57409C9.26766 3.65282 9.21834 3.78274 9.20634 3.86301C9.19444 3.94318 9.1129 4.16556 9.0253 4.35719C8.77342 4.90758 8.17925 6.44347 8.13794 6.65069C8.11728 6.75414 8.02882 7.00123 7.94144 7.19977C7.77175 7.5849 6.93176 9.75706 6.08204 12.0083C5.79707 12.7633 5.48139 13.5787 5.38059 13.8203C5.2798 14.0619 5.06296 14.6403 4.89879 15.1055L4.60041 15.9515L3.99121 15.9841L3.38201 16.0166L3.34978 16.5204C3.32837 16.8549 3.36903 17.0676 3.47091 17.1534C3.58295 17.2478 4.51162 17.2749 6.90981 17.2537L10.1954 17.2246V16.6206V16.0166L9.68165 15.9831C9.39917 15.9647 9.16795 15.9236 9.16795 15.8916C9.16795 15.6756 10.3023 12.4678 10.3648 12.5071C10.408 12.5341 10.5896 12.8406 10.7684 13.1883C11.4759 14.5633 12.9236 17.1047 13.0167 17.1353C13.071 17.1531 13.255 16.9086 13.4256 16.5921C13.5963 16.2755 13.9071 15.6977 14.1164 15.3078C14.3258 14.9181 14.6971 14.251 14.9417 13.8253C15.1863 13.3998 15.4556 12.9156 15.5399 12.7496C15.6243 12.5835 15.742 12.4476 15.8013 12.4476C15.8606 12.4476 15.8806 12.4765 15.8457 12.5121C15.8106 12.5476 16.0367 13.3383 16.3479 14.2692L16.9136 15.9617H16.4151C15.8146 15.9617 15.6568 16.0987 15.6568 16.6206C15.6568 16.838 15.7152 17.0752 15.7866 17.1477C15.9721 17.336 22.3712 17.336 22.5567 17.1477C22.7 17.0022 22.7299 16.3108 22.6016 16.106C22.5568 16.0344 22.2809 15.9602 21.9887 15.9412L21.4574 15.9068L21.1203 15.0282C20.9349 14.545 20.7418 14.0509 20.6911 13.9301C20.6404 13.8093 20.5879 13.661 20.5741 13.6006C20.5428 13.4621 19.582 10.9496 19.4192 10.5807C19.3527 10.4297 19.2818 10.2171 19.2618 10.1081C19.2417 9.99921 19.1533 9.76848 19.0651 9.59541C18.977 9.42234 18.8024 8.99263 18.6773 8.64034C18.5521 8.28816 18.381 7.84429 18.297 7.65397C18.2129 7.46366 18.1443 7.25293 18.1443 7.18572C18.1443 7.11851 18.0966 6.97773 18.0383 6.87285C17.8972 6.61929 17.1746 4.76032 17.1166 4.50214C17.0915 4.39024 17.0272 4.24199 16.9737 4.17269C16.9201 4.1034 16.8443 3.91078 16.8053 3.74463C16.6581 3.11901 16.5408 3.26913 15.4019 5.54155C14.9059 6.53132 14.1706 7.99671 13.7679 8.79804L13.036 10.255L12.8114 9.78638C12.6877 9.52864 12.5596 9.29309 12.5266 9.26289C12.4935 9.23269 12.0884 8.44201 11.6264 7.50583C10.2201 4.65676 9.61449 3.50227 9.50677 3.46581C9.45032 3.4467 9.36445 3.49546 9.31611 3.57409Z" fill="#0000FF"/>
<path id="Layer 2" fill-rule="evenodd" clip-rule="evenodd" d="M11.6629 0.0563811C11.5623 0.0941498 11.2365 0.153109 10.9388 0.187474C10.4808 0.240394 10.1739 0.299683 9.2065 0.522233C9.14694 0.535957 8.98853 0.60831 8.85459 0.682969C8.72065 0.757738 8.61097 0.791335 8.61097 0.757848C8.61097 0.724251 8.41802 0.796605 8.18219 0.918695C7.94636 1.04068 7.68432 1.14048 7.59987 1.14048C7.51552 1.14048 7.38623 1.21404 7.3126 1.30396C7.23897 1.39388 7.14131 1.44394 7.0955 1.41529C7.0497 1.38652 6.89692 1.45185 6.75594 1.56043C6.61486 1.66902 6.27465 1.88894 5.99984 2.04901C5.4186 2.38761 4.06165 3.51398 3.5404 4.0905C1.14323 6.74211 -0.0585512 9.89811 0.00219288 13.3824C0.0159442 14.1674 0.057848 14.9826 0.0953123 15.194C0.132885 15.4053 0.184425 15.7018 0.209979 15.8527C0.282742 16.2828 0.406396 16.758 0.538604 17.1153C1.21318 18.9397 1.55588 19.7013 1.78456 19.8844C1.91428 19.9884 4.45341 20.013 13.0865 19.9942L24.2212 19.97L24.6561 19.15C24.8952 18.699 25.107 18.2452 25.1267 18.1416C25.1463 18.0378 25.2128 17.8575 25.2745 17.7407C25.3361 17.624 25.3557 17.4973 25.3181 17.4591C25.2805 17.421 25.2985 17.3898 25.358 17.3898C25.4176 17.3898 25.4668 17.3281 25.4674 17.2526C25.468 17.1772 25.5472 16.7942 25.6434 16.4017C25.7396 16.0092 25.851 15.5398 25.891 15.3587C26.0069 14.8328 26.0426 11.852 25.9379 11.4462C25.8854 11.243 25.8117 10.8304 25.7742 10.5292C25.6953 9.89712 25.1342 8.15021 24.8873 7.76813C24.795 7.62529 24.7617 7.5077 24.8132 7.50682C24.8647 7.50583 24.8581 7.46883 24.7986 7.42447C24.739 7.38012 24.5933 7.14615 24.4748 6.90461C24.3563 6.66306 24.2308 6.44073 24.1959 6.41054C24.1611 6.38034 24.0388 6.18272 23.9242 5.97137C23.8096 5.76001 23.6907 5.56239 23.6599 5.53219C23.6292 5.502 23.4664 5.30437 23.2983 5.09302C23.0163 4.73861 21.6563 3.30878 21.2795 2.9705C20.4725 2.2462 18.7937 1.24961 17.8146 0.913644C17.4275 0.780795 17.05 0.623242 16.9755 0.563515C16.9011 0.503678 16.8401 0.482158 16.8401 0.515535C16.8401 0.548912 16.6817 0.527503 16.4882 0.467995C15.9965 0.31692 15.8079 0.276626 14.9472 0.138835C14.1051 0.00389998 11.9466 -0.0502279 11.6629 0.0563811ZM14.2414 1.82471C14.3913 1.82811 15.4457 2.02793 16.0822 2.17352C16.6539 2.30439 18.817 3.30109 18.8793 3.46249C18.8992 3.51387 18.9679 3.55592 19.0319 3.55592C19.4161 3.55592 21.2694 5.27791 21.9862 6.30074C22.2188 6.63287 22.4353 6.92931 22.467 6.9595C22.7177 7.19797 23.6275 9.12945 23.7742 9.73408C23.9464 10.4454 23.9686 10.5278 23.9872 10.5278C23.9968 10.5278 24.0233 10.6266 24.0461 10.7474C24.34 12.2969 24.2972 15.2639 23.9723 15.8796C23.9004 16.0158 23.8535 16.1404 23.8681 16.1565C23.9119 16.2048 23.7509 16.8873 23.6678 17.0056C23.6254 17.0659 23.5051 17.3503 23.4005 17.6374L23.2102 18.1595L13.0156 18.1315L2.821 18.1035L2.58831 17.6094C2.46033 17.3377 2.37728 17.0782 2.4037 17.033C2.43023 16.9878 2.41095 16.9507 2.36082 16.9507C2.31079 16.9507 2.25915 16.8198 2.24604 16.6598C2.23294 16.4998 2.17978 16.3146 2.1278 16.2481C2.04595 16.1434 1.98585 15.8606 1.82235 14.8097C1.72761 14.2 1.70433 12.2174 1.7864 11.7355C1.92164 10.941 2.07323 10.2291 2.11947 10.1709C2.13149 10.1559 2.14946 10.1064 2.15953 10.0612C2.2114 9.82587 2.47679 9.05764 2.61083 8.75451C2.69507 8.56423 2.76394 8.3542 2.76394 8.28789C2.76394 8.22146 2.81266 8.16722 2.87222 8.16722C2.93177 8.16722 2.9805 8.06841 2.9805 7.94764C2.9805 7.82687 3.02143 7.72805 3.07134 7.72805C3.12137 7.72805 3.2212 7.59696 3.2932 7.43666C3.81532 6.27483 5.69081 4.2631 6.88707 3.58194C8.35749 2.74455 9.32041 2.29868 9.90446 2.18461C10.0363 2.15892 10.2255 2.11302 10.325 2.08261C10.6635 1.97929 11.1543 1.89915 11.8041 1.84106C12.1609 1.80922 12.4776 1.75674 12.5079 1.72447C12.5383 1.69219 12.9042 1.70064 13.3211 1.74335C13.7379 1.78595 14.1521 1.82262 14.2414 1.82471ZM9.3007 3.57755C9.25219 3.65627 9.20282 3.78616 9.1908 3.86642C9.17889 3.94656 9.09725 4.1689 9.00954 4.36048C8.75736 4.91077 8.16248 6.44633 8.12112 6.65351C8.10044 6.75693 8.01186 7.00397 7.92437 7.20247C7.75449 7.58752 6.91349 9.75922 6.06275 12.01C5.77743 12.7648 5.46137 13.58 5.36045 13.8216C5.25954 14.0631 5.04244 14.6414 4.87807 15.1066L4.57933 15.9523L3.9694 15.9849L3.35947 16.0174L3.3272 16.5211C3.30576 16.8556 3.34648 17.0682 3.44847 17.154C3.56065 17.2484 4.49044 17.2754 6.89151 17.2542L10.181 17.2251V16.6213V16.0174L9.66668 15.9839C9.38386 15.9656 9.15236 15.9244 9.15236 15.8925C9.15236 15.6765 10.2881 12.4694 10.3507 12.5087C10.3939 12.5357 10.5757 12.8421 10.7548 13.1897C11.4631 14.5644 12.9125 17.1054 13.0058 17.1359C13.0601 17.1537 13.2443 16.9093 13.4152 16.5928C13.586 16.2763 13.8972 15.6986 14.1067 15.3088C14.3164 14.9192 14.6882 14.2522 14.933 13.8266C15.1779 13.4012 15.4476 12.9171 15.532 12.7511C15.6165 12.5851 15.7343 12.4491 15.7937 12.4491C15.8531 12.4491 15.8731 12.4781 15.8381 12.5137C15.803 12.5492 16.0293 13.3397 16.341 14.2704L16.9074 15.9625H16.4082C15.807 15.9625 15.6491 16.0995 15.6491 16.6213C15.6491 16.8387 15.7075 17.0758 15.779 17.1483C15.9647 17.3366 22.3715 17.3366 22.5572 17.1483C22.7007 17.0028 22.7306 16.3116 22.6021 16.1068C22.5573 16.0352 22.2811 15.9611 21.9885 15.9421L21.4566 15.9076L21.1191 15.0293C20.9335 14.5462 20.7401 14.0521 20.6894 13.9314C20.6386 13.8106 20.586 13.6624 20.5723 13.602C20.5409 13.4635 19.5789 10.9515 19.416 10.5827C19.3494 10.4317 19.2783 10.2191 19.2583 10.1102C19.2383 10.0013 19.1497 9.77064 19.0614 9.59761C18.9732 9.42457 18.7984 8.99495 18.6732 8.64274C18.5478 8.29063 18.3765 7.84685 18.2923 7.65658C18.2082 7.46631 18.1395 7.25561 18.1395 7.18842C18.1395 7.12123 18.0917 6.98047 18.0333 6.87562C17.8922 6.62211 17.1686 4.76353 17.1106 4.50541C17.0855 4.39353 17.0211 4.24531 16.9675 4.17603C16.9139 4.10675 16.838 3.91418 16.7989 3.74806C16.6515 3.12257 16.5341 3.27266 15.3938 5.5446C14.8972 6.53416 14.161 7.99924 13.7579 8.8004L13.025 10.257L12.8001 9.78854C12.6764 9.53085 12.5481 9.29535 12.515 9.26515C12.4819 9.23496 12.0763 8.44445 11.6137 7.50847C10.2058 4.66 9.59944 3.50575 9.4916 3.46929C9.43507 3.45019 9.3491 3.49894 9.3007 3.57755Z" fill="#000080"/>
<path id="Layer 3" fill-rule="evenodd" clip-rule="evenodd" d="M11.6704 0.0498797C11.5698 0.0876406 11.2441 0.145379 10.9466 0.178201C10.649 0.210912 10.1255 0.309376 9.7833 0.396973C9.4411 0.48446 9.16102 0.53671 9.16102 0.51311C9.16102 0.489399 9.03926 0.55098 8.89046 0.649883C8.74165 0.748786 8.6199 0.798292 8.6199 0.759982C8.6199 0.721563 8.42705 0.78995 8.19134 0.912014C7.95563 1.03397 7.69373 1.13375 7.60932 1.13375C7.52501 1.13375 7.3958 1.2073 7.3222 1.2972C7.24861 1.3871 7.151 1.43715 7.10522 1.4085C7.05944 1.37974 6.90674 1.44506 6.76583 1.55362C6.62482 1.66218 6.28998 1.87898 6.02148 2.03529C5.45168 2.36713 4.06979 3.51554 3.554 4.08569C2.85683 4.8566 1.90945 6.20085 1.47786 7.03181C1.08057 7.79657 0.429395 9.53489 0.335999 10.08C0.315328 10.2008 0.276368 10.3997 0.249312 10.5221C-0.0269803 11.7745 -0.0816325 13.8614 0.125614 15.2392C0.161977 15.4807 0.206889 15.7771 0.225395 15.8978C0.244009 16.0186 0.271606 16.1174 0.286757 16.1174C0.301908 16.1174 0.330154 16.2162 0.34931 16.3369C0.420088 16.781 0.456667 16.8883 1.023 18.3128C1.23912 18.8561 1.45394 19.3172 1.50058 19.3372C1.54723 19.3574 1.58543 19.4602 1.58543 19.5657C1.58543 20.0187 1.60383 20.0194 13.1473 19.9887L24.2221 19.9593L24.6577 19.1376C24.8973 18.6855 25.1153 18.1931 25.142 18.0433C25.1689 17.8933 25.2362 17.7153 25.2917 17.6474C25.3471 17.5796 25.3605 17.4917 25.3214 17.452C25.2822 17.4122 25.2989 17.3797 25.3584 17.3797C25.4179 17.3797 25.467 17.318 25.4677 17.2425C25.4682 17.1671 25.5474 16.7842 25.6435 16.3918C25.7398 15.9994 25.8511 15.5301 25.891 15.349C26.0068 14.8232 26.0426 11.843 25.9379 11.4373C25.8854 11.2341 25.8122 10.8238 25.7749 10.5255C25.6812 9.77287 25.3006 8.60426 24.8881 7.80228C24.8028 7.63631 24.7721 7.49965 24.8201 7.49877C24.8681 7.49778 24.8587 7.46079 24.7992 7.41644C24.7397 7.37209 24.594 7.13817 24.4756 6.89668C24.3571 6.65518 24.2317 6.4329 24.1968 6.40271C24.1621 6.37253 24.0398 6.17505 23.9253 5.96396C23.8107 5.75276 23.6658 5.53048 23.6032 5.47C23.5407 5.4094 23.3144 5.13761 23.1003 4.86593C22.759 4.43267 22.0283 3.67427 21.3281 3.02662C21.1183 2.83255 19.9814 2.01619 19.4963 1.71114C18.9778 1.38523 18.4427 1.12244 17.9595 0.956252C17.6738 0.858007 17.3183 0.726722 17.1695 0.664482C17.0207 0.602243 16.8015 0.532978 16.6825 0.510585C16.5634 0.488191 16.1738 0.400266 15.8167 0.315194C15.4596 0.230122 14.9323 0.128914 14.645 0.0902751C13.9255 -0.00643238 11.8937 -0.0339847 11.6704 0.0498797ZM14.4639 1.84374C14.7924 1.87426 15.1551 1.94594 16.1442 2.17591C16.4775 2.25329 17.7468 2.78722 17.9 2.91444C17.9745 2.97624 18.0353 2.98832 18.0353 2.94133C18.0353 2.89446 18.1204 2.932 18.2247 3.02476C18.3289 3.11751 18.5236 3.22728 18.6576 3.26867C18.7915 3.31005 18.9011 3.38996 18.9011 3.44628C18.9011 3.50259 18.9531 3.54869 19.0169 3.54869C19.4317 3.54869 22.1477 6.10996 22.1477 6.50107C22.1477 6.54498 22.2329 6.67933 22.3371 6.79964C22.7619 7.29031 23.5968 8.9889 23.7751 9.72501C23.9475 10.4367 23.9696 10.5191 23.9883 10.5191C24.0112 10.5191 24.0778 10.8581 24.1608 11.3973C24.2505 11.9797 24.2576 14.3215 24.1719 15.0466C24.1345 15.3632 24.0451 15.7337 23.9733 15.8698C23.9015 16.0059 23.8546 16.1305 23.8692 16.1467C23.9084 16.1899 23.7564 16.8682 23.6789 16.9955C23.6421 17.0559 23.6078 17.13 23.6025 17.1602C23.5972 17.1904 23.5058 17.4253 23.3994 17.6821L23.206 18.1492L13.0195 18.1212L2.83291 18.0932L2.60034 17.5993C2.47242 17.3276 2.38942 17.0682 2.41582 17.023C2.44234 16.9777 2.42048 16.9406 2.36745 16.9406C2.31431 16.9406 2.26561 16.8789 2.25912 16.8034C2.24537 16.6421 2.1839 16.4023 2.09721 16.1722C2.04094 16.023 1.95966 15.6097 1.83791 14.855C1.73694 14.229 1.71205 12.2364 1.79884 11.7266C1.93401 10.9323 2.08553 10.2205 2.13174 10.1623C2.14375 10.1473 2.16172 10.0978 2.17178 10.0526C2.22362 9.81733 2.48887 9.04927 2.62285 8.74619C2.70705 8.55596 2.77588 8.34597 2.77588 8.27967C2.77588 8.21326 2.82458 8.15903 2.8841 8.15903C2.94362 8.15903 2.99232 8.06024 2.99232 7.93949C2.99232 7.81875 3.03323 7.71995 3.08312 7.71995C3.13312 7.71995 3.2329 7.58889 3.30487 7.42862C3.83906 6.23948 5.67289 4.27186 6.89689 3.57471C8.36655 2.73749 9.32898 2.29171 9.91273 2.17766C10.0445 2.15198 10.258 2.09643 10.3872 2.05428C10.6762 1.95988 10.9765 1.914 11.8114 1.8365C12.168 1.80335 12.4845 1.74989 12.5148 1.71762C12.5452 1.68534 12.9109 1.69259 13.3276 1.73375C13.7442 1.77492 14.2556 1.82442 14.4639 1.84374ZM9.30928 3.57032C9.2608 3.64902 9.21145 3.77888 9.19944 3.85912C9.18753 3.93925 9.10593 4.16154 9.01827 4.35309C8.76622 4.90325 8.17164 6.4385 8.1303 6.64563C8.10963 6.74904 8.02111 6.99602 7.93366 7.19448C7.76386 7.57945 6.9233 9.7507 6.07299 12.001C5.78782 12.7557 5.47192 13.5707 5.37106 13.8122C5.27019 14.0537 5.05321 14.6318 4.88893 15.0969L4.59034 15.9425L3.98072 15.9751L3.3711 16.0076L3.33885 16.5112C3.31743 16.8456 3.35812 17.0582 3.46006 17.1439C3.57218 17.2383 4.50149 17.2653 6.90133 17.2442L10.1891 17.2151V16.6113V16.0076L9.67507 15.9741C9.3924 15.9558 9.16102 15.9146 9.16102 15.8827C9.16102 15.6668 10.2962 12.4603 10.3587 12.4996C10.4019 12.5266 10.5836 12.8329 10.7626 13.1805C11.4706 14.5549 12.9193 17.0953 13.0124 17.1258C13.0668 17.1436 13.2509 16.8993 13.4216 16.5829C13.5924 16.2664 13.9034 15.6888 14.1129 15.2991C14.3224 14.9096 14.694 14.2427 14.9387 13.8172C15.1835 13.3919 15.453 12.9079 15.5374 12.7419C15.6218 12.576 15.7395 12.4401 15.799 12.4401C15.8583 12.4401 15.8783 12.469 15.8433 12.5046C15.8083 12.5401 16.0345 13.3304 16.3459 14.2609L16.912 15.9527H16.4131C15.8123 15.9527 15.6544 16.0897 15.6544 16.6113C15.6544 16.8287 15.7128 17.0658 15.7842 17.1382C15.9698 17.3265 22.3734 17.3265 22.559 17.1382C22.7024 16.9928 22.7322 16.3017 22.6039 16.0969C22.5591 16.0254 22.283 15.9513 21.9906 15.9323L21.4589 15.8978L21.1216 15.0197C20.9361 14.5367 20.7428 14.0427 20.6921 13.922C20.6414 13.8012 20.5888 13.653 20.575 13.5927C20.5437 13.4542 19.5822 10.9427 19.4193 10.574C19.3528 10.423 19.2818 10.2105 19.2618 10.1016C19.2417 9.99274 19.1532 9.76212 19.065 9.58912C18.9768 9.41612 18.8021 8.98659 18.6769 8.63445C18.5516 8.28241 18.3804 7.83872 18.2963 7.64849C18.2122 7.45826 18.1435 7.24761 18.1435 7.18043C18.1435 7.11325 18.0958 6.97253 18.0374 6.8677C17.8963 6.61424 17.1732 4.75605 17.1152 4.49798C17.0901 4.38613 17.0257 4.23794 16.9721 4.16867C16.9185 4.09941 16.8427 3.90687 16.8036 3.74079C16.6563 3.11543 16.539 3.26548 15.3993 5.53696C14.9029 6.52631 14.1671 7.99109 13.7642 8.79208L13.0317 10.2484L12.8069 9.78001C12.6832 9.52238 12.555 9.28692 12.522 9.25673C12.4889 9.22655 12.0835 8.4362 11.6211 7.50041C10.2139 4.65254 9.60787 3.49853 9.50008 3.46208C9.44359 3.44298 9.35766 3.49172 9.30928 3.57032Z" fill="#204B9B"/>
<path id="Layer 4" fill-rule="evenodd" clip-rule="evenodd" d="M7.59773 1.10938C7.56036 1.17197 7.60317 1.19055 7.69819 1.15284C7.88309 1.07929 7.91694 1 7.76342 1C7.70811 1 7.6336 1.04921 7.59773 1.10938ZM18.6181 1.12431C18.6906 1.19995 18.7767 1.2339 18.8095 1.19984C18.8424 1.16578 18.7831 1.10396 18.6779 1.06237C18.5257 1.00243 18.5135 1.01504 18.6181 1.12431ZM9.50477 3.4548C9.45694 3.5341 9.40826 3.66493 9.39641 3.74577C9.38467 3.8265 9.30417 4.05045 9.21769 4.24344C8.96905 4.79772 8.38251 6.34446 8.34173 6.55314C8.32134 6.65732 8.23401 6.90615 8.14775 7.1061C7.98024 7.49395 7.15104 9.68145 6.31223 11.9486C6.03092 12.7089 5.71929 13.53 5.61979 13.7733C5.52029 14.0166 5.30624 14.5991 5.14418 15.0677L4.84963 15.9196L4.24825 15.9524L3.64688 15.9852L3.61506 16.4926C3.59393 16.8294 3.63407 17.0437 3.73463 17.13C3.84524 17.2251 4.76198 17.2523 7.12937 17.231L10.3727 17.2017V16.5934V15.9852L9.86562 15.9515C9.58676 15.933 9.35851 15.8915 9.35851 15.8593C9.35851 15.6418 10.4783 12.4113 10.54 12.4509C10.5826 12.4781 10.7619 12.7868 10.9384 13.1369C11.6369 14.5216 13.0659 17.081 13.1579 17.1118C13.2115 17.1297 13.3931 16.8835 13.5615 16.5648C13.73 16.246 14.0368 15.664 14.2434 15.2714C14.4501 14.8789 14.8167 14.2071 15.0581 13.7784C15.2996 13.3499 15.5654 12.8623 15.6487 12.6951C15.7319 12.5279 15.8481 12.391 15.9067 12.391C15.9652 12.391 15.985 12.4201 15.9505 12.456C15.9159 12.4917 16.139 13.288 16.4463 14.2254L17.0047 15.9299H16.5126C15.9198 15.9299 15.7641 16.0679 15.7641 16.5934C15.7641 16.8124 15.8217 17.0513 15.8922 17.1243C16.0753 17.3139 22.3922 17.3139 22.5753 17.1243C22.7168 16.9777 22.7463 16.2815 22.6196 16.0752C22.5754 16.0031 22.3031 15.9284 22.0146 15.9093L21.4901 15.8746L21.1574 14.9899C20.9744 14.5033 20.7837 14.0056 20.7337 13.8839C20.6837 13.7623 20.6318 13.613 20.6182 13.5522C20.5873 13.4127 19.6388 10.8824 19.4781 10.5109C19.4125 10.3588 19.3424 10.1447 19.3227 10.035C19.3029 9.92531 19.2156 9.69295 19.1286 9.51866C19.0416 9.34437 18.8693 8.91162 18.7458 8.55684C18.6221 8.20218 18.4532 7.75517 18.3703 7.56351C18.2873 7.37185 18.2195 7.15963 18.2195 7.09195C18.2195 7.02426 18.1725 6.88249 18.1149 6.77687C17.9757 6.52151 17.2623 4.64942 17.2051 4.38942C17.1803 4.27672 17.1168 4.12742 17.064 4.05764C17.0111 3.98786 16.9363 3.79388 16.8978 3.62655C16.7525 2.99651 16.6367 3.14769 15.5124 5.43617C15.0227 6.43293 14.2969 7.90867 13.8994 8.71565L13.1769 10.1829L12.9551 9.71098C12.8331 9.45142 12.7066 9.2142 12.674 9.18379C12.6414 9.15338 12.2414 8.35712 11.7854 7.41432C10.3972 4.54513 9.79932 3.38248 9.69299 3.34576C9.63726 3.32652 9.55249 3.37562 9.50477 3.4548ZM6.19896 4.12422L5.99559 4.37305L6.23579 4.16237C6.36786 4.04647 6.476 3.93455 6.476 3.91354C6.476 3.82507 6.39006 3.89043 6.19896 4.12422ZM23.7795 9.80122C23.7846 9.93006 23.8099 9.95627 23.844 9.86813C23.8748 9.78828 23.871 9.69284 23.8355 9.65613C23.8001 9.61941 23.7749 9.68466 23.7795 9.80122ZM25.5944 9.91181C25.5995 10.0407 25.6248 10.0669 25.6589 9.97872C25.6897 9.89888 25.6859 9.80343 25.6504 9.76672C25.615 9.73 25.5898 9.79525 25.5944 9.91181ZM24.2065 12.6766C24.2116 12.8054 24.2369 12.8317 24.271 12.7435C24.3018 12.6637 24.298 12.5682 24.2626 12.5315C24.2271 12.4948 24.2019 12.56 24.2065 12.6766ZM24.2065 13.6719C24.2116 13.8008 24.2369 13.827 24.271 13.7388C24.3018 13.659 24.298 13.5636 24.2626 13.5268C24.2271 13.4901 24.2019 13.5554 24.2065 13.6719ZM2.00054 14.1143C2.00566 14.2431 2.03097 14.2694 2.06502 14.1812C2.09588 14.1014 2.09203 14.0059 2.05659 13.9692C2.02114 13.9325 1.99595 13.9977 2.00054 14.1143ZM25.9147 14.2249C25.9198 14.3537 25.9451 14.3799 25.9791 14.2918C26.01 14.212 26.0062 14.1165 25.9707 14.0798C25.9353 14.0431 25.9101 14.1083 25.9147 14.2249ZM24.9944 18.2597C24.9556 18.3245 24.9469 18.4014 24.9749 18.4304C25.0028 18.4593 25.0542 18.4063 25.089 18.3124C25.1611 18.1175 25.0997 18.0832 24.9944 18.2597ZM13.2018 19.9112L2.15225 19.968L13.1689 19.9949C20.4263 20.0126 24.208 19.9841 24.2515 19.9112C24.2878 19.8504 24.3026 19.8127 24.2844 19.8275C24.2663 19.8423 19.2791 19.8799 13.2018 19.9112Z" fill="#00FFFF"/>
<path id="Layer 5" fill-rule="evenodd" clip-rule="evenodd" d="M7.59773 1.10938C7.56036 1.17197 7.60317 1.19055 7.69819 1.15284C7.88309 1.07929 7.91694 1 7.76342 1C7.70811 1 7.6336 1.04921 7.59773 1.10938ZM9.50477 3.4548C9.45694 3.5341 9.40826 3.66493 9.39641 3.74577C9.38467 3.8265 9.30417 4.05045 9.21769 4.24344C8.96905 4.79772 8.38251 6.34446 8.34173 6.55314C8.32134 6.65732 8.23401 6.90615 8.14775 7.1061C7.98024 7.49395 7.15104 9.68145 6.31223 11.9486C6.03092 12.7089 5.71929 13.53 5.61979 13.7733C5.52029 14.0166 5.30624 14.5991 5.14418 15.0677L4.84963 15.9196L4.24825 15.9524L3.64688 15.9852L3.61506 16.4926C3.59393 16.8294 3.63407 17.0437 3.73463 17.13C3.84524 17.2251 4.76198 17.2523 7.12937 17.231L10.3727 17.2017V16.5934V15.9852L9.86562 15.9515C9.58676 15.933 9.35851 15.8915 9.35851 15.8593C9.35851 15.6418 10.4783 12.4113 10.54 12.4509C10.5826 12.4781 10.7619 12.7868 10.9384 13.1369C11.6369 14.5216 13.0659 17.081 13.1579 17.1118C13.2115 17.1297 13.3931 16.8835 13.5615 16.5648C13.73 16.246 14.0368 15.664 14.2434 15.2714C14.4501 14.8789 14.8167 14.2071 15.0581 13.7784C15.2996 13.3499 15.5654 12.8623 15.6487 12.6951C15.7319 12.5279 15.8481 12.391 15.9067 12.391C15.9652 12.391 15.985 12.4201 15.9505 12.456C15.9159 12.4917 16.139 13.288 16.4463 14.2254L17.0047 15.9299H16.5126C15.9198 15.9299 15.7641 16.0679 15.7641 16.5934C15.7641 16.8124 15.8217 17.0513 15.8922 17.1243C16.0753 17.3139 22.3922 17.3139 22.5753 17.1243C22.7168 16.9777 22.7463 16.2815 22.6196 16.0752C22.5754 16.0031 22.3031 15.9284 22.0146 15.9093L21.4901 15.8746L21.1574 14.9899C20.9744 14.5033 20.7837 14.0056 20.7337 13.8839C20.6837 13.7623 20.6318 13.613 20.6182 13.5522C20.5873 13.4127 19.6388 10.8824 19.4781 10.5109C19.4125 10.3588 19.3424 10.1447 19.3227 10.035C19.3029 9.92531 19.2156 9.69295 19.1286 9.51866C19.0416 9.34437 18.8693 8.91162 18.7458 8.55684C18.6221 8.20218 18.4532 7.75517 18.3703 7.56351C18.2873 7.37185 18.2195 7.15963 18.2195 7.09195C18.2195 7.02426 18.1725 6.88249 18.1149 6.77687C17.9757 6.52151 17.2623 4.64942 17.2051 4.38942C17.1803 4.27672 17.1168 4.12742 17.064 4.05764C17.0111 3.98786 16.9363 3.79388 16.8978 3.62655C16.7525 2.99651 16.6367 3.14769 15.5124 5.43617C15.0227 6.43293 14.2969 7.90867 13.8994 8.71565L13.1769 10.1829L12.9551 9.71098C12.8331 9.45142 12.7066 9.2142 12.674 9.18379C12.6414 9.15338 12.2414 8.35712 11.7854 7.41432C10.3972 4.54513 9.79932 3.38248 9.69299 3.34576C9.63726 3.32652 9.55249 3.37562 9.50477 3.4548ZM6.19896 4.12422L5.99559 4.37305L6.23579 4.16237C6.36786 4.04647 6.476 3.93455 6.476 3.91354C6.476 3.82507 6.39006 3.89043 6.19896 4.12422ZM23.7795 9.80122C23.7846 9.93006 23.8099 9.95627 23.844 9.86813C23.8748 9.78828 23.871 9.69284 23.8355 9.65613C23.8001 9.61941 23.7749 9.68466 23.7795 9.80122ZM25.5944 9.91181C25.5995 10.0407 25.6248 10.0669 25.6589 9.97872C25.6897 9.89888 25.6859 9.80343 25.6504 9.76672C25.615 9.73 25.5898 9.79525 25.5944 9.91181ZM24.2065 12.6766C24.2116 12.8054 24.2369 12.8317 24.271 12.7435C24.3018 12.6637 24.298 12.5682 24.2626 12.5315C24.2271 12.4948 24.2019 12.56 24.2065 12.6766ZM24.2065 13.6719C24.2116 13.8008 24.2369 13.827 24.271 13.7388C24.3018 13.659 24.298 13.5636 24.2626 13.5268C24.2271 13.4901 24.2019 13.5554 24.2065 13.6719ZM2.00054 14.1143C2.00566 14.2431 2.03097 14.2694 2.06502 14.1812C2.09588 14.1014 2.09203 14.0059 2.05659 13.9692C2.02114 13.9325 1.99595 13.9977 2.00054 14.1143ZM25.9147 14.2249C25.9198 14.3537 25.9451 14.3799 25.9791 14.2918C26.01 14.212 26.0062 14.1165 25.9707 14.0798C25.9353 14.0431 25.9101 14.1083 25.9147 14.2249ZM24.9944 18.2597C24.9556 18.3245 24.9469 18.4014 24.9749 18.4304C25.0028 18.4593 25.0542 18.4063 25.089 18.3124C25.1611 18.1175 25.0997 18.0832 24.9944 18.2597ZM13.2018 19.9112L2.15225 19.968L13.1689 19.9949C20.4263 20.0126 24.208 19.9841 24.2515 19.9112C24.2878 19.8504 24.3026 19.8127 24.2844 19.8275C24.2663 19.8423 19.2791 19.8799 13.2018 19.9112Z" fill="#008080"/>
<path id="Layer 6" fill-rule="evenodd" clip-rule="evenodd" d="M9.60627 3.15138C9.5578 3.2321 9.50846 3.36528 9.49645 3.44757C9.48455 3.52975 9.40296 3.75772 9.31532 3.95417C9.06331 4.5184 8.46884 6.0929 8.42751 6.30533C8.40684 6.41138 8.31833 6.66468 8.2309 6.86822C8.06113 7.26303 7.22071 9.4898 6.37056 11.7976C6.08544 12.5716 5.7696 13.4075 5.66875 13.6551C5.56791 13.9028 5.35096 14.4958 5.18671 14.9727L4.88817 15.8399L4.27866 15.8734L3.66915 15.9067L3.63691 16.4232C3.61548 16.7661 3.65617 16.9842 3.7581 17.0721C3.87019 17.1689 4.79934 17.1966 7.19875 17.1749L10.486 17.145V16.5259V15.9067L9.972 15.8723C9.68937 15.8535 9.45804 15.8113 9.45804 15.7786C9.45804 15.5571 10.593 12.2686 10.6555 12.3089C10.6987 12.3366 10.8804 12.6508 11.0593 13.0073C11.7672 14.4168 13.2156 17.0222 13.3088 17.0535C13.3631 17.0717 13.5472 16.8211 13.7179 16.4967C13.8886 16.1721 14.1996 15.5798 14.409 15.1801C14.6185 14.7806 14.99 14.0967 15.2347 13.6603C15.4794 13.2241 15.7489 12.7277 15.8333 12.5575C15.9177 12.3873 16.0354 12.2479 16.0948 12.2479C16.1541 12.2479 16.1741 12.2776 16.1392 12.3141C16.1041 12.3505 16.3303 13.161 16.6417 14.1154L17.2077 15.8504H16.7089C16.1081 15.8504 15.9502 15.9909 15.9502 16.5259C15.9502 16.7488 16.0087 16.9919 16.0801 17.0662C16.2657 17.2593 22.6681 17.2593 22.8536 17.0662C22.997 16.9171 23.0269 16.2083 22.8985 15.9983C22.8537 15.9249 22.5777 15.8489 22.2853 15.8294L21.7537 15.7941L21.4165 14.8935C21.231 14.3981 21.0378 13.8916 20.9871 13.7677C20.9364 13.6439 20.8838 13.4919 20.87 13.43C20.8387 13.288 19.8774 10.7123 19.7145 10.3341C19.648 10.1793 19.577 9.96138 19.557 9.84971C19.537 9.73803 19.4485 9.5015 19.3603 9.32408C19.2721 9.14666 19.0974 8.70615 18.9723 8.345C18.847 7.98397 18.6758 7.52893 18.5917 7.33384C18.5076 7.13874 18.4389 6.92271 18.4389 6.85381C18.4389 6.78491 18.3912 6.64059 18.3329 6.53308C18.1918 6.27314 17.4688 4.36744 17.4108 4.10277C17.3857 3.98805 17.3213 3.83607 17.2677 3.76504C17.2142 3.694 17.1383 3.49654 17.0993 3.32621C16.952 2.68486 16.8347 2.83876 15.6952 5.16831C15.1989 6.18296 14.4632 7.68519 14.0604 8.50666L13.328 10.0002L13.1033 9.51985C12.9796 9.25564 12.8514 9.01416 12.8184 8.9832C12.7853 8.95224 12.38 8.14169 11.9177 7.18197C10.5107 4.26128 9.90481 3.07776 9.79704 3.04038C9.74055 3.02079 9.65464 3.07078 9.60627 3.15138ZM6.25576 3.83281L6.04963 4.08611L6.29309 3.87165C6.42693 3.75367 6.53654 3.63974 6.53654 3.61835C6.53654 3.52829 6.44944 3.59482 6.25576 3.83281ZM25.9135 9.72429C25.9187 9.85544 25.9443 9.88213 25.9789 9.7924C26.0101 9.71112 26.0062 9.61397 25.9703 9.57659C25.9344 9.53922 25.9089 9.60564 25.9135 9.72429ZM24.5069 12.5387C24.5121 12.6699 24.5377 12.6965 24.5722 12.6068C24.6035 12.5255 24.5996 12.4284 24.5637 12.391C24.5277 12.3536 24.5022 12.4201 24.5069 12.5387ZM24.5069 13.5519C24.5121 13.6831 24.5377 13.7097 24.5722 13.62C24.6035 13.5387 24.5996 13.4416 24.5637 13.4042C24.5277 13.3668 24.5022 13.4333 24.5069 13.5519ZM2.00055 14.0022C2.00574 14.1334 2.03139 14.16 2.0659 14.0703C2.09717 13.989 2.09328 13.8919 2.05735 13.8545C2.02143 13.8171 1.99589 13.8836 2.00055 14.0022ZM25.3054 18.222C25.2661 18.288 25.2572 18.3663 25.2856 18.3958C25.3139 18.4252 25.366 18.3712 25.4013 18.2756C25.4744 18.0773 25.4121 18.0424 25.3054 18.222ZM7.75383 19.9876C10.8336 20.0041 15.8732 20.0041 18.9529 19.9876C22.0327 19.9709 19.5128 19.9574 13.3534 19.9574C7.19388 19.9574 4.67415 19.9709 7.75383 19.9876Z" fill="#E51C20"/>
<path id="Layer 7" fill-rule="evenodd" clip-rule="evenodd" d="M6.25576 4.24649L6.04963 4.4933L6.29309 4.28433C6.42693 4.16937 6.53654 4.05836 6.53654 4.03752C6.53654 3.94976 6.44944 4.01459 6.25576 4.24649ZM25.9135 9.98722C25.9187 10.115 25.9443 10.141 25.9789 10.0536C26.0101 9.97439 26.0062 9.87972 25.9703 9.8433C25.9344 9.80688 25.9089 9.8716 25.9135 9.98722ZM24.5069 12.7296C24.5121 12.8574 24.5377 12.8834 24.5722 12.796C24.6035 12.7168 24.5996 12.6221 24.5637 12.5857C24.5277 12.5493 24.5022 12.614 24.5069 12.7296ZM24.5069 13.7169C24.5121 13.8447 24.5377 13.8707 24.5722 13.7833C24.6035 13.7041 24.5996 13.6094 24.5637 13.573C24.5277 13.5366 24.5022 13.6013 24.5069 13.7169ZM2.00055 14.1557C2.00574 14.2835 2.03139 14.3095 2.0659 14.222C2.09717 14.1428 2.09328 14.0482 2.05735 14.0118C2.02143 13.9753 1.99589 14.0401 2.00055 14.1557ZM25.3054 18.2675C25.2661 18.3318 25.2572 18.4081 25.2856 18.4368C25.3139 18.4655 25.366 18.4129 25.4013 18.3198C25.4744 18.1265 25.4121 18.0925 25.3054 18.2675ZM7.75383 19.9879C10.8336 20.004 15.8732 20.004 18.9529 19.9879C22.0327 19.9717 19.5128 19.9585 13.3534 19.9585C7.19388 19.9585 4.67415 19.9717 7.75383 19.9879Z" fill="#800000"/>
<path id="Layer 8" fill-rule="evenodd" clip-rule="evenodd" d="M6.25576 4.24649L6.04963 4.4933L6.29309 4.28433C6.42693 4.16937 6.53654 4.05836 6.53654 4.03752C6.53654 3.94976 6.44944 4.01459 6.25576 4.24649ZM25.9135 9.98722C25.9187 10.115 25.9443 10.141 25.9789 10.0536C26.0101 9.97439 26.0062 9.87972 25.9703 9.8433C25.9344 9.80688 25.9089 9.8716 25.9135 9.98722ZM24.5069 12.7296C24.5121 12.8574 24.5377 12.8834 24.5722 12.796C24.6035 12.7168 24.5996 12.6221 24.5637 12.5857C24.5277 12.5493 24.5022 12.614 24.5069 12.7296ZM24.5069 13.7169C24.5121 13.8447 24.5377 13.8707 24.5722 13.7833C24.6035 13.7041 24.5996 13.6094 24.5637 13.573C24.5277 13.5366 24.5022 13.6013 24.5069 13.7169ZM2.00055 14.1557C2.00574 14.2835 2.03139 14.3095 2.0659 14.222C2.09717 14.1428 2.09328 14.0482 2.05735 14.0118C2.02143 13.9753 1.99589 14.0401 2.00055 14.1557ZM25.3054 18.2675C25.2661 18.3318 25.2572 18.4081 25.2856 18.4368C25.3139 18.4655 25.366 18.4129 25.4013 18.3198C25.4744 18.1265 25.4121 18.0925 25.3054 18.2675ZM7.75383 19.9879C10.8336 20.004 15.8732 20.004 18.9529 19.9879C22.0327 19.9717 19.5128 19.9585 13.3534 19.9585C7.19388 19.9585 4.67415 19.9717 7.75383 19.9879Z" fill="black"/>
</g>
</svg>
