<svg width="53" height="47" viewBox="0 0 53 47" fill="none" xmlns="http://www.w3.org/2000/svg">
<path fill-rule="evenodd" clip-rule="evenodd" d="M3.83213 2.77723C-0.355912 6.94718 -1.16254 12.3804 1.66569 17.3748C3.01041 19.7503 4.80371 21.2526 6.82933 21.6992C8.53513 22.077 10.1554 23.0292 10.429 23.8158C11.2789 26.2625 7.62993 33.1802 3.60482 36.7535C-0.238238 40.1656 -0.240249 40.169 1.45549 43.34C2.38884 45.0856 3.76072 46.5133 4.50399 46.5133C6.78407 46.5133 16.2675 35.7913 18.6512 30.5169C21.8405 23.4647 22.5114 15.476 20.4234 9.43493C18.272 3.21389 15.9276 0.916146 10.9852 0.183933C7.63395 -0.312728 6.53766 0.0839337 3.83213 2.77723ZM37.2741 0.897257C33.9621 2.45279 31.8862 6.54496 31.8862 11.5138C31.8862 17.3926 34.0456 20.617 38.9608 22.0792L42.9447 23.2647L41.44 27.3891C40.6113 29.658 37.9118 33.5257 35.4406 35.9857L30.9468 40.4579L33.3073 43.7289L35.6689 47L39.7584 43.8689C44.4302 40.2923 50.5222 31.1035 52.0027 25.3981C54.2304 16.8193 52.6182 7.15829 48.2421 2.85501C45.8252 0.478375 40.2753 -0.512725 37.2741 0.897257Z" fill="#D8C4BE"/>
</svg>
