<svg width="79" height="63" viewBox="0 0 79 63" fill="none" xmlns="http://www.w3.org/2000/svg">
<path fill-rule="evenodd" clip-rule="evenodd" d="M5.71204 3.72267C-0.530511 9.31218 -1.73285 16.5951 2.48282 23.2897C4.48722 26.4739 7.16024 28.4875 10.1796 29.0862C12.7222 29.5926 15.1373 30.8689 15.5451 31.9234C16.8119 35.2029 11.3729 44.4756 5.37323 49.2653C-0.355109 53.8391 -0.358107 53.8435 2.1695 58.0941C3.56073 60.4339 5.6056 62.3477 6.71349 62.3477C10.1121 62.3477 24.2478 47.9755 27.8008 40.9056C32.5547 31.4527 33.5547 20.7444 30.4424 12.6468C27.2357 4.30799 23.7411 1.22802 16.3742 0.246548C11.3789 -0.419188 9.74481 0.112507 5.71204 3.72267ZM55.5595 1.20271C50.6227 3.28779 47.5285 8.77304 47.5285 15.4334C47.5285 23.3135 50.7472 27.6356 58.0736 29.5955L64.0118 31.1847L61.7691 36.7131C60.5338 39.7543 56.51 44.9387 52.8265 48.2361L46.1282 54.2308L49.6468 58.6154L53.1668 63L59.2625 58.803C66.2261 54.0088 75.3066 41.692 77.5134 34.0442C80.8341 22.545 78.4309 9.59515 71.908 3.82693C68.3055 0.641226 60.033 -0.68727 55.5595 1.20271Z" fill="white"/>
</svg>
