<svg width="0" height="0" class="hidden">
  <symbol fill="none" xmlns="http://www.w3.org/2000/svg" viewBox="0 0 12 14" id="ic_arr_hor">
    <path fill-rule="evenodd" clip-rule="evenodd" d="M12 1.68789C12 2.56181 10.9567 3.37778 8.05733 4.77144C5.88886 5.81387 4.11466 6.81846 4.11466 7.00412C4.11466 7.18979 5.88886 8.19438 8.05733 9.23681C10.9567 10.6305 12 11.4464 12 12.3204C12 12.9737 11.7956 13.5047 11.5451 13.5C10.3696 13.4781 0.151974 7.66636 0.00397205 6.93494C-0.102783 6.40752 1.9468 5.08245 5.62258 3.30209C8.80522 1.76121 11.542 0.5 11.7046 0.5C11.8672 0.5 12 1.03452 12 1.68789Z" fill="currentColor"></path>
  </symbol>
  <symbol fill="none" xmlns="http://www.w3.org/2000/svg" viewBox="0 0 40 40" id="ic_close">
    <path d="M20 0C8.955 0 0 8.955 0 20C0 31.045 8.955 40 20 40C31.045 40 40 31.045 40 20C40 8.955 31.045 0 20 0ZM29.8925 26.3575L26.3575 29.8925L20 23.535L13.6425 29.8925L10.1075 26.3575L16.465 20L10.1075 13.6425L13.6425 10.1075L20 16.465L26.3575 10.1075L29.8925 13.6425L23.535 20L29.8925 26.3575Z" fill="currentColor"></path>
  </symbol>
  <symbol fill="none" xmlns="http://www.w3.org/2000/svg" viewBox="0 0 25 25" id="ic_comments">
    <path d="M9.82143 5.81804C8.39844 5.81804 7.06845 6.06423 5.83147 6.55662C4.59449 7.049 3.61096 7.71656 2.88086 8.5593C2.15076 9.40204 1.78571 10.3063 1.78571 11.2722C1.78571 12.0486 2.03218 12.7967 2.52511 13.5163C3.01804 14.2359 3.71094 14.8609 4.60379 15.3911L5.95703 16.1865L5.46875 17.3796C5.78497 17.1902 6.07329 17.0056 6.33371 16.8257L6.94754 16.3854L7.68694 16.5274C8.41239 16.66 9.12388 16.7263 9.82143 16.7263C11.2444 16.7263 12.5744 16.4801 13.8114 15.9877C15.0484 15.4953 16.0319 14.8277 16.762 13.985C17.4921 13.1423 17.8571 12.238 17.8571 11.2722C17.8571 10.3063 17.4921 9.40204 16.762 8.5593C16.0319 7.71656 15.0484 7.049 13.8114 6.55662C12.5744 6.06423 11.2444 5.81804 9.82143 5.81804ZM9.82143 4C11.5978 4 13.2417 4.32431 14.7531 4.97293C16.2644 5.62156 17.4572 6.50454 18.3315 7.62187C19.2057 8.73921 19.6429 9.95597 19.6429 11.2722C19.6429 12.5883 19.2057 13.8051 18.3315 14.9224C17.4572 16.0398 16.2644 16.9227 14.7531 17.5714C13.2417 18.22 11.5978 18.5443 9.82143 18.5443C9.02158 18.5443 8.20312 18.4686 7.36607 18.3171C6.2128 19.1503 4.92001 19.7563 3.48772 20.1351C3.1529 20.2203 2.75298 20.2961 2.28795 20.3623H2.24609C2.14379 20.3623 2.04846 20.3245 1.9601 20.2487C1.87174 20.173 1.81827 20.0735 1.79967 19.9504C1.79036 19.922 1.78571 19.8913 1.78571 19.8581C1.78571 19.825 1.78804 19.7942 1.79269 19.7658C1.79734 19.7374 1.80664 19.709 1.82059 19.6806L1.85547 19.6096L1.9043 19.5314L1.9601 19.4604L2.02288 19.3894L2.07868 19.3255C2.12519 19.2687 2.23214 19.1503 2.39955 18.9704C2.56696 18.7905 2.68787 18.6508 2.76228 18.5514C2.83668 18.452 2.94131 18.3147 3.07617 18.1395C3.21103 17.9643 3.32729 17.7821 3.42494 17.5927C3.5226 17.4033 3.61793 17.195 3.71094 16.9677C2.55766 16.286 1.65086 15.448 0.990513 14.4537C0.330171 13.4595 0 12.399 0 11.2722C0 9.95597 0.437128 8.73921 1.31138 7.62187C2.18564 6.50454 3.37844 5.62156 4.88979 4.97293C6.40113 4.32431 8.04501 4 9.82143 4ZM21.2891 20.6038C21.3821 20.8311 21.4774 21.0394 21.5751 21.2288C21.6727 21.4181 21.789 21.6004 21.9238 21.7756C22.0587 21.9508 22.1633 22.0881 22.2377 22.1875C22.3121 22.2869 22.433 22.4266 22.6004 22.6065C22.7679 22.7864 22.8748 22.9048 22.9213 22.9616C22.9306 22.971 22.9492 22.9923 22.9771 23.0255C23.005 23.0586 23.0259 23.0823 23.0399 23.0965C23.0539 23.1107 23.0725 23.1344 23.0957 23.1675C23.119 23.2007 23.1352 23.2267 23.1445 23.2456L23.1794 23.3167L23.2073 23.4019L23.2143 23.4942L23.2003 23.5865C23.1724 23.7191 23.112 23.8232 23.019 23.899C22.926 23.9747 22.8237 24.0079 22.7121 23.9984C22.247 23.9321 21.8471 23.8564 21.5123 23.7712C20.08 23.3924 18.7872 22.7864 17.6339 21.9531C16.7969 22.1046 15.9784 22.1804 15.1786 22.1804C12.6581 22.1804 10.4632 21.5554 8.59375 20.3055C9.13318 20.3434 9.54241 20.3623 9.82143 20.3623C11.3188 20.3623 12.7558 20.1493 14.1323 19.7232C15.5087 19.2971 16.7364 18.6863 17.8153 17.8909C18.9779 17.0198 19.8707 16.0161 20.4939 14.8798C21.117 13.7435 21.4286 12.541 21.4286 11.2722C21.4286 10.543 21.3216 9.8234 21.1077 9.11323C22.3075 9.78553 23.2561 10.6283 23.9537 11.6414C24.6512 12.6546 25 13.7435 25 14.9082C25 16.0445 24.6698 17.1074 24.0095 18.0969C23.3491 19.0864 22.4423 19.922 21.2891 20.6038Z" fill="currentColor"></path>
  </symbol>
  <symbol fill="none" xmlns="http://www.w3.org/2000/svg" viewBox="0 0 25 25" id="ic_date">
    <path d="M18.0102 13.4487L10.9333 20.5915C10.8411 20.6752 10.7352 20.7171 10.6154 20.7171C10.4956 20.7171 10.3896 20.6752 10.2975 20.5915L6.31671 16.5737C6.23377 16.4807 6.19231 16.3737 6.19231 16.2528C6.19231 16.1319 6.23377 16.0296 6.31671 15.9459L6.95252 15.3041C7.03546 15.2204 7.13682 15.1786 7.25661 15.1786C7.3764 15.1786 7.48237 15.2204 7.57452 15.3041L10.6154 18.3733L16.7524 12.1791C16.8446 12.0954 16.9505 12.0536 17.0703 12.0536C17.1901 12.0536 17.2915 12.0954 17.3744 12.1791L18.0102 12.8209C18.0931 12.9046 18.1346 13.0069 18.1346 13.1278C18.1346 13.2487 18.0931 13.3557 18.0102 13.4487ZM1.76923 23.2143H21.2308V8.92857H1.76923V23.2143ZM7.07692 6.25V2.23214C7.07692 2.10193 7.03546 1.99498 6.95252 1.91127C6.86959 1.82757 6.76362 1.78571 6.63462 1.78571H5.75C5.62099 1.78571 5.51502 1.82757 5.43209 1.91127C5.34916 1.99498 5.30769 2.10193 5.30769 2.23214V6.25C5.30769 6.38021 5.34916 6.48716 5.43209 6.57087C5.51502 6.65458 5.62099 6.69643 5.75 6.69643H6.63462C6.76362 6.69643 6.86959 6.65458 6.95252 6.57087C7.03546 6.48716 7.07692 6.38021 7.07692 6.25ZM17.6923 6.25V2.23214C17.6923 2.10193 17.6508 1.99498 17.5679 1.91127C17.485 1.82757 17.379 1.78571 17.25 1.78571H16.3654C16.2364 1.78571 16.1304 1.82757 16.0475 1.91127C15.9645 1.99498 15.9231 2.10193 15.9231 2.23214V6.25C15.9231 6.38021 15.9645 6.48716 16.0475 6.57087C16.1304 6.65458 16.2364 6.69643 16.3654 6.69643H17.25C17.379 6.69643 17.485 6.65458 17.5679 6.57087C17.6508 6.48716 17.6923 6.38021 17.6923 6.25ZM23 5.35714V23.2143C23 23.6979 22.8249 24.1164 22.4748 24.4699C22.1246 24.8233 21.7099 25 21.2308 25H1.76923C1.29006 25 0.875401 24.8233 0.52524 24.4699C0.17508 24.1164 0 23.6979 0 23.2143V5.35714C0 4.87351 0.17508 4.45499 0.52524 4.10156C0.875401 3.74814 1.29006 3.57143 1.76923 3.57143H3.53846V2.23214C3.53846 1.6183 3.75501 1.09282 4.1881 0.655692C4.62119 0.218564 5.14183 0 5.75 0H6.63462C7.24279 0 7.76342 0.218564 8.19651 0.655692C8.62961 1.09282 8.84615 1.6183 8.84615 2.23214V3.57143H14.1538V2.23214C14.1538 1.6183 14.3704 1.09282 14.8035 0.655692C15.2366 0.218564 15.7572 0 16.3654 0H17.25C17.8582 0 18.3788 0.218564 18.8119 0.655692C19.245 1.09282 19.4615 1.6183 19.4615 2.23214V3.57143H21.2308C21.7099 3.57143 22.1246 3.74814 22.4748 4.10156C22.8249 4.45499 23 4.87351 23 5.35714Z" fill="currentColor"></path>
  </symbol>
  <symbol fill="none" xmlns="http://www.w3.org/2000/svg" viewBox="0 0 43 43" id="ic_instagram">
    <path d="M21.5 43C33.3741 43 43 33.3741 43 21.5C43 9.62587 33.3741 0 21.5 0C9.62587 0 0 9.62587 0 21.5C0 33.3741 9.62587 43 21.5 43Z" fill="currentColor"></path>
    <path d="M27.9615 11H15.0385C12.7949 11 11 12.7949 11 15.0385V27.9615C11 30.2051 12.7949 32 15.0385 32H27.9615C30.2051 32 32 30.2051 32 27.9615V15.0385C32 12.7949 30.2051 11 27.9615 11ZM29.1282 13.4231H29.5769V17.0128H25.9872V13.4231H29.1282ZM18.5385 19.3462C19.1667 18.4487 20.3333 17.8205 21.5 17.8205C22.6667 17.8205 23.8333 18.4487 24.4615 19.3462C24.9102 19.9744 25.1795 20.6923 25.1795 21.5C25.1795 23.5641 23.4744 25.1795 21.5 25.1795C19.5256 25.1795 17.8205 23.5641 17.8205 21.5C17.8205 20.6923 18.0898 19.9744 18.5385 19.3462ZM29.9359 27.9615C29.9359 29.0385 29.0385 29.9359 27.9615 29.9359H15.0385C13.9615 29.9359 13.0641 29.0385 13.0641 27.9615V19.3462H16.2051C15.9359 19.9744 15.7564 20.7821 15.7564 21.5C15.7564 24.641 18.359 27.2436 21.5 27.2436C24.641 27.2436 27.2436 24.641 27.2436 21.5C27.2436 20.7821 27.0641 19.9743 26.7949 19.3462H29.9359L29.9359 27.9615Z" fill="white"></path>
  </symbol>
  <symbol fill="none" xmlns="http://www.w3.org/2000/svg" viewBox="0 0 20 20" id="ic_email">
    <path d="M9.5 0C4.25323 0 0 4.25323 0 9.5C0 14.7468 4.25323 19 9.5 19C14.7468 19 19 14.7468 19 9.5C19 4.25323 14.7468 0 9.5 0ZM5.77026 6.53125H13.2119C13.6068 6.53125 13.4029 7.03792 13.1882 7.16755C12.9734 7.2962 10.0017 9.09427 9.8899 9.16057C9.77807 9.22687 9.63557 9.25953 9.49109 9.25953C9.35206 9.26237 9.21478 9.22822 9.09328 9.16057L5.79401 7.16755C5.57927 7.03792 5.37641 6.53125 5.77026 6.53125ZM13.4583 11.974C13.4583 12.1818 13.209 12.4688 13.019 12.4688H5.98104C5.79104 12.4688 5.54167 12.1818 5.54167 11.974V8.36495C5.54167 8.27391 5.53969 8.15615 5.71187 8.25609L9.09328 10.2501C9.21262 10.3231 9.35148 10.3576 9.49109 10.3491C9.63557 10.3491 9.74047 10.3382 9.8899 10.2501L13.2881 8.25708C13.4603 8.15615 13.4583 8.2749 13.4583 8.36594V11.974Z" fill="currentColor"></path>
  </symbol>
  <symbol fill="none" xmlns="http://www.w3.org/2000/svg" viewBox="0 0 30 28" id="ic_menu">
    <path d="M27.4675 5.12676H2.53247C1.12987 5.12676 0 3.9831 0 2.56338C0 1.14366 1.12987 0 2.53247 0H27.4675C28.8701 0 30 1.14366 30 2.56338C30 3.9831 28.8701 5.12676 27.4675 5.12676ZM30 14C30 12.5803 28.8701 11.4366 27.4675 11.4366H2.53247C1.12987 11.4366 0 12.5803 0 14C0 15.4197 1.12987 16.5634 2.53247 16.5634H27.4675C28.8701 16.5634 30 15.4197 30 14ZM30 25.4366C30 24.0169 28.8701 22.8732 27.4675 22.8732H2.53247C1.12987 22.8732 0 24.0169 0 25.4366C0 26.8563 1.12987 28 2.53247 28H27.4675C28.8701 28 30 26.8563 30 25.4366Z" fill="currentColor"></path>
  </symbol>
  <symbol fill="none" xmlns="http://www.w3.org/2000/svg" viewBox="0 0 30 30" id="ic_mob_phone">
    <path fill-rule="evenodd" clip-rule="evenodd" d="M15 30C23.2845 30 30 23.2845 30 15C30 6.7155 23.2845 0 15 0C6.7155 0 0 6.7155 0 15C0 23.2845 6.7155 30 15 30ZM19.848 17.0415L22.164 19.3635C22.6245 19.827 22.6095 20.5935 22.134 21.0735L21.471 21.7215L21.456 21.708C20.9004 22.1345 20.2404 22.4039 19.545 22.488C19.395 22.5045 15.8925 22.833 11.5455 18.477C8.4 15.3255 7.2405 13.002 7.548 10.461C7.5825 10.143 7.6605 9.828 7.788 9.4965C7.923 9.1485 8.106 8.8245 8.325 8.5455L8.307 8.5275L8.9595 7.869C9.438 7.389 10.203 7.3755 10.662 7.8375L12.9795 10.1595C13.44 10.6215 13.4265 11.3865 12.9495 11.8665L12.5625 12.252L11.7795 13.0365C11.8221 13.1112 11.8641 13.1862 11.9055 13.2615L11.907 13.266C12.3165 14.0055 12.8775 15.0165 13.9395 16.08C15.0015 17.145 16.0095 17.706 16.7475 18.1155L16.977 18.2445L18.144 17.0745C18.6225 16.5945 19.386 16.581 19.848 17.043V17.0415Z" fill="currentColor"></path>
  </symbol>
  <symbol fill="none" xmlns="http://www.w3.org/2000/svg" viewBox="0 0 24 24" id="ic_phone">
    <path fill-rule="evenodd" clip-rule="evenodd" d="M12 22C17.523 22 22 17.523 22 12C22 6.477 17.523 2 12 2C6.477 2 2 6.477 2 12C2 17.523 6.477 22 12 22ZM15.232 13.361L16.776 14.909C17.083 15.218 17.073 15.729 16.756 16.049L16.314 16.481L16.304 16.472C15.9336 16.7563 15.4936 16.9359 15.03 16.992C14.93 17.003 12.595 17.222 9.697 14.318C7.6 12.217 6.827 10.668 7.032 8.974C7.055 8.762 7.107 8.552 7.192 8.331C7.282 8.099 7.404 7.883 7.55 7.697L7.538 7.685L7.973 7.246C8.292 6.926 8.802 6.917 9.108 7.225L10.653 8.773C10.96 9.081 10.951 9.591 10.633 9.911L10.375 10.168L9.853 10.691C9.88141 10.7408 9.90941 10.7908 9.937 10.841L9.938 10.844C10.211 11.337 10.585 12.011 11.293 12.72C12.001 13.43 12.673 13.804 13.165 14.077L13.318 14.163L14.096 13.383C14.415 13.063 14.924 13.054 15.232 13.362V13.361Z" fill="currentColor"></path>
  </symbol>
  <symbol fill="none" xmlns="http://www.w3.org/2000/svg" viewBox="0 0 20 20" id="ic_search">
    <path d="M12.5 14C10.7612 14 9.12813 13.3246 7.90177 12.0983C6.67542 10.8719 6 9.23889 6 7.50004C6 5.76119 6.67538 4.12817 7.90173 2.90181C9.12813 1.67542 10.7612 1 12.5 1C14.2388 1 15.8719 1.67538 17.0982 2.90177C18.3246 4.12813 19 5.76115 19 7.5C19 9.23885 18.3246 10.8719 17.0982 12.0983C15.8719 13.3246 14.2388 14 12.5 14Z" fill="currentColor"></path>
    <path d="M6.36605 13.0017C6.2724 13.0017 6.1787 12.9659 6.10723 12.8945C5.96426 12.7515 5.96426 12.5198 6.10723 12.3768L7.37686 11.1072C7.51979 10.9643 7.75152 10.9643 7.89445 11.1072C8.03743 11.2501 8.03743 11.4818 7.89445 11.6248L6.62483 12.8945C6.55341 12.9659 6.45975 13.0017 6.36605 13.0017ZM7.36437 14C7.27071 14 7.17701 13.9643 7.10555 13.8928C6.96257 13.7498 6.96257 13.5181 7.10555 13.3751L8.37517 12.1055C8.5181 11.9626 8.74984 11.9626 8.89277 12.1055C9.03574 12.2485 9.03574 12.4802 8.89277 12.6232L7.62314 13.8928C7.55172 13.9643 7.45802 14 7.36437 14Z" fill="currentColor"></path>
    <path d="M3.15456 19C2.75311 19 2.37564 18.8437 2.09176 18.5598L1.4395 17.9077C0.853498 17.3217 0.853498 16.3683 1.4395 15.7823L4.78191 12.4402C5.06579 12.1564 5.44326 12 5.84475 12C6.2462 12 6.62362 12.1563 6.90751 12.4402L7.55976 13.0924C7.84365 13.3762 8 13.7537 8 14.1551C8 14.5565 7.84365 14.9339 7.55976 15.2178L4.21736 18.5598C3.93352 18.8437 3.55605 19 3.15456 19Z" fill="currentColor"></path>
    <circle cx="12.5" cy="7.5" r="4.5" fill="white"></circle>
  </symbol>
  <symbol fill="none" xmlns="http://www.w3.org/2000/svg" viewBox="0 0 43 43" id="ic_telegram">
    <path d="M21.5 7.40758e-08C17.2477 7.40758e-08 13.0909 1.26095 9.55525 3.6234C6.01959 5.98585 3.26388 9.34369 1.6366 13.2723C0.00931561 17.2009 -0.416456 21.5238 0.413126 25.6944C1.24271 29.865 3.29038 33.696 6.29721 36.7028C9.30404 39.7096 13.135 41.7573 17.3056 42.5869C21.4762 43.4165 25.7991 42.9907 29.7277 41.3634C33.6563 39.7361 37.0141 36.9804 39.3766 33.4448C41.739 29.9091 43 25.7523 43 21.5C43.0002 18.6765 42.4443 15.8806 41.3639 13.272C40.2835 10.6634 38.6998 8.29319 36.7033 6.29668C34.7068 4.30017 32.3366 2.71651 29.728 1.63611C27.1194 0.55572 24.3235 -0.000234304 21.5 7.40758e-08ZM28.336 32.5778C28.2555 32.7785 28.133 32.9596 27.9768 33.1091C27.8206 33.2585 27.6343 33.3729 27.4303 33.4445C27.2263 33.516 27.0093 33.5431 26.794 33.524C26.5786 33.5049 26.3698 33.4399 26.1817 33.3335L20.3451 28.7984L16.5991 32.2543C16.5122 32.3185 16.4105 32.3598 16.3034 32.3745C16.1964 32.3891 16.0873 32.3766 15.9864 32.338L16.7045 25.9128L16.7275 25.9311L16.7421 25.8042C16.7421 25.8042 27.2449 16.2421 27.6727 15.8347C28.1059 15.4283 27.963 15.3402 27.963 15.3402C27.9876 14.8445 27.1857 15.3402 27.1857 15.3402L13.2698 24.2928L7.4745 22.3191C7.4745 22.3191 6.5844 21.9999 6.50056 21.2979C6.41241 20.6013 7.50351 20.2229 7.50351 20.2229L30.5451 11.0693C30.5451 11.0693 32.4392 10.2253 32.4392 11.6229L28.336 32.5778Z" fill="currentColor"></path>
  </symbol>
  <symbol fill="none" xmlns="http://www.w3.org/2000/svg" viewBox="0 0 20 21" id="ic_telegram_h">
    <rect x="0.5" y="0.5" width="19" height="20" rx="9.5" fill="#D8C4BE"></rect>
    <rect x="0.5" y="0.5" width="19" height="20" rx="9.5" stroke="#D8C4BE"></rect>
    <path d="M10 3.44539e-08C8.02219 3.44539e-08 6.08879 0.58649 4.4443 1.6853C2.79981 2.78412 1.51809 4.3459 0.761209 6.17316C0.00433284 8.00042 -0.1937 10.0111 0.192152 11.9509C0.578004 13.8907 1.53041 15.6725 2.92894 17.0711C4.32746 18.4696 6.10929 19.422 8.0491 19.8078C9.98891 20.1937 11.9996 19.9957 13.8268 19.2388C15.6541 18.4819 17.2159 17.2002 18.3147 15.5557C19.4135 13.9112 20 11.9778 20 10C20.0001 8.68675 19.7415 7.38634 19.239 6.17303C18.7365 4.95973 17.9999 3.8573 17.0713 2.92869C16.1427 2.00008 15.0403 1.26349 13.827 0.760983C12.6137 0.258474 11.3133 -0.000108979 10 3.44539e-08ZM13.1795 15.1525C13.1421 15.2458 13.0851 15.33 13.0125 15.3996C12.9398 15.4691 12.8532 15.5223 12.7583 15.5556C12.6634 15.5888 12.5625 15.6015 12.4623 15.5926C12.3621 15.5837 12.265 15.5535 12.1775 15.504L9.46284 13.3946L7.72052 15.002C7.6801 15.0319 7.6328 15.0511 7.583 15.0579C7.5332 15.0647 7.48248 15.0589 7.43552 15.0409L7.76952 12.0525L7.78021 12.061L7.78704 12.002C7.78704 12.002 12.672 7.55445 12.871 7.36496C13.0725 7.17596 13.006 7.13496 13.006 7.13496C13.0175 6.90443 12.6445 7.13496 12.6445 7.13496L6.172 11.299L3.47651 10.381C3.47651 10.381 3.06251 10.2325 3.02351 9.906C2.98251 9.582 3.49 9.406 3.49 9.406L14.207 5.14849C14.207 5.14849 15.088 4.75597 15.088 5.406L13.1795 15.1525Z" fill="white"></path>
  </symbol>
  <symbol fill="none" xmlns="http://www.w3.org/2000/svg" viewBox="0 0 25 25" id="ic_view">
    <path d="M12.5 5C7.27273 5 2.80864 8.31733 1 13C2.80864 17.6827 7.27273 21 12.5 21C17.7325 21 22.1914 17.6827 24 13C22.1914 8.31733 17.7325 5 12.5 5ZM12.5 18.3333C9.61454 18.3333 7.27273 15.944 7.27273 13C7.27273 10.056 9.61454 7.66667 12.5 7.66667C15.3855 7.66667 17.7273 10.056 17.7273 13C17.7273 15.944 15.3855 18.3333 12.5 18.3333ZM12.5 9.8C10.7698 9.8 9.36364 11.2347 9.36364 13C9.36364 14.7653 10.7698 16.2 12.5 16.2C14.2302 16.2 15.6364 14.7653 15.6364 13C15.6364 11.2347 14.2302 9.8 12.5 9.8Z" fill="currentColor"></path>
  </symbol>
  <symbol fill="none" xmlns="http://www.w3.org/2000/svg" viewBox="0 0 43 43" id="ic_vk">
    <path d="M21.5 0C9.62573 0 0 9.62573 0 21.5C0 33.3743 9.62573 43 21.5 43C33.3743 43 43 33.3743 43 21.5C43 9.62573 33.3743 0 21.5 0ZM29.7685 24.2569C29.7685 24.2569 31.6699 26.1337 32.138 27.0049C32.1515 27.0228 32.1582 27.0407 32.1627 27.0497C32.353 27.3699 32.3978 27.6185 32.3037 27.8044C32.147 28.1135 31.6095 28.2658 31.4258 28.2792H28.0665C27.8335 28.2792 27.3453 28.2188 26.7541 27.8111C26.2994 27.4931 25.8515 26.9713 25.4148 26.4629C24.7631 25.7059 24.1987 25.052 23.6298 25.052C23.5576 25.0519 23.4858 25.0632 23.4171 25.0856C22.9871 25.2244 22.4361 25.8381 22.4361 27.473C22.4361 27.9836 22.033 28.277 21.7486 28.277H20.21C19.6859 28.277 16.9559 28.0933 14.5371 25.5424C11.5764 22.4182 8.9113 16.1519 8.88891 16.0936C8.72094 15.6883 9.06807 15.471 9.44656 15.471H12.8395C13.2919 15.471 13.4397 15.7465 13.5428 15.9906C13.6637 16.2751 14.1071 17.406 14.835 18.6781C16.0153 20.752 16.7386 21.5941 17.3187 21.5941C17.4275 21.5928 17.5343 21.5651 17.63 21.5134C18.387 21.0924 18.2459 18.3937 18.2123 17.8338C18.2123 17.7285 18.2101 16.6267 17.8226 16.0981C17.5449 15.7152 17.0723 15.5696 16.7857 15.5158C16.9017 15.3557 17.0546 15.2259 17.2314 15.1373C17.7509 14.8776 18.6871 14.8395 19.6165 14.8395H20.1339C21.1417 14.8529 21.4015 14.9179 21.7665 15.0097C22.5056 15.1866 22.5212 15.6636 22.4563 17.2963C22.4361 17.7599 22.416 18.284 22.416 18.9021C22.416 19.0365 22.4093 19.1798 22.4093 19.3321C22.3869 20.163 22.36 21.1058 22.9468 21.4933C23.0233 21.5413 23.1117 21.5669 23.2021 21.5672C23.4059 21.5672 24.0195 21.5672 25.6813 18.7162C26.1938 17.7985 26.6391 16.845 27.0139 15.863C27.0474 15.8047 27.146 15.6256 27.2624 15.5561C27.3484 15.5123 27.4437 15.49 27.5402 15.4912H31.5289C31.9633 15.4912 32.2612 15.5561 32.3172 15.7241C32.4157 15.9906 32.2993 16.8036 30.4785 19.2694L29.6655 20.3421C28.0149 22.5056 28.0149 22.6153 29.7685 24.2569Z" fill="currentColor"></path>
  </symbol>
  <symbol fill="none" xmlns="http://www.w3.org/2000/svg" viewBox="0 0 20 20" id="ic_vk_h">
    <g clip-path="url(#clip0_7115_125)">
      <rect width="20" height="20" rx="10" fill="#D8C4BE"></rect>
      <path d="M10 0C4.47708 0 0 4.47708 0 10C0 15.5229 4.47708 20 10 20C15.5229 20 20 15.5229 20 10C20 4.47708 15.5229 0 10 0ZM13.8458 11.2823C13.8458 11.2823 14.7302 12.1552 14.9479 12.5604C14.9542 12.5688 14.9573 12.5771 14.9594 12.5812C15.0479 12.7302 15.0688 12.8458 15.025 12.9323C14.9521 13.076 14.7021 13.1469 14.6167 13.1531H13.0542C12.9458 13.1531 12.7188 13.125 12.4437 12.9354C12.2323 12.7875 12.024 12.5448 11.8208 12.3083C11.5177 11.9562 11.2552 11.6521 10.9906 11.6521C10.957 11.652 10.9236 11.6573 10.8917 11.6677C10.6917 11.7323 10.4354 12.0177 10.4354 12.7781C10.4354 13.0156 10.2479 13.1521 10.1156 13.1521H9.4C9.15625 13.1521 7.88646 13.0667 6.76146 11.8802C5.38437 10.4271 4.14479 7.5125 4.13437 7.48542C4.05625 7.29687 4.21771 7.19583 4.39375 7.19583H5.97187C6.18229 7.19583 6.25104 7.32396 6.29896 7.4375C6.35521 7.56979 6.56146 8.09583 6.9 8.6875C7.44896 9.65208 7.78542 10.0437 8.05521 10.0437C8.1058 10.0432 8.15548 10.0303 8.2 10.0062C8.55208 9.81042 8.48646 8.55521 8.47083 8.29479C8.47083 8.24583 8.46979 7.73333 8.28958 7.4875C8.16042 7.30937 7.94062 7.24167 7.80729 7.21667C7.86126 7.1422 7.93236 7.08182 8.01458 7.04062C8.25625 6.91979 8.69167 6.90208 9.12396 6.90208H9.36458C9.83333 6.90833 9.95417 6.93854 10.124 6.98125C10.4677 7.06354 10.475 7.28542 10.4448 8.04479C10.4354 8.26042 10.426 8.50417 10.426 8.79167C10.426 8.85417 10.4229 8.92083 10.4229 8.99167C10.4125 9.37812 10.4 9.81667 10.6729 9.99687C10.7085 10.0192 10.7497 10.0311 10.7917 10.0312C10.8865 10.0312 11.1719 10.0312 11.9448 8.70521C12.1832 8.27839 12.3903 7.83487 12.5646 7.37812C12.5802 7.35104 12.626 7.26771 12.6802 7.23542C12.7202 7.21504 12.7645 7.20467 12.8094 7.20521H14.6646C14.8667 7.20521 15.0052 7.23542 15.0312 7.31354C15.0771 7.4375 15.0229 7.81562 14.176 8.9625L13.7979 9.46146C13.0302 10.4677 13.0302 10.5188 13.8458 11.2823Z" fill="white"></path>
    </g>
    <rect x="0.5" y="0.5" width="19" height="19" rx="9.5" stroke="#D8C4BE"></rect>
    <defs>
      <clipPath id="clip0_7115_125">
        <rect width="20" height="20" rx="10" fill="white"></rect>
      </clipPath>
    </defs>
  </symbol>
  <symbol fill="none" xmlns="http://www.w3.org/2000/svg" viewBox="0 0 43 45" id="ic_youtube">
    <path d="M19 28L26 23.5L19 19V28Z" fill="currentColor"></path>
    <path d="M21.5 1C9.62662 1 0 10.6253 0 22.5C0 34.3747 9.62662 44 21.5 44C33.3734 44 43 34.3734 43 22.5C43 10.6266 33.3734 1 21.5 1ZM33.1745 23.442C33.1745 25.4576 32.9407 27.4732 32.9407 27.4732C32.9407 27.4732 32.7122 29.1905 32.0135 29.9444C31.1253 30.9361 30.1309 30.9414 29.674 31.0006C26.406 31.2505 21.5 31.2586 21.5 31.2586C21.5 31.2586 15.4289 31.1994 13.5611 31.0086C13.0411 30.9052 11.8761 30.9347 10.9865 29.9444C10.2864 29.1892 10.0593 27.4732 10.0593 27.4732C10.0593 27.4732 9.8255 25.4589 9.8255 23.442V21.5527C9.8255 19.537 10.0593 17.5227 10.0593 17.5227C10.0593 17.5227 10.2877 15.8054 10.9865 15.0489C11.8747 14.0559 12.8691 14.0505 13.326 13.9941C16.5926 13.7414 21.4946 13.7414 21.4946 13.7414H21.5054C21.5054 13.7414 26.4074 13.7414 29.674 13.9941C30.1296 14.0505 31.1253 14.0559 32.0135 15.0476C32.7136 15.8041 32.9407 17.5214 32.9407 17.5214C32.9407 17.5214 33.1745 19.537 33.1745 21.5527V23.442Z" fill="currentColor"></path>
  </symbol>
</svg>